<?xml version="1.0" encoding="UTF-8" standalone="no"?>
<!-- Created with Inkscape (http://www.inkscape.org/) -->

<svg
   xmlns:dc="http://purl.org/dc/elements/1.1/"
   xmlns:cc="http://creativecommons.org/ns#"
   xmlns:rdf="http://www.w3.org/1999/02/22-rdf-syntax-ns#"
   xmlns:svg="http://www.w3.org/2000/svg"
   xmlns="http://www.w3.org/2000/svg"
   xmlns:sodipodi="http://sodipodi.sourceforge.net/DTD/sodipodi-0.dtd"
   xmlns:inkscape="http://www.inkscape.org/namespaces/inkscape"
   id="svg2"
   version="1.1"
   inkscape:version="0.91 r13725"
   xml:space="preserve"
   width="471.16153"
   height="470.7597"
   viewBox="0 0 471.16152 470.75971"
   sodipodi:docname="services.svg"><metadata
     id="metadata8"><rdf:RDF><cc:Work
         rdf:about=""><dc:format>image/svg+xml</dc:format><dc:type
           rdf:resource="http://purl.org/dc/dcmitype/StillImage" /><dc:title></dc:title></cc:Work></rdf:RDF></metadata><defs
     id="defs6"><clipPath
       clipPathUnits="userSpaceOnUse"
       id="clipPath16"><path
         d="m 0,612.288 858.897,0 L 858.897,0 0,0 0,612.288 Z"
         id="path18"
         inkscape:connector-curvature="0" /></clipPath></defs><sodipodi:namedview
     pagecolor="#ffffff"
     bordercolor="#666666"
     borderopacity="1"
     objecttolerance="10"
     gridtolerance="10"
     guidetolerance="10"
     inkscape:pageopacity="0"
     inkscape:pageshadow="2"
     inkscape:window-width="1774"
     inkscape:window-height="1007"
     id="namedview4"
     showgrid="false"
     fit-margin-top="0"
     fit-margin-left="0"
     fit-margin-right="0"
     fit-margin-bottom="0"
     inkscape:zoom="1.2334065"
     inkscape:cx="240.77561"
     inkscape:cy="246.1914"
     inkscape:window-x="0"
     inkscape:window-y="60"
     inkscape:window-maximized="0"
     inkscape:current-layer="g10" /><g
     id="g10"
     inkscape:groupmode="layer"
     inkscape:label="moviinn_services03"
     transform="matrix(1.25,0,0,-1.25,-313.85354,628.23537)"><g
       id="g12"><g
         id="g14"
         clip-path="url(#clipPath16)"><g
           id="g20"
           transform="translate(324.5039,313.7852)"><path
             d="M 0,0 C 0,64.064 51.936,116 116,116 180.064,116 232,64.064 232,0 232,-64.066 180.064,-116.002 116,-116.002 51.936,-116.002 0,-64.066 0,0 Z"
             style="fill:none;stroke:#3db5e6;stroke-width:4;stroke-linecap:butt;stroke-linejoin:miter;stroke-miterlimit:10;stroke-dasharray:none;stroke-opacity:1"
             id="path22"
             inkscape:connector-curvature="0" /></g><g
           id="g24"
           transform="translate(344.8994,389.8516)"><path
             d="m 0,0 c 21.99,27.412 55.594,45.101 93.351,45.605 l -0.36,66.106 C 34.317,111.092 -17.902,83.581 -51.932,40.911 L 0,0 Z"
             style="fill:#3db5e6;fill-opacity:1;fill-rule:nonzero;stroke:none"
             id="path26"
             inkscape:connector-curvature="0" /></g><g
           id="g28"
           transform="translate(344.8994,389.8516)"><path
             d="m 0,0 c 21.99,27.412 55.594,45.101 93.351,45.605 l -0.36,66.106 C 34.317,111.092 -17.902,83.581 -51.932,40.911 L 0,0 Z"
             style="fill:none;stroke:#ffffff;stroke-width:2;stroke-linecap:butt;stroke-linejoin:miter;stroke-miterlimit:10;stroke-dasharray:none;stroke-opacity:1"
             id="path30"
             inkscape:connector-curvature="0" /></g><g
           id="g32"
           transform="translate(441.1143,476.5205)"><path
             d="m 0,0 0.392,24.511 c -55.195,0.546 -110.113,-23.115 -147.663,-69.247 -0.008,-0.004 -0.01,-0.009 -0.014,-0.018 l 51.498,-41.459 c 24.251,29.627 59.584,44.87 95.13,44.623 l 0.332,20.947 c 5.407,-3.977 13.032,-3.065 17.316,2.201 4.421,5.425 3.601,13.407 -1.824,17.825 C 10.702,3.013 4.518,3.1 0,0"
             style="fill:#cee9f7;fill-opacity:1;fill-rule:nonzero;stroke:none"
             id="path34"
             inkscape:connector-curvature="0" /></g><g
           id="g36"
           transform="translate(441.1143,476.5205)"><path
             d="m 0,0 0.392,24.511 c -55.195,0.546 -110.113,-23.115 -147.663,-69.247 -0.008,-0.004 -0.01,-0.009 -0.014,-0.018 l 51.498,-41.459 c 24.251,29.627 59.584,44.87 95.13,44.623 l 0.332,20.947 c 5.407,-3.977 13.032,-3.065 17.316,2.201 4.421,5.425 3.601,13.407 -1.824,17.825 C 10.702,3.013 4.518,3.1 0,0 Z"
             style="fill:none;stroke:#ffffff;stroke-width:2;stroke-linecap:butt;stroke-linejoin:miter;stroke-miterlimit:10;stroke-dasharray:none;stroke-opacity:1"
             id="path38"
             inkscape:connector-curvature="0" /></g><g
           id="g40"
           transform="translate(312.7461,416.2588)"><path
             d="m 0,0 -18.998,15.491 c -34.621,-42.989 -50.07,-100.756 -37.122,-158.813 -0.001,-0.007 10e-4,-0.012 0.005,-0.02 l 64.449,14.74 c -8.232,37.392 1.691,74.57 23.907,102.321 l -16.237,13.237 c 6.471,1.78 10.479,8.332 9,14.956 C 23.482,8.743 16.711,13.045 9.881,11.521 4.266,10.267 0.365,5.467 0,0"
             style="fill:#bde1f5;fill-opacity:1;fill-rule:nonzero;stroke:none"
             id="path42"
             inkscape:connector-curvature="0" /></g><g
           id="g44"
           transform="translate(312.7461,416.2588)"><path
             d="m 0,0 -18.998,15.491 c -34.621,-42.989 -50.07,-100.756 -37.122,-158.813 -0.001,-0.007 10e-4,-0.012 0.005,-0.02 l 64.449,14.74 c -8.232,37.392 1.691,74.57 23.907,102.321 l -16.237,13.237 c 6.471,1.78 10.479,8.332 9,14.956 C 23.482,8.743 16.711,13.045 9.881,11.521 4.266,10.267 0.365,5.467 0,0 Z"
             style="fill:none;stroke:#ffffff;stroke-width:2;stroke-linecap:butt;stroke-linejoin:miter;stroke-miterlimit:10;stroke-dasharray:none;stroke-opacity:1"
             id="path46"
             inkscape:connector-curvature="0" /></g><g
           id="g48"
           transform="translate(280.9873,279.1992)"><path
             d="m 0,0 -23.947,-5.243 c 12.133,-53.844 47.761,-101.871 101.277,-127.837 0.006,-0.005 0.013,-0.008 0.019,-0.011 l 28.539,59.638 c -34.4,16.808 -57.339,47.7 -65.254,82.356 L 20.169,4.419 C 22.798,10.596 20.158,17.81 14.055,20.771 7.76,23.826 0.178,21.199 -2.876,14.902 -5.388,9.725 -4.051,3.685 0,0"
             style="fill:#acdaf4;fill-opacity:1;fill-rule:nonzero;stroke:none"
             id="path50"
             inkscape:connector-curvature="0" /></g><g
           id="g52"
           transform="translate(280.9873,279.1992)"><path
             d="m 0,0 -23.947,-5.243 c 12.133,-53.844 47.761,-101.871 101.277,-127.837 0.006,-0.005 0.013,-0.008 0.019,-0.011 l 28.539,59.638 c -34.4,16.808 -57.339,47.7 -65.254,82.356 L 20.169,4.419 C 22.798,10.596 20.158,17.81 14.055,20.771 7.76,23.826 0.178,21.199 -2.876,14.902 -5.388,9.725 -4.051,3.685 0,0 Z"
             style="fill:none;stroke:#ffffff;stroke-width:2;stroke-linecap:butt;stroke-linejoin:miter;stroke-miterlimit:10;stroke-dasharray:none;stroke-opacity:1"
             id="path54"
             inkscape:connector-curvature="0" /></g><g
           id="g56"
           transform="translate(368.5928,167.9971)"><path
             d="m 0,0 -10.861,-21.976 c 49.63,-24.156 109.387,-26.328 163.092,-0.752 0.007,0.001 0.012,0.005 0.019,0.009 L 123.501,36.816 C 88.889,20.449 50.434,21.828 18.426,37.293 L 9.146,18.512 C 5.966,24.422 -1.315,26.866 -7.442,23.947 -13.761,20.94 -16.444,13.379 -13.435,7.062 -10.959,1.867 -5.409,-0.863 0,0"
             style="fill:#9bd2f0;fill-opacity:1;fill-rule:nonzero;stroke:none"
             id="path58"
             inkscape:connector-curvature="0" /></g><g
           id="g60"
           transform="translate(368.5928,167.9971)"><path
             d="m 0,0 -10.861,-21.976 c 49.63,-24.156 109.387,-26.328 163.092,-0.752 0.007,0.001 0.012,0.005 0.019,0.009 L 123.501,36.816 C 88.889,20.449 50.434,21.828 18.426,37.293 L 9.146,18.512 C 5.966,24.422 -1.315,26.866 -7.442,23.947 -13.761,20.94 -16.444,13.379 -13.435,7.062 -10.959,1.867 -5.409,-0.863 0,0 Z"
             style="fill:none;stroke:#ffffff;stroke-width:2;stroke-linecap:butt;stroke-linejoin:miter;stroke-miterlimit:10;stroke-dasharray:none;stroke-opacity:1"
             id="path62"
             inkscape:connector-curvature="0" /></g><g
           id="g64"
           transform="translate(508.9336,167.3809)"><path
             d="m 0,0 10.38,-22.208 c 49.859,23.675 88.877,68.991 102.441,126.907 0.004,0.006 0.004,0.013 0.006,0.02 L 48.375,119.447 C 39.541,82.194 14.448,53.022 -17.62,37.683 L -8.745,18.705 C -15.349,19.911 -21.806,15.751 -23.353,9.144 -24.948,2.331 -20.72,-4.487 -13.905,-6.081 -8.302,-7.394 -2.704,-4.762 0,0"
             style="fill:#88cbef;fill-opacity:1;fill-rule:nonzero;stroke:none"
             id="path66"
             inkscape:connector-curvature="0" /></g><g
           id="g68"
           transform="translate(508.9336,167.3809)"><path
             d="m 0,0 10.38,-22.208 c 49.859,23.675 88.877,68.991 102.441,126.907 0.004,0.006 0.004,0.013 0.006,0.02 L 48.375,119.447 C 39.541,82.194 14.448,53.022 -17.62,37.683 L -8.745,18.705 C -15.349,19.911 -21.806,15.751 -23.353,9.144 -24.948,2.331 -20.72,-4.487 -13.905,-6.081 -8.302,-7.394 -2.704,-4.762 0,0 Z"
             style="fill:none;stroke:#ffffff;stroke-width:2;stroke-linecap:butt;stroke-linejoin:miter;stroke-miterlimit:10;stroke-dasharray:none;stroke-opacity:1"
             id="path70"
             inkscape:connector-curvature="0" /></g><g
           id="g72"
           transform="translate(598.1533,277.292)"><path
             d="m 0,0 23.826,-5.762 c 12.653,53.725 1.633,112.499 -35.126,159.267 -0.003,0.006 -0.008,0.01 -0.012,0.016 L -63.07,112.385 C -39.493,82.219 -32.384,44.401 -40.433,9.777 L -20.07,4.854 c -5.067,-4.403 -5.85,-12.043 -1.657,-17.378 4.325,-5.502 12.29,-6.457 17.791,-2.133 C 0.589,-11.1 2.031,-5.086 0,0"
             style="fill:#59bcea;fill-opacity:1;fill-rule:nonzero;stroke:none"
             id="path74"
             inkscape:connector-curvature="0" /></g><g
           id="g76"
           transform="translate(598.1533,277.292)"><path
             d="m 0,0 23.826,-5.762 c 12.653,53.725 1.633,112.499 -35.126,159.267 -0.003,0.006 -0.008,0.01 -0.012,0.016 L -63.07,112.385 C -39.493,82.219 -32.384,44.401 -40.433,9.777 L -20.07,4.854 c -5.067,-4.403 -5.85,-12.043 -1.657,-17.378 4.325,-5.502 12.29,-6.457 17.791,-2.133 C 0.589,-11.1 2.031,-5.086 0,0 Z"
             style="fill:none;stroke:#ffffff;stroke-width:2;stroke-linecap:butt;stroke-linejoin:miter;stroke-miterlimit:10;stroke-dasharray:none;stroke-opacity:1"
             id="path78"
             inkscape:connector-curvature="0" /></g><g
           id="g80"
           transform="translate(567.5811,415.6133)"><path
             d="m 0,0 19.254,15.173 c -34.421,43.146 -87.44,70.802 -146.924,70.802 l -0.02,0 0.358,-66.114 c 38.287,-0.104 72.413,-17.884 94.661,-45.607 l 16.453,12.966 c 0.331,-6.703 5.855,-12.041 12.64,-12.041 6.998,0 12.671,5.673 12.671,12.671 C 9.093,-6.396 5.254,-1.545 0,0"
             style="fill:#3db5e6;fill-opacity:1;fill-rule:nonzero;stroke:none"
             id="path82"
             inkscape:connector-curvature="0" /></g><g
           id="g84"
           transform="translate(567.5811,415.6133)"><path
             d="m 0,0 19.254,15.173 c -34.421,43.146 -87.44,70.802 -146.924,70.802 l -0.02,0 0.358,-66.114 c 38.287,-0.104 72.413,-17.884 94.661,-45.607 l 16.453,12.966 c 0.331,-6.703 5.855,-12.041 12.64,-12.041 6.998,0 12.671,5.673 12.671,12.671 C 9.093,-6.396 5.254,-1.545 0,0 Z"
             style="fill:none;stroke:#ffffff;stroke-width:2;stroke-linecap:butt;stroke-linejoin:miter;stroke-miterlimit:10;stroke-dasharray:none;stroke-opacity:1"
             id="path86"
             inkscape:connector-curvature="0" /></g><g
           id="g88"
           transform="translate(290.0117,316.1279)"><path
             d="m 0,0 0.118,2.958 2.09,-0.083 -0.217,-5.426 -9.492,0.38 0.1,2.467 L 0,0 Z"
             style="fill:#3db5e6;fill-opacity:1;fill-rule:nonzero;stroke:none"
             id="path90"
             inkscape:connector-curvature="0" /></g><g
           id="g92"
           transform="translate(287.5303,322.2256)"><path
             d="M 0,0 C 1.631,-0.159 2.939,0.929 3.083,2.396 3.226,3.864 2.151,5.185 0.521,5.343 -0.784,5.47 -2.093,4.382 -2.235,2.914 -2.378,1.446 -1.304,0.127 0,0 M 0.757,7.902 C 3.817,7.604 5.761,5.2 5.466,2.165 5.17,-0.871 2.799,-2.855 -0.261,-2.558 c -2.86,0.279 -4.623,2.982 -4.358,5.704 0.265,2.722 2.516,5.035 5.376,4.756"
             style="fill:#3db5e6;fill-opacity:1;fill-rule:nonzero;stroke:none"
             id="path94"
             inkscape:connector-curvature="0" /></g><g
           id="g96"
           transform="translate(289.6992,340.8652)"><path
             d="m 0,0 c 1.362,-0.256 2.513,-0.554 3.539,-1.584 1.124,-1.136 1.449,-2.609 1.184,-4.174 -0.499,-2.944 -2.847,-4.654 -5.79,-4.155 -3.043,0.516 -4.694,2.917 -4.182,5.934 0.326,1.926 1.448,3.269 3.337,3.78 l 0.577,-2.475 c -0.951,-0.183 -1.668,-0.791 -1.834,-1.771 -0.271,-1.603 1.115,-2.695 2.544,-2.937 1.453,-0.246 3.078,0.373 3.35,1.976 0.179,1.055 -0.231,1.955 -1.294,2.238 L 1.094,-5.155 -0.819,-4.831 0,0 Z"
             style="fill:#3db5e6;fill-opacity:1;fill-rule:nonzero;stroke:none"
             id="path98"
             inkscape:connector-curvature="0" /></g><g
           id="g100"
           transform="translate(295.7441,343.4072)"><path
             d="M 0,0 -0.529,-2.413 -9.813,-0.377 -9.284,2.037 0,0 Z"
             style="fill:#3db5e6;fill-opacity:1;fill-rule:nonzero;stroke:none"
             id="path102"
             inkscape:connector-curvature="0" /></g><g
           id="g104"
           transform="translate(290.5449,351.6992)"><path
             d="m 0,0 c -0.479,-0.344 -0.869,-0.842 -1.021,-1.427 -0.115,-0.438 -0.011,-1.091 0.5,-1.223 0.537,-0.14 0.913,0.452 1.155,0.832 l 0.341,0.561 C 1.687,-0.075 2.59,0.744 4.077,0.357 4.991,0.119 5.873,-0.345 6.305,-1.238 6.727,-2.116 6.731,-3.146 6.49,-4.072 6.189,-5.23 5.504,-6.263 4.602,-7.03 l -1.661,1.525 c 0.68,0.461 1.291,1.058 1.503,1.874 0.147,0.561 0.022,1.232 -0.625,1.4 -0.67,0.174 -1.146,-0.705 -1.425,-1.178 -0.818,-1.389 -1.465,-2.275 -3.245,-1.812 -1.865,0.487 -2.739,2.132 -2.259,3.973 0.241,0.927 0.829,1.984 1.505,2.681 L 0,0 Z"
             style="fill:#3db5e6;fill-opacity:1;fill-rule:nonzero;stroke:none"
             id="path106"
             inkscape:connector-curvature="0" /></g><g
           id="g108"
           transform="translate(299.168,355.8896)"><path
             d="m 0,0 -0.735,-2.356 -7.071,2.207 -0.608,-1.949 -1.996,0.623 1.952,6.253 L -6.462,4.155 -7.07,2.207 0,0 Z"
             style="fill:#3db5e6;fill-opacity:1;fill-rule:nonzero;stroke:none"
             id="path110"
             inkscape:connector-curvature="0" /></g><g
           id="g112"
           transform="translate(300.8867,360.9307)"><path
             d="m 0,0 -0.819,-2.33 -8.963,3.152 0.82,2.33 L 0,0 Z"
             style="fill:#3db5e6;fill-opacity:1;fill-rule:nonzero;stroke:none"
             id="path114"
             inkscape:connector-curvature="0" /></g><g
           id="g116"
           transform="translate(298.0332,371.0117)"><path
             d="m 0,0 c -0.818,-0.216 -1.462,-0.842 -1.774,-1.625 -0.561,-1.405 0.137,-2.782 1.507,-3.329 1.393,-0.556 2.782,0.003 3.352,1.431 0.299,0.749 0.234,1.642 -0.147,2.351 L 5.687,-2.27 C 5.618,-3.123 5.574,-3.743 5.29,-4.457 4.8,-5.687 3.864,-6.67 2.669,-7.251 c -1.265,-0.621 -2.59,-0.608 -3.9,-0.086 -1.206,0.482 -2.182,1.4 -2.712,2.588 -0.544,1.221 -0.582,2.688 -0.088,3.929 0.295,0.737 0.729,1.35 1.281,1.918 L 0,0 Z"
             style="fill:#3db5e6;fill-opacity:1;fill-rule:nonzero;stroke:none"
             id="path118"
             inkscape:connector-curvature="0" /></g><g
           id="g120"
           transform="translate(300.2422,377.6777)"><path
             d="m 0,0 c -0.533,-0.254 -1.006,-0.675 -1.259,-1.224 -0.19,-0.412 -0.203,-1.072 0.278,-1.294 0.503,-0.232 0.977,0.285 1.283,0.616 l 0.435,0.493 c 0.909,1.038 1.944,1.685 3.34,1.041 C 4.936,-0.764 5.722,-1.377 5.988,-2.332 6.249,-3.271 6.072,-4.286 5.671,-5.156 5.17,-6.243 4.312,-7.139 3.288,-7.735 l -1.365,1.796 c 0.751,0.334 1.458,0.812 1.811,1.579 0.244,0.526 0.239,1.209 -0.368,1.488 -0.63,0.291 -1.253,-0.49 -1.612,-0.907 -1.05,-1.223 -1.844,-1.982 -3.515,-1.21 -1.751,0.807 -2.32,2.583 -1.522,4.31 0.401,0.87 1.167,1.808 1.955,2.374 L 0,0 Z"
             style="fill:#3db5e6;fill-opacity:1;fill-rule:nonzero;stroke:none"
             id="path122"
             inkscape:connector-curvature="0" /></g><g
           id="g124"
           transform="translate(341.458,434.0176)"><path
             d="M 0,0 1.959,1.504 9.085,-0.348 9.105,-0.333 5.567,4.274 7.526,5.779 13.313,-1.757 11.354,-3.261 4.22,-1.399 4.2,-1.414 7.746,-6.032 5.787,-7.536 0,0 Z"
             style="fill:#3db5e6;fill-opacity:1;fill-rule:nonzero;stroke:none"
             id="path126"
             inkscape:connector-curvature="0" /></g><g
           id="g128"
           transform="translate(353.9062,440.5937)"><path
             d="M 0,0 0.89,-1.313 3.193,0.248 4.366,-1.481 2.063,-3.043 2.981,-4.398 5.409,-2.752 6.582,-4.481 2.111,-7.513 -3.216,0.346 1.256,3.376 2.428,1.646 0,0 Z"
             style="fill:#3db5e6;fill-opacity:1;fill-rule:nonzero;stroke:none"
             id="path130"
             inkscape:connector-curvature="0" /></g><g
           id="g132"
           transform="translate(364.9092,438.8633)"><path
             d="M 0,0 -2.103,-1.292 -5.979,5.016 -7.716,3.947 -8.811,5.729 -3.232,9.156 -2.138,7.375 -3.876,6.308 0,0 Z"
             style="fill:#3db5e6;fill-opacity:1;fill-rule:nonzero;stroke:none"
             id="path134"
             inkscape:connector-curvature="0" /></g><g
           id="g136"
           transform="translate(368.541,444.8701)"><path
             d="M 0,0 0.022,0.012 -1.068,6.369 0.671,7.283 5.176,2.719 5.198,2.73 3.928,8.994 6.204,10.189 7.934,0.367 5.703,-0.805 1.67,3.296 1.647,3.284 2.558,-2.457 0.338,-3.623 -6.59,3.469 -4.314,4.664 0,0 Z"
             style="fill:#3db5e6;fill-opacity:1;fill-rule:nonzero;stroke:none"
             id="path138"
             inkscape:connector-curvature="0" /></g><g
           id="g140"
           transform="translate(379.6123,452.0762)"><path
             d="M 0,0 C 0.639,-1.507 2.219,-2.137 3.575,-1.562 4.933,-0.987 5.579,0.586 4.94,2.094 4.43,3.3 2.85,3.93 1.492,3.354 0.136,2.78 -0.511,1.206 0,0 M 7.301,3.107 C 8.5,0.277 7.315,-2.576 4.509,-3.766 1.703,-4.955 -1.172,-3.82 -2.37,-0.99 -3.491,1.653 -1.958,4.492 0.559,5.558 3.075,6.624 6.181,5.752 7.301,3.107"
             style="fill:#3db5e6;fill-opacity:1;fill-rule:nonzero;stroke:none"
             id="path142"
             inkscape:connector-curvature="0" /></g><g
           id="g144"
           transform="translate(390.4014,456.7178)"><path
             d="M 0,0 0.226,0.079 C 0.987,0.345 1.795,0.786 1.454,1.762 1.114,2.738 0.207,2.582 -0.555,2.316 L -0.78,2.237 0,0 Z M 6.856,-3.162 3.952,-4.175 0.547,-1.491 0.522,-1.5 1.727,-4.951 -0.606,-5.765 -3.735,3.209 -0.249,4.426 C 1.524,5.044 3.164,4.668 3.833,2.752 4.265,1.514 3.947,0.202 2.753,-0.469 l 4.103,-2.693 z"
             style="fill:#3db5e6;fill-opacity:1;fill-rule:nonzero;stroke:none"
             id="path146"
             inkscape:connector-curvature="0" /></g><g
           id="g148"
           transform="translate(400.4785,464.3486)"><path
             d="M 0,0 2.947,0.835 0.534,-4.526 5.863,-8.219 2.782,-9.091 -1.409,-5.993 -1.434,-6 l 1.123,-3.967 -2.377,-0.673 -2.589,9.147 2.378,0.673 1.067,-3.773 0.024,0.007 L 0,0 Z"
             style="fill:#3db5e6;fill-opacity:1;fill-rule:nonzero;stroke:none"
             id="path150"
             inkscape:connector-curvature="0" /></g><g
           id="g152"
           transform="translate(409.2969,456.749)"><path
             d="M 0,0 -2.404,-0.565 -4.579,8.685 -2.174,9.25 0,0 Z"
             style="fill:#3db5e6;fill-opacity:1;fill-rule:nonzero;stroke:none"
             id="path154"
             inkscape:connector-curvature="0" /></g><g
           id="g156"
           transform="translate(409.0342,466.4834)"><path
             d="M 0,0 2.428,0.446 7.924,-4.449 7.949,-4.445 6.901,1.267 9.329,1.712 11.044,-7.63 8.615,-8.075 3.117,-3.167 3.092,-3.172 4.143,-8.896 1.714,-9.342 0,0 Z"
             style="fill:#3db5e6;fill-opacity:1;fill-rule:nonzero;stroke:none"
             id="path158"
             inkscape:connector-curvature="0" /></g><g
           id="g160"
           transform="translate(430.3906,465.3584)"><path
             d="M 0,0 C 0.126,-1.381 0.154,-2.569 -0.556,-3.839 -1.341,-5.23 -2.67,-5.947 -4.248,-6.12 c -2.97,-0.325 -5.258,1.465 -5.583,4.433 -0.337,3.07 1.522,5.315 4.566,5.649 1.942,0.213 3.541,-0.499 4.549,-2.177 L -2.938,0.553 c -0.438,0.865 -1.218,1.387 -2.208,1.279 -1.616,-0.177 -2.286,-1.81 -2.128,-3.251 0.161,-1.465 1.201,-2.859 2.817,-2.683 1.064,0.117 1.818,0.757 1.8,1.859 L -4.662,-2.463 -4.873,-0.534 0,0 Z"
             style="fill:#3db5e6;fill-opacity:1;fill-rule:nonzero;stroke:none"
             id="path162"
             inkscape:connector-curvature="0" /></g><g
           id="g164"
           transform="translate(478.0801,462.8164)"><path
             d="m 0,0 c -0.356,0.768 -1.085,1.292 -1.912,1.462 -1.482,0.307 -2.716,-0.623 -3.014,-2.067 -0.303,-1.469 0.489,-2.74 1.996,-3.051 0.79,-0.163 1.659,0.056 2.29,0.557 L -1.239,-6 c -0.853,-0.081 -1.472,-0.146 -2.225,0.009 -1.296,0.267 -2.429,1.016 -3.21,2.092 -0.834,1.136 -1.053,2.443 -0.767,3.826 0.262,1.271 0.996,2.394 2.073,3.124 1.107,0.75 2.545,1.045 3.853,0.774 0.779,-0.16 1.458,-0.48 2.114,-0.925 L 0,0 Z"
             style="fill:#ffffff;fill-opacity:1;fill-rule:nonzero;stroke:none"
             id="path166"
             inkscape:connector-curvature="0" /></g><g
           id="g168"
           transform="translate(481.4785,460.5264)"><path
             d="M 0,0 C -0.435,-1.579 0.414,-3.054 1.835,-3.445 3.257,-3.836 4.74,-3.003 5.175,-1.424 5.521,-0.161 4.673,1.313 3.252,1.705 1.831,2.096 0.348,1.263 0,0 M 7.655,-2.094 C 6.84,-5.058 4.14,-6.562 1.2,-5.753 c -2.939,0.809 -4.49,3.482 -3.675,6.446 0.763,2.77 3.727,4.044 6.362,3.32 2.635,-0.726 4.53,-3.337 3.768,-6.107"
             style="fill:#ffffff;fill-opacity:1;fill-rule:nonzero;stroke:none"
             id="path170"
             inkscape:connector-curvature="0" /></g><g
           id="g172"
           transform="translate(494.835,458.1777)"><path
             d="M 0,0 -0.023,0.009 -1.986,-2.507 -0.049,-3.186 0,0 Z m -3.253,-4.064 -1.164,-1.341 -2.473,0.866 6.588,7.755 2.544,-0.892 0.236,-10.145 -2.485,0.87 -0.037,1.762 -3.209,1.125 z"
             style="fill:#ffffff;fill-opacity:1;fill-rule:nonzero;stroke:none"
             id="path174"
             inkscape:connector-curvature="0" /></g><g
           id="g176"
           transform="translate(506.626,453.252)"><path
             d="M 0,0 C -0.201,0.822 -0.813,1.477 -1.592,1.804 -2.985,2.39 -4.375,1.717 -4.946,0.358 c -0.581,-1.381 -0.049,-2.781 1.368,-3.377 0.743,-0.312 1.638,-0.264 2.352,0.105 l -1.147,-2.73 c -0.853,0.086 -1.472,0.141 -2.18,0.439 -1.219,0.513 -2.185,1.466 -2.744,2.671 -0.598,1.276 -0.56,2.599 -0.014,3.9 0.503,1.197 1.44,2.155 2.637,2.663 1.231,0.521 2.697,0.533 3.929,0.015 C -0.014,3.736 0.591,3.291 1.147,2.729 L 0,0 Z"
             style="fill:#ffffff;fill-opacity:1;fill-rule:nonzero;stroke:none"
             id="path178"
             inkscape:connector-curvature="0" /></g><g
           id="g180"
           transform="translate(513.4463,449.4541)"><path
             d="m 0,0 1.621,3.29 2.216,-1.092 -4.199,-8.525 -2.216,1.092 1.721,3.494 -3.2,1.576 -1.721,-3.494 -2.216,1.092 4.199,8.525 2.216,-1.092 -1.62,-3.29 L 0,0 Z"
             style="fill:#ffffff;fill-opacity:1;fill-rule:nonzero;stroke:none"
             id="path182"
             inkscape:connector-curvature="0" /></g><g
           id="g184"
           transform="translate(516.5391,441.1777)"><path
             d="M 0,0 -2.162,1.193 2.429,9.512 4.591,8.318 0,0 Z"
             style="fill:#ffffff;fill-opacity:1;fill-rule:nonzero;stroke:none"
             id="path186"
             inkscape:connector-curvature="0" /></g><g
           id="g188"
           transform="translate(522.8721,448.5713)"><path
             d="m 0,0 2.1,-1.298 0.793,-7.315 0.02,-0.013 3.054,4.938 2.099,-1.298 -4.994,-8.077 -2.098,1.298 -0.787,7.327 -0.021,0.012 -3.06,-4.948 -2.099,1.298 L 0,0 Z"
             style="fill:#ffffff;fill-opacity:1;fill-rule:nonzero;stroke:none"
             id="path190"
             inkscape:connector-curvature="0" /></g><g
           id="g192"
           transform="translate(537.9648,433.4336)"><path
             d="m 0,0 c -0.831,-1.109 -1.606,-2.012 -2.983,-2.479 -1.516,-0.507 -2.983,-0.15 -4.271,0.779 -2.423,1.747 -2.923,4.609 -1.177,7.032 1.806,2.504 4.69,2.927 7.174,1.136 C 0.328,5.326 1.039,3.726 0.664,1.805 l -2.476,0.574 c 0.254,0.934 0.025,1.846 -0.783,2.428 -1.318,0.951 -2.91,0.187 -3.758,-0.989 -0.862,-1.196 -1.023,-2.928 0.295,-3.88 0.87,-0.625 1.859,-0.655 2.581,0.175 L -5.112,1.293 -3.978,2.867 0,0 Z"
             style="fill:#ffffff;fill-opacity:1;fill-rule:nonzero;stroke:none"
             id="path194"
             inkscape:connector-curvature="0" /></g><g
           id="g196"
           transform="translate(584.7588,383.9893)"><path
             d="m 0,0 -5.639,-3.06 c -1.76,-0.956 -3.434,-0.673 -4.438,1.176 -0.505,0.931 -0.431,1.904 0.063,2.817 l 1.997,-0.537 c -0.199,-0.423 -0.389,-0.971 -0.233,-1.259 0.349,-0.643 1.101,-0.206 1.566,0.047 L -1.178,2.172 0,0 Z"
             style="fill:#ffffff;fill-opacity:1;fill-rule:nonzero;stroke:none"
             id="path198"
             inkscape:connector-curvature="0" /></g><g
           id="g200"
           transform="translate(582.4619,378.3926)"><path
             d="m 0,0 c -1.481,-0.698 -2.049,-2.303 -1.421,-3.636 0.629,-1.334 2.228,-1.918 3.709,-1.219 1.186,0.558 1.753,2.163 1.124,3.497 C 2.784,-0.025 1.186,0.559 0,0 m 3.396,-7.175 c -2.782,-1.31 -5.682,-0.24 -6.982,2.519 -1.3,2.758 -0.279,5.677 2.502,6.987 C 1.515,3.556 4.412,2.136 5.578,-0.338 6.743,-2.812 5.994,-5.95 3.396,-7.175"
             style="fill:#ffffff;fill-opacity:1;fill-rule:nonzero;stroke:none"
             id="path202"
             inkscape:connector-curvature="0" /></g><g
           id="g204"
           transform="translate(588.0098,368.0088)"><path
             d="m 0,0 0.102,-0.258 c 0.24,-0.609 0.595,-1.2 1.345,-0.904 0.809,0.319 0.574,1.053 0.328,1.674 L 1.711,0.676 0,0 Z m -3.609,-1.424 0.115,-0.293 c 0.268,-0.679 0.686,-1.842 1.659,-1.458 1.066,0.421 0.513,1.516 0.217,2.266 l -0.093,0.234 -1.898,-0.749 z M -6.273,0.18 2.563,3.666 3.857,0.385 C 4.477,-1.186 4.283,-2.48 2.596,-3.146 1.799,-3.461 1.053,-3.458 0.407,-2.886 l -0.023,-0.01 c 0.335,-1.33 -0.308,-2.207 -1.538,-2.692 -1.852,-0.73 -3.085,0.611 -3.723,2.229 L -6.273,0.18 Z"
             style="fill:#ffffff;fill-opacity:1;fill-rule:nonzero;stroke:none"
             id="path206"
             inkscape:connector-curvature="0" /></g><g
           id="g208"
           transform="translate(593.4687,352.1865)"><path
             d="m 0,0 3.518,1.034 0.696,-2.368 -9.112,-2.681 -0.697,2.369 3.735,1.098 -1.007,3.42 L -6.601,1.774 -7.298,4.143 1.814,6.823 2.511,4.455 -1.006,3.42 0,0 Z"
             style="fill:#ffffff;fill-opacity:1;fill-rule:nonzero;stroke:none"
             id="path210"
             inkscape:connector-curvature="0" /></g><g
           id="g212"
           transform="translate(599.999,340.7666)"><path
             d="m 0,0 -5.215,-1.164 c -1.192,-0.267 -2.385,-0.482 -3.488,0.241 -0.936,0.605 -1.478,1.762 -1.72,2.844 -0.241,1.082 -0.243,2.36 0.347,3.305 0.691,1.123 1.861,1.436 3.055,1.703 l 5.213,1.164 0.539,-2.41 -4.882,-1.091 C -7.356,4.322 -8.653,3.942 -8.308,2.394 -7.961,0.844 -6.626,1.052 -5.421,1.32 L -0.538,2.411 0,0 Z"
             style="fill:#ffffff;fill-opacity:1;fill-rule:nonzero;stroke:none"
             id="path214"
             inkscape:connector-curvature="0" /></g><g
           id="g216"
           transform="translate(600.3945,338.7412)"><path
             d="m 0,0 0.37,-2.44 -5.06,-5.343 0.003,-0.025 5.741,0.872 0.37,-2.44 -9.388,-1.427 -0.371,2.441 5.073,5.344 -0.004,0.025 -5.752,-0.874 -0.371,2.44 L 0,0 Z"
             style="fill:#ffffff;fill-opacity:1;fill-rule:nonzero;stroke:none"
             id="path218"
             inkscape:connector-curvature="0" /></g><g
           id="g220"
           transform="translate(592.9053,322.6992)"><path
             d="M 0,0 -0.23,2.458 7.145,3.149 6.954,5.181 9.036,5.376 9.647,-1.146 7.565,-1.341 7.375,0.69 0,0 Z"
             style="fill:#ffffff;fill-opacity:1;fill-rule:nonzero;stroke:none"
             id="path222"
             inkscape:connector-curvature="0" /></g><g
           id="g224"
           transform="translate(593.2656,317.3652)"><path
             d="M 0,0 -0.144,2.465 9.337,3.018 9.48,0.553 0,0 Z"
             style="fill:#ffffff;fill-opacity:1;fill-rule:nonzero;stroke:none"
             id="path226"
             inkscape:connector-curvature="0" /></g><g
           id="g228"
           transform="translate(602.8682,315.9912)"><path
             d="m 0,0 0.039,-2.47 -5.739,-4.616 0.001,-0.025 5.809,0.09 0.039,-2.469 -9.503,-0.15 -0.039,2.47 5.752,4.616 -10e-4,0.026 L -9.464,-2.62 -9.503,-0.149 0,0 Z"
             style="fill:#ffffff;fill-opacity:1;fill-rule:nonzero;stroke:none"
             id="path230"
             inkscape:connector-curvature="0" /></g><g
           id="g232"
           transform="translate(598.1611,295.1514)"><path
             d="m 0,0 c -1.382,0.109 -2.558,0.281 -3.688,1.195 -1.239,1.009 -1.72,2.44 -1.624,4.024 0.181,2.979 2.332,4.931 5.311,4.751 C 3.079,9.782 4.978,7.572 4.792,4.518 4.674,2.568 3.702,1.113 1.88,0.403 L 1.041,2.802 C 1.967,3.086 2.613,3.767 2.674,4.76 2.772,6.382 1.276,7.317 -0.169,7.405 -1.641,7.495 -3.189,6.705 -3.288,5.083 -3.354,4.015 -2.85,3.164 -1.762,2.997 L -1.64,5.009 0.297,4.891 0,0 Z"
             style="fill:#ffffff;fill-opacity:1;fill-rule:nonzero;stroke:none"
             id="path234"
             inkscape:connector-curvature="0" /></g><g
           id="g236"
           transform="translate(271.877,311.4795)"><path
             d="M 0,0 0,0.239 C 0.008,1.046 -0.137,1.955 -1.17,1.965 -2.203,1.973 -2.361,1.065 -2.367,0.259 L -2.369,0.02 0,0 Z M 5.287,5.391 5.262,2.315 1.588,0.013 l 0,-0.026 3.656,-0.029 -0.019,-2.471 -9.506,0.077 0.029,3.693 c 0.016,1.879 0.922,3.296 2.951,3.279 1.311,-0.011 2.44,-0.751 2.67,-2.1 l 3.918,2.955 z"
             style="fill:#3db5e6;fill-opacity:1;fill-rule:nonzero;stroke:none"
             id="path238"
             inkscape:connector-curvature="0" /></g><g
           id="g240"
           transform="translate(270.0703,320.4082)"><path
             d="M 0,0 1.582,-0.108 1.773,2.669 3.861,2.527 3.67,-0.251 5.303,-0.363 5.506,2.565 7.592,2.422 7.223,-2.971 -2.258,-2.319 -1.887,3.073 0.199,2.93 0,0 Z"
             style="fill:#3db5e6;fill-opacity:1;fill-rule:nonzero;stroke:none"
             id="path242"
             inkscape:connector-curvature="0" /></g><g
           id="g244"
           transform="translate(275.9805,326.9443)"><path
             d="M 0,0 0.316,2.944 2.396,2.72 1.814,-2.68 -7.633,-1.66 -7.367,0.795 0,0 Z"
             style="fill:#3db5e6;fill-opacity:1;fill-rule:nonzero;stroke:none"
             id="path246"
             inkscape:connector-curvature="0" /></g><g
           id="g248"
           transform="translate(273.9102,333.2012)"><path
             d="M 0,0 C 1.615,-0.26 2.99,0.743 3.225,2.199 3.459,3.653 2.471,5.039 0.852,5.299 -0.441,5.508 -1.814,4.504 -2.049,3.049 -2.285,1.594 -1.295,0.209 0,0 M 1.25,7.838 C 4.285,7.349 6.072,4.827 5.588,1.817 c -0.486,-3.01 -2.977,-4.84 -6.01,-4.351 -2.836,0.457 -4.426,3.264 -3.99,5.963 0.433,2.699 2.826,4.866 5.662,4.409"
             style="fill:#3db5e6;fill-opacity:1;fill-rule:nonzero;stroke:none"
             id="path250"
             inkscape:connector-curvature="0" /></g><g
           id="g252"
           transform="translate(275.582,349.2686)"><path
             d="m 0,0 c -0.773,-0.345 -1.307,-1.064 -1.49,-1.889 -0.328,-1.475 0.582,-2.723 2.019,-3.044 1.465,-0.325 2.744,0.449 3.078,1.949 0.176,0.787 -0.031,1.659 -0.521,2.297 L 5.979,-1.33 C 6.045,-2.184 6.102,-2.804 5.936,-3.553 5.648,-4.845 4.881,-5.965 3.795,-6.73 2.646,-7.545 1.338,-7.744 -0.041,-7.438 c -1.266,0.282 -2.377,1.032 -3.09,2.12 -0.732,1.117 -1.006,2.559 -0.717,3.862 0.174,0.776 0.504,1.451 0.959,2.098 L 0,0 Z"
             style="fill:#3db5e6;fill-opacity:1;fill-rule:nonzero;stroke:none"
             id="path254"
             inkscape:connector-curvature="0" /></g><g
           id="g256"
           transform="translate(276.8594,355.0205)"><path
             d="M 0,0 -0.006,-0.024 2.629,-1.823 3.184,0.153 0,0 Z M 4.266,-2.988 5.678,-4.065 4.971,-6.588 -3.189,-0.506 -2.461,2.09 7.65,2.97 6.939,0.435 5.184,0.287 4.266,-2.988 Z"
             style="fill:#3db5e6;fill-opacity:1;fill-rule:nonzero;stroke:none"
             id="path258"
             inkscape:connector-curvature="0" /></g><g
           id="g260"
           transform="translate(285.7187,361.4912)"><path
             d="m 0,0 -0.773,-2.345 -7.036,2.322 -0.64,-1.939 -1.987,0.655 2.055,6.222 L -6.396,4.26 -7.035,2.321 0,0 Z"
             style="fill:#3db5e6;fill-opacity:1;fill-rule:nonzero;stroke:none"
             id="path262"
             inkscape:connector-curvature="0" /></g><g
           id="g264"
           transform="translate(287.5117,366.5283)"><path
             d="M 0,0 -0.85,-2.318 -9.771,0.943 -8.922,3.263 0,0 Z"
             style="fill:#3db5e6;fill-opacity:1;fill-rule:nonzero;stroke:none"
             id="path266"
             inkscape:connector-curvature="0" /></g><g
           id="g268"
           transform="translate(284.2637,371.7871)"><path
             d="M 0,0 C 1.51,-0.634 3.082,0.02 3.65,1.38 4.221,2.739 3.584,4.318 2.072,4.95 0.865,5.457 -0.707,4.805 -1.277,3.444 -1.846,2.084 -1.211,0.507 0,0 M 3.057,7.326 C 5.891,6.139 7.037,3.267 5.859,0.454 4.682,-2.357 1.828,-3.554 -1.006,-2.366 c -2.65,1.111 -3.535,4.214 -2.478,6.737 1.056,2.521 3.89,4.066 6.541,2.955"
             style="fill:#3db5e6;fill-opacity:1;fill-rule:nonzero;stroke:none"
             id="path270"
             inkscape:connector-curvature="0" /></g><g
           id="g272"
           transform="translate(283.8027,382.3643)"><path
             d="M 0,0 1.105,2.208 8.326,3.652 8.336,3.676 3.141,6.275 4.248,8.483 12.744,4.231 11.639,2.022 4.408,0.584 4.396,0.562 9.602,-2.045 8.496,-4.254 0,0 Z"
             style="fill:#3db5e6;fill-opacity:1;fill-rule:nonzero;stroke:none"
             id="path274"
             inkscape:connector-curvature="0" /></g><g
           id="g276"
           transform="translate(301.9541,259.2344)"><path
             d="m 0,0 0.083,-0.225 c 0.277,-0.756 0.731,-1.556 1.701,-1.201 0.971,0.356 0.8,1.259 0.523,2.017 L 2.224,0.815 0,0 Z m -3.053,-6.902 -1.058,2.886 2.629,3.447 -0.009,0.023 -3.431,-1.258 -0.85,2.319 8.92,3.27 L 4.42,0.319 C 5.065,-1.444 4.716,-3.088 2.811,-3.787 1.581,-4.238 0.264,-3.942 -0.425,-2.759 l -2.628,-4.143 z"
             style="fill:#3db5e6;fill-opacity:1;fill-rule:nonzero;stroke:none"
             id="path278"
             inkscape:connector-curvature="0" /></g><g
           id="g280"
           transform="translate(307.0859,252.1074)"><path
             d="m 0,0 -1.46,-0.623 1.095,-2.564 -1.925,-0.822 -1.095,2.563 -1.508,-0.645 1.155,-2.701 -1.924,-0.822 -2.126,4.973 L 0.954,3.096 3.079,-1.879 1.154,-2.701 0,0 Z"
             style="fill:#3db5e6;fill-opacity:1;fill-rule:nonzero;stroke:none"
             id="path282"
             inkscape:connector-curvature="0" /></g><g
           id="g284"
           transform="translate(309.8779,244.0088)"><path
             d="M 0,0 -0.011,0.022 -3.172,-0.406 -2.26,-2.245 0,0 Z m -5.166,-0.636 -1.77,-0.146 -1.163,2.345 10.129,0.948 1.198,-2.415 -6.917,-7.421 -1.17,2.357 1.204,1.286 -1.511,3.046 z"
             style="fill:#3db5e6;fill-opacity:1;fill-rule:nonzero;stroke:none"
             id="path286"
             inkscape:connector-curvature="0" /></g><g
           id="g288"
           transform="translate(309.7812,234.6504)"><path
             d="M 0,0 1.456,-2.575 -0.365,-3.604 -3.032,1.123 5.235,5.788 6.448,3.639 0,0 Z"
             style="fill:#3db5e6;fill-opacity:1;fill-rule:nonzero;stroke:none"
             id="path290"
             inkscape:connector-curvature="0" /></g><g
           id="g292"
           transform="translate(319.8682,228.3828)"><path
             d="M 0,0 -1.323,-0.88 0.22,-3.198 -1.523,-4.357 -3.065,-2.037 -4.43,-2.945 -2.804,-5.391 -4.547,-6.55 -7.541,-2.046 0.375,3.216 3.369,-1.288 1.626,-2.446 0,0 Z"
             style="fill:#3db5e6;fill-opacity:1;fill-rule:nonzero;stroke:none"
             id="path294"
             inkscape:connector-curvature="0" /></g><g
           id="g296"
           transform="translate(325.1338,220.3379)"><path
             d="M 0,0 C 0.034,0.589 -0.106,1.206 -0.466,1.692 -0.735,2.058 -1.308,2.387 -1.733,2.072 -2.18,1.744 -1.955,1.078 -1.812,0.651 l 0.221,-0.619 c 0.472,-1.297 0.541,-2.515 -0.697,-3.429 -0.76,-0.56 -1.677,-0.955 -2.643,-0.728 -0.949,0.224 -1.753,0.868 -2.322,1.64 -0.711,0.964 -1.082,2.147 -1.111,3.331 l 2.232,0.331 c -0.07,-0.82 0.009,-1.669 0.51,-2.348 0.346,-0.468 0.945,-0.793 1.483,-0.395 0.558,0.411 0.173,1.335 -0.019,1.85 -0.565,1.509 -0.847,2.57 0.634,3.664 1.552,1.145 3.381,0.788 4.512,-0.744 C 1.557,2.434 2.01,1.31 2.126,0.347 L 0,0 Z"
             style="fill:#3db5e6;fill-opacity:1;fill-rule:nonzero;stroke:none"
             id="path298"
             inkscape:connector-curvature="0" /></g><g
           id="g300"
           transform="translate(323.5615,210.9824)"><path
             d="M 0,0 -1.56,1.915 4.187,6.596 2.896,8.18 4.518,9.501 8.658,4.419 7.036,3.099 5.747,4.681 0,0 Z"
             style="fill:#3db5e6;fill-opacity:1;fill-rule:nonzero;stroke:none"
             id="path302"
             inkscape:connector-curvature="0" /></g><g
           id="g304"
           transform="translate(332.7617,210.3926)"><path
             d="M 0,0 -0.017,0.019 -2.944,-1.249 -1.569,-2.774 0,0 Z m -4.804,-2.011 -1.664,-0.62 -1.756,1.946 9.5,3.653 1.808,-2.002 -4.656,-9.022 -1.764,1.955 0.812,1.565 -2.28,2.525 z"
             style="fill:#3db5e6;fill-opacity:1;fill-rule:nonzero;stroke:none"
             id="path306"
             inkscape:connector-curvature="0" /></g><g
           id="g308"
           transform="translate(334.1104,199.4863)"><path
             d="M 0,0 -1.744,1.749 3.499,6.985 2.057,8.431 3.537,9.909 8.169,5.271 6.688,3.792 5.245,5.237 0,0 Z"
             style="fill:#3db5e6;fill-opacity:1;fill-rule:nonzero;stroke:none"
             id="path310"
             inkscape:connector-curvature="0" /></g><g
           id="g312"
           transform="translate(343.2207,201.0488)"><path
             d="m 0,0 -1.071,-1.17 2.054,-1.881 -1.413,-1.544 -2.053,1.881 -1.106,-1.209 2.165,-1.981 -1.412,-1.544 -3.988,3.651 6.415,7.009 L 3.58,-0.439 2.166,-1.981 0,0 Z"
             style="fill:#3db5e6;fill-opacity:1;fill-rule:nonzero;stroke:none"
             id="path314"
             inkscape:connector-curvature="0" /></g><g
           id="g316"
           transform="translate(404.1475,159.833)"><path
             d="M 0,0 -2.389,0.634 -0.49,7.8 -2.465,8.323 -1.929,10.347 4.409,8.667 3.874,6.645 1.898,7.167 0,0 Z"
             style="fill:#ffffff;fill-opacity:1;fill-rule:nonzero;stroke:none"
             id="path318"
             inkscape:connector-curvature="0" /></g><g
           id="g320"
           transform="translate(411.9404,164.7637)"><path
             d="M 0,0 -0.024,0.005 -1.646,-2.744 0.363,-3.168 0,0 Z m -2.703,-4.454 -0.982,-1.481 -2.565,0.541 5.537,8.546 2.639,-0.556 1.543,-10.038 -2.577,0.544 -0.265,1.743 -3.33,0.701 z"
             style="fill:#ffffff;fill-opacity:1;fill-rule:nonzero;stroke:none"
             id="path322"
             inkscape:connector-curvature="0" /></g><g
           id="g324"
           transform="translate(417.6494,166.5801)"><path
             d="m 0,0 3.005,-0.431 1.086,-2.635 1.781,2.226 3.004,-0.431 -3.63,-3.946 2.758,-5.52 -2.941,0.422 -1.53,3.347 -2.597,-2.759 -2.954,0.423 4.397,4.498 L 0,0 Z"
             style="fill:#ffffff;fill-opacity:1;fill-rule:nonzero;stroke:none"
             id="path326"
             inkscape:connector-curvature="0" /></g><g
           id="g328"
           transform="translate(431.3252,161.9854)"><path
             d="M 0,0 -0.024,0.002 -1.257,-2.943 0.793,-3.088 0,0 Z m -2.07,-4.782 -0.77,-1.602 -2.616,0.186 4.317,9.222 2.692,-0.189 2.901,-9.733 -2.629,0.185 -0.5,1.692 -3.395,0.239 z"
             style="fill:#ffffff;fill-opacity:1;fill-rule:nonzero;stroke:none"
             id="path330"
             inkscape:connector-curvature="0" /></g><g
           id="g332"
           transform="translate(439.8076,154.9961)"><path
             d="M 0,0 -2.467,0.07 -2.259,7.473 -4.299,7.53 -4.238,9.62 2.308,9.435 2.248,7.346 0.209,7.402 0,0 Z"
             style="fill:#ffffff;fill-opacity:1;fill-rule:nonzero;stroke:none"
             id="path334"
             inkscape:connector-curvature="0" /></g><g
           id="g336"
           transform="translate(445.4189,154.9902)"><path
             d="m 0,0 -2.47,-0.021 -0.078,9.5 2.469,0.02 L 0,0 Z"
             style="fill:#ffffff;fill-opacity:1;fill-rule:nonzero;stroke:none"
             id="path338"
             inkscape:connector-curvature="0" /></g><g
           id="g340"
           transform="translate(449.1377,159.9941)"><path
             d="m 0,0 c 0.099,-1.636 1.376,-2.758 2.849,-2.671 1.47,0.087 2.607,1.355 2.509,2.99 C 5.281,1.627 4.002,2.75 2.531,2.663 1.059,2.574 -0.077,1.308 0,0 m 7.924,0.485 c 0.183,-3.07 -1.89,-5.364 -4.934,-5.547 -3.043,-0.179 -5.374,1.852 -5.556,4.92 -0.171,2.87 2.224,5.032 4.955,5.194 2.729,0.162 5.364,-1.7 5.535,-4.567"
             style="fill:#ffffff;fill-opacity:1;fill-rule:nonzero;stroke:none"
             id="path342"
             inkscape:connector-curvature="0" /></g><g
           id="g344"
           transform="translate(457.624,165.1504)"><path
             d="M 0,0 2.448,0.331 7.712,-4.82 7.737,-4.817 6.957,0.941 9.406,1.272 10.681,-8.146 8.232,-8.478 2.967,-3.313 2.942,-3.316 3.723,-9.088 1.275,-9.419 0,0 Z"
             style="fill:#ffffff;fill-opacity:1;fill-rule:nonzero;stroke:none"
             id="path346"
             inkscape:connector-curvature="0" /></g><g
           id="g348"
           transform="translate(542.9092,194.5674)"><path
             d="M 0,0 2.237,1.941 3.607,0.36 -0.496,-3.199 -6.723,3.98 -4.856,5.599 0,0 Z"
             style="fill:#ffffff;fill-opacity:1;fill-rule:nonzero;stroke:none"
             id="path350"
             inkscape:connector-curvature="0" /></g><g
           id="g352"
           transform="translate(543.9697,202.7139)"><path
             d="M 0,0 1.094,-1.151 3.114,0.766 4.554,-0.753 2.533,-2.67 3.66,-3.858 5.791,-1.837 7.23,-3.355 3.308,-7.077 -3.231,-0.183 0.69,3.539 2.131,2.021 0,0 Z"
             style="fill:#ffffff;fill-opacity:1;fill-rule:nonzero;stroke:none"
             id="path354"
             inkscape:connector-curvature="0" /></g><g
           id="g356"
           transform="translate(555.1709,211.1904)"><path
             d="M 0,0 C 0.994,-0.967 1.789,-1.851 2.076,-3.277 2.385,-4.846 1.841,-6.254 0.755,-7.412 -1.288,-9.591 -4.191,-9.72 -6.37,-7.677 c -2.253,2.113 -2.302,5.028 -0.206,7.261 1.336,1.426 3.014,1.925 4.871,1.307 l -0.887,-2.383 c -0.895,0.372 -1.827,0.263 -2.508,-0.464 -1.112,-1.186 -0.56,-2.862 0.497,-3.854 1.078,-1.008 2.774,-1.391 3.886,-0.206 0.734,0.783 0.889,1.76 0.158,2.582 L -1.938,-4.904 -3.354,-3.577 0,0 Z"
             style="fill:#ffffff;fill-opacity:1;fill-rule:nonzero;stroke:none"
             id="path358"
             inkscape:connector-curvature="0" /></g><g
           id="g360"
           transform="translate(557.5459,216.0664)"><path
             d="M 0,0 -0.016,-0.019 1.68,-2.725 2.979,-1.134 0,0 Z M 2.711,-4.448 3.574,-6.001 1.914,-8.03 -3.127,0.817 -1.419,2.904 8.203,-0.343 6.535,-2.382 4.866,-1.813 2.711,-4.448 Z"
             style="fill:#ffffff;fill-opacity:1;fill-rule:nonzero;stroke:none"
             id="path362"
             inkscape:connector-curvature="0" /></g><g
           id="g364"
           transform="translate(566.127,219.8594)"><path
             d="M 0,0 1.747,2.39 3.435,1.155 0.23,-3.228 -7.437,2.379 -5.98,4.371 0,0 Z"
             style="fill:#ffffff;fill-opacity:1;fill-rule:nonzero;stroke:none"
             id="path366"
             inkscape:connector-curvature="0" /></g><g
           id="g368"
           transform="translate(292.0059,249.123)"><path
             d="M 0,0 C 0.444,0.178 0.697,0.631 0.511,1.099 0.348,1.508 -0.075,1.719 -0.51,1.546 -0.941,1.373 -1.199,0.795 -1.403,0.389 -1.021,0.08 -0.479,-0.191 0,0 M -3.699,0.57 C -4.084,0.851 -4.592,1.176 -5.084,0.98 -5.61,0.771 -5.68,0.132 -5.494,-0.337 -5.321,-0.77 -4.996,-1.141 -4.641,-1.419 L -3.699,0.57 Z M -5.51,-3.218 c -0.946,0.64 -1.832,1.534 -2.258,2.598 -0.607,1.52 -0.217,3.196 1.397,3.84 1.321,0.528 2.277,10e-4 3.213,-0.915 l 0.178,-0.172 0.182,0.289 c 0.274,0.434 0.556,0.954 1.28,1.243 C 0.003,4.272 1.431,3.311 1.996,1.896 2.557,0.491 2.209,-1.221 0.7,-1.822 c -1.099,-0.44 -1.95,0.061 -2.77,0.791 l -0.727,-1.577 c 0.56,-0.279 1.115,-0.519 1.715,-0.66 l -0.722,-1.793 -1.637,0.635 -0.147,0.065 -1.293,-2.809 -1.144,2.865 0.515,1.087 z"
             style="fill:#3db5e6;fill-opacity:1;fill-rule:nonzero;stroke:none"
             id="path370"
             inkscape:connector-curvature="0" /></g><g
           id="g372"
           transform="translate(297.4268,234.1055)"><path
             d="M 0,0 3.271,1.66 4.39,-0.543 -4.085,-4.846 -5.204,-2.643 -1.73,-0.879 -3.346,2.301 -6.819,0.538 -7.937,2.741 0.538,7.044 1.655,4.842 -1.616,3.181 0,0 Z"
             style="fill:#3db5e6;fill-opacity:1;fill-rule:nonzero;stroke:none"
             id="path374"
             inkscape:connector-curvature="0" /></g><g
           id="g376"
           transform="translate(299.584,228.2109)"><path
             d="m 0,0 c -1.408,-0.836 -1.819,-2.486 -1.066,-3.754 0.752,-1.267 2.398,-1.695 3.806,-0.858 1.126,0.668 1.537,2.319 0.785,3.585 C 2.773,0.24 1.126,0.67 0,0 m 4.063,-6.816 c -2.643,-1.569 -5.63,-0.78 -7.187,1.84 -1.557,2.622 -0.819,5.622 1.823,7.193 2.469,1.465 5.488,0.328 6.883,-2.022 1.397,-2.349 0.95,-5.545 -1.519,-7.011"
             style="fill:#3db5e6;fill-opacity:1;fill-rule:nonzero;stroke:none"
             id="path378"
             inkscape:connector-curvature="0" /></g><g
           id="g380"
           transform="translate(312.7295,216.1953)"><path
             d="m 0,0 -4.411,-3.013 c -1.009,-0.689 -2.036,-1.33 -3.328,-1.068 -1.092,0.214 -2.026,1.089 -2.651,2.005 -0.625,0.915 -1.099,2.1 -0.902,3.195 0.227,1.3 1.197,2.024 2.205,2.713 l 4.411,3.012 1.394,-2.039 -4.131,-2.821 c -1.019,-0.695 -2.082,-1.529 -1.188,-2.839 0.897,-1.311 2.059,-0.624 3.079,0.072 L -1.393,2.038 0,0 Z"
             style="fill:#3db5e6;fill-opacity:1;fill-rule:nonzero;stroke:none"
             id="path382"
             inkscape:connector-curvature="0" /></g><g
           id="g384"
           transform="translate(314.7539,209.4814)"><path
             d="M 0,0 C 0.029,0.591 -0.118,1.205 -0.482,1.688 -0.755,2.051 -1.33,2.375 -1.754,2.058 -2.197,1.724 -1.966,1.062 -1.818,0.635 l 0.227,-0.618 c 0.484,-1.291 0.565,-2.508 -0.663,-3.434 -0.757,-0.568 -1.669,-0.971 -2.637,-0.754 -0.951,0.215 -1.76,0.852 -2.338,1.617 -0.72,0.957 -1.103,2.137 -1.142,3.321 l 2.228,0.352 c -0.062,-0.819 0.026,-1.669 0.534,-2.345 0.347,-0.462 0.951,-0.781 1.484,-0.379 0.555,0.417 0.162,1.336 -0.035,1.85 -0.58,1.504 -0.871,2.563 0.598,3.67 1.541,1.16 3.375,0.82 4.519,-0.701 C 1.533,2.448 1.997,1.329 2.121,0.367 L 0,0 Z"
             style="fill:#3db5e6;fill-opacity:1;fill-rule:nonzero;stroke:none"
             id="path386"
             inkscape:connector-curvature="0" /></g><g
           id="g388"
           transform="translate(312.4023,201.1895)"><path
             d="M 0,0 -1.564,1.91 5.78,7.928 7.344,6.02 0,0 Z"
             style="fill:#3db5e6;fill-opacity:1;fill-rule:nonzero;stroke:none"
             id="path390"
             inkscape:connector-curvature="0" /></g><g
           id="g392"
           transform="translate(320.6436,206.0557)"><path
             d="m 0,0 1.651,-1.837 -1.293,-7.252 0.016,-0.017 4.32,3.886 1.654,-1.838 -7.068,-6.355 -1.652,1.837 1.305,7.259 L -1.085,-4.3 -5.414,-8.193 -7.067,-6.356 0,0 Z"
             style="fill:#3db5e6;fill-opacity:1;fill-rule:nonzero;stroke:none"
             id="path394"
             inkscape:connector-curvature="0" /></g><g
           id="g396"
           transform="translate(331.7793,188.4189)"><path
             d="m 0,0 c -0.984,-0.976 -1.883,-1.754 -3.314,-2.013 -1.575,-0.278 -2.971,0.291 -4.109,1.399 -2.139,2.086 -2.212,4.989 -0.128,7.127 2.155,2.212 5.07,2.205 7.262,0.068 C 1.109,5.217 1.577,3.53 0.924,1.687 L -1.441,2.618 C -1.052,3.505 -1.145,4.439 -1.856,5.134 -3.021,6.269 -4.707,5.749 -5.719,4.71 -6.748,3.655 -7.162,1.966 -5.998,0.831 -5.231,0.084 -4.258,-0.092 -3.42,0.624 L -4.863,2.031 -3.51,3.421 0,0 Z"
             style="fill:#3db5e6;fill-opacity:1;fill-rule:nonzero;stroke:none"
             id="path398"
             inkscape:connector-curvature="0" /></g><path
           d="m 435.849,283.375 -26.486,0 0,60.314 26.486,0 0,-60.314 z"
           style="fill:#3db5e6;fill-opacity:1;fill-rule:nonzero;stroke:none"
           id="path400"
           inkscape:connector-curvature="0" /><g
           id="g402"
           transform="translate(437.0713,375.6113)"><path
             d="m 0,0 c 0,-7.754 -6.605,-14.044 -14.761,-14.044 -8.156,0 -14.768,6.29 -14.768,14.044 0,7.758 6.612,14.045 14.768,14.045 C -6.605,14.045 0,7.758 0,0"
             style="fill:#3db5e6;fill-opacity:1;fill-rule:nonzero;stroke:none"
             id="path404"
             inkscape:connector-curvature="0" /></g><g
           id="g406"
           transform="translate(435.7529,343.6895)"><path
             d="m 0,0 c 0,-7.221 -5.913,-13.079 -13.191,-13.079 -7.292,0 -13.2,5.858 -13.2,13.079 0,7.227 5.908,13.087 13.2,13.087 C -5.913,13.087 0,7.227 0,0"
             style="fill:#3db5e6;fill-opacity:1;fill-rule:nonzero;stroke:none"
             id="path408"
             inkscape:connector-curvature="0" /></g><path
           d="m 470.861,248.577 -26.484,0 0,60.318 26.484,0 0,-60.318 z"
           style="fill:#3db5e6;fill-opacity:1;fill-rule:nonzero;stroke:none"
           id="path410"
           inkscape:connector-curvature="0" /><g
           id="g412"
           transform="translate(472.0791,340.8242)"><path
             d="m 0,0 c 0,-7.761 -6.605,-14.048 -14.769,-14.048 -8.156,0 -14.76,6.287 -14.76,14.048 0,7.761 6.604,14.038 14.76,14.038 C -6.605,14.038 0,7.761 0,0"
             style="fill:#3db5e6;fill-opacity:1;fill-rule:nonzero;stroke:none"
             id="path414"
             inkscape:connector-curvature="0" /></g><g
           id="g416"
           transform="translate(470.8154,308.9004)"><path
             d="m 0,0 c 0,-7.224 -5.911,-13.082 -13.191,-13.082 -7.294,0 -13.2,5.858 -13.2,13.082 0,7.234 5.906,13.084 13.2,13.084 C -5.911,13.084 0,7.234 0,0"
             style="fill:#3db5e6;fill-opacity:1;fill-rule:nonzero;stroke:none"
             id="path418"
             inkscape:connector-curvature="0" /></g></g></g></g></svg>