<?xml version="1.0" encoding="UTF-8" standalone="no"?>
<!-- Created with Inkscape (http://www.inkscape.org/) -->

<svg
   xmlns:dc="http://purl.org/dc/elements/1.1/"
   xmlns:cc="http://creativecommons.org/ns#"
   xmlns:rdf="http://www.w3.org/1999/02/22-rdf-syntax-ns#"
   xmlns:svg="http://www.w3.org/2000/svg"
   xmlns="http://www.w3.org/2000/svg"
   xmlns:sodipodi="http://sodipodi.sourceforge.net/DTD/sodipodi-0.dtd"
   xmlns:inkscape="http://www.inkscape.org/namespaces/inkscape"
   id="svg2"
   version="1.1"
   inkscape:version="0.91 r13725"
   xml:space="preserve"
   width="478.00003"
   height="477.59238"
   viewBox="0 0 478.00002 477.59238"
   sodipodi:docname="services-pt.svg"><metadata
     id="metadata8"><rdf:RDF><cc:Work
         rdf:about=""><dc:format>image/svg+xml</dc:format><dc:type
           rdf:resource="http://purl.org/dc/dcmitype/StillImage" /><dc:title></dc:title></cc:Work></rdf:RDF></metadata><defs
     id="defs6"><clipPath
       clipPathUnits="userSpaceOnUse"
       id="clipPath16"><path
         d="m 0,612.288 858.897,0 L 858.897,0 0,0 0,612.288 Z"
         id="path18"
         inkscape:connector-curvature="0" /></clipPath></defs><sodipodi:namedview
     pagecolor="#ffffff"
     bordercolor="#666666"
     borderopacity="1"
     objecttolerance="10"
     gridtolerance="10"
     guidetolerance="10"
     inkscape:pageopacity="0"
     inkscape:pageshadow="2"
     inkscape:window-width="2560"
     inkscape:window-height="1314"
     id="namedview4"
     showgrid="false"
     fit-margin-top="0"
     fit-margin-left="0"
     fit-margin-right="0"
     fit-margin-bottom="0"
     inkscape:zoom="2.466813"
     inkscape:cx="293.4374"
     inkscape:cy="263.32625"
     inkscape:window-x="0"
     inkscape:window-y="60"
     inkscape:window-maximized="1"
     inkscape:current-layer="g10" /><g
     id="g10"
     inkscape:groupmode="layer"
     inkscape:label="moviinn_servicesPaths_PT"
     transform="matrix(1.25,0,0,-1.25,-313.85355,635.06804)"><g
       id="g4466"
       transform="matrix(1.0145141,0,0,1.0145141,-3.6442294,-1.828488)"><g
         id="g4224"><g
           id="g12"><g
             id="g14"
             clip-path="url(#clipPath16)"><g
               id="g20"
               transform="translate(324.5039,313.7852)"><path
                 d="M 0,0 C 0,64.064 51.936,116 116,116 180.064,116 232,64.064 232,0 232,-64.066 180.064,-116.002 116,-116.002 51.936,-116.002 0,-64.066 0,0 Z"
                 style="fill:none;stroke:#3db5e6;stroke-width:4;stroke-linecap:butt;stroke-linejoin:miter;stroke-miterlimit:10;stroke-dasharray:none;stroke-opacity:1"
                 id="path22"
                 inkscape:connector-curvature="0" /></g><g
               id="g24"
               transform="translate(344.8994,389.8516)"><path
                 d="m 0,0 c 21.99,27.412 55.594,45.101 93.351,45.605 l -0.36,66.106 C 34.317,111.092 -17.902,83.581 -51.932,40.911 L 0,0 Z"
                 style="fill:#3db5e6;fill-opacity:1;fill-rule:nonzero;stroke:none"
                 id="path26"
                 inkscape:connector-curvature="0" /></g><g
               id="g28"
               transform="translate(344.8994,389.8516)"><path
                 d="m 0,0 c 21.99,27.412 55.594,45.101 93.351,45.605 l -0.36,66.106 C 34.317,111.092 -17.902,83.581 -51.932,40.911 L 0,0 Z"
                 style="fill:none;stroke:#ffffff;stroke-width:2;stroke-linecap:butt;stroke-linejoin:miter;stroke-miterlimit:10;stroke-dasharray:none;stroke-opacity:1"
                 id="path30"
                 inkscape:connector-curvature="0" /></g><g
               id="g32"
               transform="translate(441.1143,476.5205)"><path
                 d="m 0,0 0.392,24.511 c -55.195,0.546 -110.113,-23.115 -147.663,-69.247 -0.008,-0.004 -0.01,-0.009 -0.014,-0.018 l 51.498,-41.459 c 24.251,29.627 59.584,44.87 95.13,44.623 l 0.332,20.947 c 5.407,-3.977 13.032,-3.065 17.316,2.201 4.421,5.425 3.601,13.407 -1.824,17.825 C 10.702,3.013 4.518,3.1 0,0"
                 style="fill:#cee9f7;fill-opacity:1;fill-rule:nonzero;stroke:none"
                 id="path34"
                 inkscape:connector-curvature="0" /></g><g
               id="g36"
               transform="translate(441.1143,476.5205)"><path
                 d="m 0,0 0.392,24.511 c -55.195,0.546 -110.113,-23.115 -147.663,-69.247 -0.008,-0.004 -0.01,-0.009 -0.014,-0.018 l 51.498,-41.459 c 24.251,29.627 59.584,44.87 95.13,44.623 l 0.332,20.947 c 5.407,-3.977 13.032,-3.065 17.316,2.201 4.421,5.425 3.601,13.407 -1.824,17.825 C 10.702,3.013 4.518,3.1 0,0 Z"
                 style="fill:none;stroke:#ffffff;stroke-width:2;stroke-linecap:butt;stroke-linejoin:miter;stroke-miterlimit:10;stroke-dasharray:none;stroke-opacity:1"
                 id="path38"
                 inkscape:connector-curvature="0" /></g><g
               id="g40"
               transform="translate(312.7461,416.2588)"><path
                 d="m 0,0 -18.998,15.491 c -34.621,-42.989 -50.07,-100.756 -37.122,-158.813 -0.001,-0.007 10e-4,-0.012 0.005,-0.02 l 64.449,14.74 c -8.232,37.392 1.691,74.57 23.907,102.321 l -16.237,13.237 c 6.471,1.78 10.479,8.332 9,14.956 C 23.482,8.743 16.711,13.045 9.881,11.521 4.266,10.267 0.365,5.467 0,0"
                 style="fill:#bde1f5;fill-opacity:1;fill-rule:nonzero;stroke:none"
                 id="path42"
                 inkscape:connector-curvature="0" /></g><g
               id="g44"
               transform="translate(312.7461,416.2588)"><path
                 d="m 0,0 -18.998,15.491 c -34.621,-42.989 -50.07,-100.756 -37.122,-158.813 -0.001,-0.007 10e-4,-0.012 0.005,-0.02 l 64.449,14.74 c -8.232,37.392 1.691,74.57 23.907,102.321 l -16.237,13.237 c 6.471,1.78 10.479,8.332 9,14.956 C 23.482,8.743 16.711,13.045 9.881,11.521 4.266,10.267 0.365,5.467 0,0 Z"
                 style="fill:none;stroke:#ffffff;stroke-width:2;stroke-linecap:butt;stroke-linejoin:miter;stroke-miterlimit:10;stroke-dasharray:none;stroke-opacity:1"
                 id="path46"
                 inkscape:connector-curvature="0" /></g><g
               id="g48"
               transform="translate(280.9873,279.1992)"><path
                 d="m 0,0 -23.947,-5.243 c 12.133,-53.844 47.761,-101.871 101.277,-127.837 0.006,-0.005 0.013,-0.008 0.019,-0.011 l 28.539,59.638 c -34.4,16.808 -57.339,47.7 -65.254,82.356 L 20.169,4.419 C 22.798,10.596 20.158,17.81 14.055,20.771 7.76,23.826 0.178,21.199 -2.876,14.902 -5.388,9.725 -4.051,3.685 0,0"
                 style="fill:#acdaf4;fill-opacity:1;fill-rule:nonzero;stroke:none"
                 id="path50"
                 inkscape:connector-curvature="0" /></g><g
               id="g52"
               transform="translate(280.9873,279.1992)"><path
                 d="m 0,0 -23.947,-5.243 c 12.133,-53.844 47.761,-101.871 101.277,-127.837 0.006,-0.005 0.013,-0.008 0.019,-0.011 l 28.539,59.638 c -34.4,16.808 -57.339,47.7 -65.254,82.356 L 20.169,4.419 C 22.798,10.596 20.158,17.81 14.055,20.771 7.76,23.826 0.178,21.199 -2.876,14.902 -5.388,9.725 -4.051,3.685 0,0 Z"
                 style="fill:none;stroke:#ffffff;stroke-width:2;stroke-linecap:butt;stroke-linejoin:miter;stroke-miterlimit:10;stroke-dasharray:none;stroke-opacity:1"
                 id="path54"
                 inkscape:connector-curvature="0" /></g><g
               id="g56"
               transform="translate(368.5928,167.9971)"><path
                 d="m 0,0 -10.861,-21.976 c 49.63,-24.156 109.387,-26.328 163.092,-0.752 0.007,0.001 0.012,0.005 0.019,0.009 L 123.501,36.816 C 88.889,20.449 50.434,21.828 18.426,37.293 L 9.146,18.512 C 5.966,24.422 -1.315,26.866 -7.442,23.947 -13.761,20.94 -16.444,13.379 -13.435,7.062 -10.959,1.867 -5.409,-0.863 0,0"
                 style="fill:#9bd2f0;fill-opacity:1;fill-rule:nonzero;stroke:none"
                 id="path58"
                 inkscape:connector-curvature="0" /></g><g
               id="g60"
               transform="translate(368.5928,167.9971)"><path
                 d="m 0,0 -10.861,-21.976 c 49.63,-24.156 109.387,-26.328 163.092,-0.752 0.007,0.001 0.012,0.005 0.019,0.009 L 123.501,36.816 C 88.889,20.449 50.434,21.828 18.426,37.293 L 9.146,18.512 C 5.966,24.422 -1.315,26.866 -7.442,23.947 -13.761,20.94 -16.444,13.379 -13.435,7.062 -10.959,1.867 -5.409,-0.863 0,0 Z"
                 style="fill:none;stroke:#ffffff;stroke-width:2;stroke-linecap:butt;stroke-linejoin:miter;stroke-miterlimit:10;stroke-dasharray:none;stroke-opacity:1"
                 id="path62"
                 inkscape:connector-curvature="0" /></g><g
               id="g64"
               transform="translate(508.9336,167.3809)"><path
                 d="m 0,0 10.38,-22.208 c 49.859,23.675 88.877,68.991 102.441,126.907 0.004,0.006 0.004,0.013 0.006,0.02 L 48.375,119.447 C 39.541,82.194 14.448,53.022 -17.62,37.683 L -8.745,18.705 C -15.349,19.911 -21.806,15.751 -23.353,9.144 -24.948,2.331 -20.72,-4.487 -13.905,-6.081 -8.302,-7.394 -2.704,-4.762 0,0"
                 style="fill:#88cbef;fill-opacity:1;fill-rule:nonzero;stroke:none"
                 id="path66"
                 inkscape:connector-curvature="0" /></g><g
               id="g68"
               transform="translate(508.9336,167.3809)"><path
                 d="m 0,0 10.38,-22.208 c 49.859,23.675 88.877,68.991 102.441,126.907 0.004,0.006 0.004,0.013 0.006,0.02 L 48.375,119.447 C 39.541,82.194 14.448,53.022 -17.62,37.683 L -8.745,18.705 C -15.349,19.911 -21.806,15.751 -23.353,9.144 -24.948,2.331 -20.72,-4.487 -13.905,-6.081 -8.302,-7.394 -2.704,-4.762 0,0 Z"
                 style="fill:none;stroke:#ffffff;stroke-width:2;stroke-linecap:butt;stroke-linejoin:miter;stroke-miterlimit:10;stroke-dasharray:none;stroke-opacity:1"
                 id="path70"
                 inkscape:connector-curvature="0" /></g><g
               id="g72"
               transform="translate(598.1533,277.292)"><path
                 d="m 0,0 23.826,-5.762 c 12.653,53.725 1.633,112.499 -35.126,159.267 -0.003,0.006 -0.008,0.01 -0.012,0.016 L -63.07,112.385 C -39.493,82.219 -32.384,44.401 -40.433,9.777 L -20.07,4.854 c -5.067,-4.403 -5.85,-12.043 -1.657,-17.378 4.325,-5.502 12.29,-6.457 17.791,-2.133 C 0.589,-11.1 2.031,-5.086 0,0"
                 style="fill:#59bcea;fill-opacity:1;fill-rule:nonzero;stroke:none"
                 id="path74"
                 inkscape:connector-curvature="0" /></g><g
               id="g76"
               transform="translate(598.1533,277.292)"><path
                 d="m 0,0 23.826,-5.762 c 12.653,53.725 1.633,112.499 -35.126,159.267 -0.003,0.006 -0.008,0.01 -0.012,0.016 L -63.07,112.385 C -39.493,82.219 -32.384,44.401 -40.433,9.777 L -20.07,4.854 c -5.067,-4.403 -5.85,-12.043 -1.657,-17.378 4.325,-5.502 12.29,-6.457 17.791,-2.133 C 0.589,-11.1 2.031,-5.086 0,0 Z"
                 style="fill:none;stroke:#ffffff;stroke-width:2;stroke-linecap:butt;stroke-linejoin:miter;stroke-miterlimit:10;stroke-dasharray:none;stroke-opacity:1"
                 id="path78"
                 inkscape:connector-curvature="0" /></g><g
               id="g80"
               transform="translate(567.5811,415.6133)"><path
                 d="m 0,0 19.254,15.173 c -34.421,43.146 -87.44,70.802 -146.924,70.802 l -0.02,0 0.358,-66.114 c 38.287,-0.104 72.413,-17.884 94.661,-45.607 l 16.453,12.966 c 0.331,-6.703 5.855,-12.041 12.64,-12.041 6.998,0 12.671,5.673 12.671,12.671 C 9.093,-6.396 5.254,-1.545 0,0"
                 style="fill:#3db5e6;fill-opacity:1;fill-rule:nonzero;stroke:none"
                 id="path82"
                 inkscape:connector-curvature="0" /></g><g
               id="g84"
               transform="translate(567.5811,415.6133)"><path
                 d="m 0,0 19.254,15.173 c -34.421,43.146 -87.44,70.802 -146.924,70.802 l -0.02,0 0.358,-66.114 c 38.287,-0.104 72.413,-17.884 94.661,-45.607 l 16.453,12.966 c 0.331,-6.703 5.855,-12.041 12.64,-12.041 6.998,0 12.671,5.673 12.671,12.671 C 9.093,-6.396 5.254,-1.545 0,0 Z"
                 style="fill:none;stroke:#ffffff;stroke-width:2;stroke-linecap:butt;stroke-linejoin:miter;stroke-miterlimit:10;stroke-dasharray:none;stroke-opacity:1"
                 id="path86"
                 inkscape:connector-curvature="0" /></g><g
               id="g88"
               transform="translate(289.9531,314.3506)"><path
                 d="M 0,0 0.086,2.958 2.176,2.897 2.018,-2.528 -7.475,-2.252 -7.402,0.215 0,0 Z"
                 style="fill:#3db5e6;fill-opacity:1;fill-rule:nonzero;stroke:none"
                 id="path90"
                 inkscape:connector-curvature="0" /></g><g
               id="g92"
               transform="translate(287.3965,320.4365)"><path
                 d="M 0,0 C 1.633,-0.139 2.929,0.966 3.054,2.435 3.179,3.904 2.088,5.211 0.455,5.35 -0.851,5.461 -2.146,4.356 -2.271,2.888 -2.396,1.418 -1.306,0.111 0,0 M 0.661,7.913 C 3.725,7.652 5.698,5.271 5.439,2.231 5.181,-0.808 2.834,-2.821 -0.23,-2.561 c -2.864,0.244 -4.659,2.926 -4.427,5.652 0.231,2.724 2.455,5.065 5.318,4.822"
                 style="fill:#3db5e6;fill-opacity:1;fill-rule:nonzero;stroke:none"
                 id="path94"
                 inkscape:connector-curvature="0" /></g><g
               id="g96"
               transform="translate(289.3418,339.0977)"><path
                 d="m 0,0 c 1.366,-0.24 2.521,-0.523 3.561,-1.541 1.137,-1.122 1.481,-2.592 1.235,-4.161 -0.463,-2.951 -2.79,-4.691 -5.741,-4.228 -3.051,0.479 -4.731,2.86 -4.256,5.885 0.303,1.93 1.408,3.287 3.291,3.821 l 0.607,-2.467 c -0.949,-0.196 -1.658,-0.812 -1.812,-1.795 -0.252,-1.607 1.149,-2.682 2.581,-2.907 1.457,-0.228 3.075,0.412 3.327,2.018 0.166,1.059 -0.255,1.953 -1.322,2.223 L 1.158,-5.145 -0.76,-4.844 0,0 Z"
                 style="fill:#3db5e6;fill-opacity:1;fill-rule:nonzero;stroke:none"
                 id="path98"
                 inkscape:connector-curvature="0" /></g><g
               id="g100"
               transform="translate(295.3652,341.6914)"><path
                 d="m 0,0 -0.503,-2.42 -9.308,1.933 0.502,2.42 L 0,0 Z m -10.613,0.362 -0.936,-0.848 -1.762,2.181 1.273,1.165 1.425,-2.498 z"
                 style="fill:#3db5e6;fill-opacity:1;fill-rule:nonzero;stroke:none"
                 id="path102"
                 inkscape:connector-curvature="0" /></g><g
               id="g104"
               transform="translate(290.084,349.96)"><path
                 d="m 0,0 c -0.477,-0.35 -0.86,-0.851 -1.006,-1.437 -0.109,-0.44 0.001,-1.09 0.515,-1.218 0.538,-0.134 0.906,0.463 1.143,0.844 l 0.336,0.566 C 1.686,-0.056 2.579,0.773 4.07,0.402 4.987,0.175 5.874,-0.278 6.314,-1.167 6.747,-2.04 6.764,-3.069 6.533,-3.998 6.244,-5.159 5.571,-6.199 4.677,-6.976 L 3.001,-5.47 c 0.675,0.469 1.278,1.072 1.481,1.89 0.14,0.562 0.008,1.231 -0.64,1.392 C 3.17,-2.021 2.704,-2.904 2.43,-3.381 1.629,-4.778 0.991,-5.671 -0.793,-5.228 c -1.87,0.465 -2.762,2.101 -2.303,3.947 0.231,0.928 0.807,1.992 1.475,2.696 L 0,0 Z"
                 style="fill:#3db5e6;fill-opacity:1;fill-rule:nonzero;stroke:none"
                 id="path106"
                 inkscape:connector-curvature="0" /></g><g
               id="g108"
               transform="translate(298.6465,354.2314)"><path
                 d="m 0,0 -0.709,-2.366 -7.097,2.127 -0.586,-1.955 -2.004,0.599 1.881,6.277 L -6.511,4.081 -7.097,2.126 0,0 Z"
                 style="fill:#3db5e6;fill-opacity:1;fill-rule:nonzero;stroke:none"
                 id="path110"
                 inkscape:connector-curvature="0" /></g><g
               id="g112"
               transform="translate(300.3086,359.2969)"><path
                 d="M 0,0 -0.793,-2.339 -9.79,0.71 -8.997,3.049 0,0 Z"
                 style="fill:#3db5e6;fill-opacity:1;fill-rule:nonzero;stroke:none"
                 id="path114"
                 inkscape:connector-curvature="0" /></g><g
               id="g116"
               transform="translate(297.335,369.3555)"><path
                 d="m 0,0 c -0.816,-0.226 -1.452,-0.859 -1.756,-1.647 -0.544,-1.412 0.171,-2.782 1.548,-3.312 1.399,-0.539 2.783,0.036 3.336,1.471 0.29,0.753 0.216,1.646 -0.175,2.35 L 5.718,-2.202 C 5.658,-3.058 5.621,-3.679 5.345,-4.396 4.869,-5.632 3.945,-6.627 2.757,-7.223 1.498,-7.859 0.173,-7.862 -1.145,-7.354 c -1.211,0.466 -2.199,1.374 -2.744,2.556 -0.558,1.215 -0.615,2.683 -0.134,3.93 0.286,0.741 0.713,1.359 1.258,1.933 L 0,0 Z"
                 style="fill:#3db5e6;fill-opacity:1;fill-rule:nonzero;stroke:none"
                 id="path118"
                 inkscape:connector-curvature="0" /></g><g
               id="g120"
               transform="translate(299.4873,374.876)"><path
                 d="M 0,0 -0.01,-0.023 2.321,-2.205 3.172,-0.335 0,0 Z M 3.761,-3.607 4.992,-4.888 3.907,-7.274 -3.231,-0.012 -2.115,2.443 8.019,1.768 6.929,-0.631 5.17,-0.509 3.761,-3.607 Z"
                 style="fill:#3db5e6;fill-opacity:1;fill-rule:nonzero;stroke:none"
                 id="path122"
                 inkscape:connector-curvature="0" /></g><g
               id="g124"
               transform="translate(341.7217,434.2246)"><path
                 d="M 0,0 1.962,1.498 9.079,-0.372 9.1,-0.356 5.575,4.258 7.537,5.756 13.301,-1.791 11.339,-3.29 4.214,-1.41 4.193,-1.425 7.726,-6.05 5.764,-7.548 0,0 Z"
                 style="fill:#3db5e6;fill-opacity:1;fill-rule:nonzero;stroke:none"
                 id="path126"
                 inkscape:connector-curvature="0" /></g><g
               id="g128"
               transform="translate(354.1729,440.7793)"><path
                 d="M 0,0 0.889,-1.314 3.195,0.243 4.365,-1.489 2.059,-3.048 2.975,-4.404 5.407,-2.762 6.577,-4.494 2.1,-7.519 -3.216,0.351 1.262,3.375 2.432,1.643 0,0 Z"
                 style="fill:#3db5e6;fill-opacity:1;fill-rule:nonzero;stroke:none"
                 id="path130"
                 inkscape:connector-curvature="0" /></g><g
               id="g132"
               transform="translate(365.1787,439.0264)"><path
                 d="M 0,0 -2.105,-1.289 -5.973,5.027 -7.713,3.962 -8.805,5.745 -3.219,9.165 -2.127,7.382 -3.867,6.316 0,0 Z"
                 style="fill:#3db5e6;fill-opacity:1;fill-rule:nonzero;stroke:none"
                 id="path134"
                 inkscape:connector-curvature="0" /></g><g
               id="g136"
               transform="translate(368.8242,445.0225)"><path
                 d="M 0,0 0.022,0.012 -1.051,6.372 0.691,7.281 5.183,2.704 5.205,2.716 3.953,8.983 6.231,10.173 7.935,0.346 5.7,-0.82 1.679,3.292 1.656,3.28 2.551,-2.464 0.328,-3.624 -6.58,3.486 -4.302,4.676 0,0 Z"
                 style="fill:#3db5e6;fill-opacity:1;fill-rule:nonzero;stroke:none"
                 id="path138"
                 inkscape:connector-curvature="0" /></g><g
               id="g140"
               transform="translate(379.9131,452.209)"><path
                 d="M 0,0 C 0.635,-1.509 2.213,-2.144 3.572,-1.572 4.931,-1.001 5.581,0.571 4.946,2.08 4.438,3.288 2.86,3.923 1.502,3.352 0.143,2.78 -0.508,1.208 0,0 M 7.311,3.088 C 8.502,0.255 7.31,-2.597 4.5,-3.778 1.689,-4.96 -1.183,-3.817 -2.374,-0.984 c -1.113,2.647 0.428,5.482 2.948,6.542 2.52,1.059 5.623,0.177 6.737,-2.47"
                 style="fill:#3db5e6;fill-opacity:1;fill-rule:nonzero;stroke:none"
                 id="path142"
                 inkscape:connector-curvature="0" /></g><g
               id="g144"
               transform="translate(390.71,456.8232)"><path
                 d="M 0,0 0.226,0.078 C 0.987,0.342 1.795,0.781 1.457,1.757 1.119,2.733 0.213,2.579 -0.549,2.315 L -0.774,2.237 0,0 Z M 6.844,-3.176 3.939,-4.181 0.543,-1.491 0.519,-1.5 1.714,-4.951 -0.619,-5.759 -3.726,3.215 -0.238,4.422 C 1.535,5.036 3.173,4.656 3.836,2.74 4.265,1.503 3.944,0.192 2.75,-0.475 l 4.094,-2.701 z"
                 style="fill:#3db5e6;fill-opacity:1;fill-rule:nonzero;stroke:none"
                 id="path146"
                 inkscape:connector-curvature="0" /></g><g
               id="g148"
               transform="translate(400.7773,464.4209)"><path
                 d="M 0,0 2.948,0.827 0.523,-4.524 5.841,-8.229 2.76,-9.093 l -4.182,3.107 -0.024,-0.007 1.113,-3.967 -2.378,-0.667 -2.565,9.147 2.377,0.667 1.058,-3.773 0.025,0.007 L 0,0 Z"
                 style="fill:#3db5e6;fill-opacity:1;fill-rule:nonzero;stroke:none"
                 id="path150"
                 inkscape:connector-curvature="0" /></g><g
               id="g152"
               transform="translate(409.6094,456.8184)"><path
                 d="M 0,0 -2.404,-0.56 -4.556,8.69 -2.151,9.25 0,0 Z"
                 style="fill:#3db5e6;fill-opacity:1;fill-rule:nonzero;stroke:none"
                 id="path154"
                 inkscape:connector-curvature="0" /></g><g
               id="g156"
               transform="translate(409.374,466.5625)"><path
                 d="M 0,0 2.432,0.439 7.919,-4.474 7.944,-4.47 6.91,1.25 9.342,1.689 11.032,-7.664 8.602,-8.104 3.111,-3.178 3.087,-3.183 4.123,-8.914 1.691,-9.354 0,0 Z"
                 style="fill:#3db5e6;fill-opacity:1;fill-rule:nonzero;stroke:none"
                 id="path158"
                 inkscape:connector-curvature="0" /></g><g
               id="g160"
               transform="translate(430.6914,465.3887)"><path
                 d="m 0,0 c 0.125,-1.38 0.152,-2.568 -0.56,-3.837 -0.787,-1.392 -2.116,-2.105 -3.695,-2.277 -2.969,-0.322 -5.255,1.471 -5.576,4.44 -0.333,3.07 1.528,5.312 4.572,5.642 1.942,0.211 3.54,-0.504 4.546,-2.182 L -2.938,0.557 c -0.435,0.865 -1.214,1.388 -2.205,1.282 -1.615,-0.176 -2.288,-1.808 -2.131,-3.248 0.159,-1.466 1.197,-2.862 2.813,-2.687 1.065,0.116 1.819,0.755 1.802,1.856 L -4.664,-2.457 -4.873,-0.528 0,0 Z"
                 style="fill:#3db5e6;fill-opacity:1;fill-rule:nonzero;stroke:none"
                 id="path162"
                 inkscape:connector-curvature="0" /></g><g
               id="g164"
               transform="translate(478.374,462.7383)"><path
                 d="m 0,0 c -0.354,0.769 -1.081,1.294 -1.907,1.467 -1.479,0.309 -2.715,-0.616 -3.017,-2.059 -0.306,-1.467 0.483,-2.739 1.986,-3.054 0.79,-0.165 1.659,0.053 2.291,0.551 l -0.607,-2.897 c -0.852,-0.079 -1.471,-0.143 -2.223,0.014 -1.294,0.271 -2.424,1.022 -3.203,2.099 -0.83,1.139 -1.046,2.444 -0.757,3.825 0.266,1.271 1.002,2.391 2.081,3.117 1.108,0.747 2.546,1.038 3.853,0.764 0.776,-0.162 1.455,-0.484 2.108,-0.93 L 0,0 Z"
                 style="fill:#ffffff;fill-opacity:1;fill-rule:nonzero;stroke:none"
                 id="path166"
                 inkscape:connector-curvature="0" /></g><g
               id="g168"
               transform="translate(481.8008,460.4443)"><path
                 d="M 0,0 C -0.438,-1.578 0.407,-3.057 1.829,-3.451 3.25,-3.846 4.736,-3.015 5.175,-1.437 5.525,-0.173 4.68,1.305 3.259,1.699 1.838,2.094 0.351,1.264 0,0 M 7.655,-2.112 C 6.833,-5.075 4.127,-6.574 1.187,-5.759 -1.751,-4.942 -3.297,-2.263 -2.474,0.7 -1.705,3.47 1.264,4.738 3.899,4.007 6.535,3.275 8.425,0.657 7.655,-2.112"
                 style="fill:#ffffff;fill-opacity:1;fill-rule:nonzero;stroke:none"
                 id="path170"
                 inkscape:connector-curvature="0" /></g><g
               id="g172"
               transform="translate(495.1543,458.0703)"><path
                 d="M 0,0 -0.023,0.008 -1.993,-2.505 -0.056,-3.188 0,0 Z M -3.265,-4.061 -4.433,-5.4 -6.905,-4.527 -0.294,3.219 2.25,2.32 2.462,-7.834 l -2.484,0.877 -0.034,1.763 -3.209,1.133 z"
                 style="fill:#ffffff;fill-opacity:1;fill-rule:nonzero;stroke:none"
                 id="path174"
                 inkscape:connector-curvature="0" /></g><g
               id="g176"
               transform="translate(506.9023,453.1377)"><path
                 d="M 0,0 C -0.2,0.823 -0.812,1.478 -1.591,1.806 -2.984,2.394 -4.375,1.723 -4.948,0.363 -5.531,-1.019 -5,-2.418 -3.584,-3.016 c 0.743,-0.313 1.639,-0.267 2.355,0.101 l -1.152,-2.729 c -0.852,0.086 -1.472,0.143 -2.18,0.441 -1.219,0.515 -2.184,1.469 -2.743,2.676 -0.595,1.277 -0.557,2.601 -0.008,3.901 0.504,1.196 1.442,2.155 2.64,2.662 1.232,0.52 2.699,0.529 3.931,0.011 C -0.01,3.738 0.595,3.291 1.151,2.729 L 0,0 Z"
                 style="fill:#ffffff;fill-opacity:1;fill-rule:nonzero;stroke:none"
                 id="path178"
                 inkscape:connector-curvature="0" /></g><g
               id="g180"
               transform="translate(513.7383,449.3008)"><path
                 d="m 0,0 1.63,3.285 2.213,-1.097 -4.222,-8.514 -2.214,1.097 1.731,3.49 -3.196,1.585 -1.73,-3.49 -2.213,1.098 4.223,8.514 L -1.565,4.87 -3.195,1.584 0,0 Z"
                 style="fill:#ffffff;fill-opacity:1;fill-rule:nonzero;stroke:none"
                 id="path182"
                 inkscape:connector-curvature="0" /></g><g
               id="g184"
               transform="translate(516.8115,441.0215)"><path
                 d="M 0,0 -2.159,1.199 2.454,9.506 4.613,8.307 0,0 Z"
                 style="fill:#ffffff;fill-opacity:1;fill-rule:nonzero;stroke:none"
                 id="path186"
                 inkscape:connector-curvature="0" /></g><g
               id="g188"
               transform="translate(523.166,448.4033)"><path
                 d="M 0,0 2.096,-1.305 2.869,-8.624 2.891,-8.637 5.958,-3.706 8.054,-5.01 3.038,-13.075 0.941,-11.771 0.175,-4.441 0.153,-4.428 -2.92,-9.369 -5.017,-8.065 0,0 Z"
                 style="fill:#ffffff;fill-opacity:1;fill-rule:nonzero;stroke:none"
                 id="path190"
                 inkscape:connector-curvature="0" /></g><g
               id="g192"
               transform="translate(538.2246,433.2275)"><path
                 d="m 0,0 c -0.834,-1.108 -1.611,-2.009 -2.991,-2.472 -1.518,-0.504 -2.984,-0.142 -4.271,0.79 -2.419,1.754 -2.912,4.62 -1.158,7.038 1.814,2.501 4.699,2.916 7.18,1.118 1.583,-1.147 2.29,-2.749 1.91,-4.67 l -2.477,0.581 c 0.258,0.934 0.031,1.845 -0.775,2.43 -1.317,0.956 -2.911,0.196 -3.763,-0.978 -0.865,-1.194 -1.031,-2.928 0.285,-3.882 0.869,-0.63 1.857,-0.661 2.582,0.168 L -5.11,1.307 -3.971,2.879 0,0 Z"
                 style="fill:#ffffff;fill-opacity:1;fill-rule:nonzero;stroke:none"
                 id="path194"
                 inkscape:connector-curvature="0" /></g><g
               id="g196"
               transform="translate(589.624,368.3643)"><path
                 d="m 0,0 -1.475,-0.586 1.029,-2.587 -1.943,-0.772 -1.029,2.587 -1.521,-0.606 1.085,-2.726 -1.944,-0.773 -1.996,5.021 L 1.03,3.066 3.027,-1.954 1.084,-2.727 0,0 Z"
                 style="fill:#ffffff;fill-opacity:1;fill-rule:nonzero;stroke:none"
                 id="path198"
                 inkscape:connector-curvature="0" /></g><g
               id="g200"
               transform="translate(593.7334,363.5811)"><path
                 d="m 0,0 0.754,-2.312 -4.23,-3.407 5.46,-0.366 0.762,-2.336 -8.586,-4.31 -0.765,2.347 4.983,2.355 -0.008,0.023 -5.905,0.473 -0.305,0.934 4.523,3.768 -0.008,0.023 -5.445,-0.94 -0.761,2.336 L 0,0 Z"
                 style="fill:#ffffff;fill-opacity:1;fill-rule:nonzero;stroke:none"
                 id="path202"
                 inkscape:connector-curvature="0" /></g><g
               id="g204"
               transform="translate(593.6533,348.8105)"><path
                 d="m 0,0 0.102,-0.403 c 0.218,-0.868 0.434,-1.724 1.559,-1.441 1.161,0.293 0.973,1.091 0.738,2.02 L 2.298,0.579 0,0 Z M 3.625,3.462 4.55,-0.205 c 0.499,-1.98 -0.072,-3.58 -2.187,-4.113 -2.176,-0.549 -3.425,0.384 -3.952,2.474 l -0.342,1.357 -3.055,-0.771 -0.605,2.396 9.216,2.324 z"
                 style="fill:#ffffff;fill-opacity:1;fill-rule:nonzero;stroke:none"
                 id="path206"
                 inkscape:connector-curvature="0" /></g><g
               id="g208"
               transform="translate(595.6455,340.5635)"><path
                 d="m 0,0 0.046,-0.235 c 0.153,-0.792 0.475,-1.655 1.489,-1.458 1.015,0.196 0.99,1.116 0.837,1.908 L 2.327,0.45 0,0 Z m -4.115,-6.33 -0.584,3.019 3.145,2.984 -0.005,0.025 -3.588,-0.695 -0.47,2.426 9.331,1.806 0.701,-3.626 C 4.772,-2.234 4.164,-3.803 2.172,-4.188 0.885,-4.437 -0.367,-3.936 -0.859,-2.657 L -4.115,-6.33 Z"
                 style="fill:#ffffff;fill-opacity:1;fill-rule:nonzero;stroke:none"
                 id="path210"
                 inkscape:connector-curvature="0" /></g><g
               id="g212"
               transform="translate(599.2686,332.2695)"><path
                 d="m 0,0 -1.573,-0.224 0.391,-2.757 -2.072,-0.294 -0.392,2.757 -1.622,-0.229 0.413,-2.908 -2.072,-0.294 -0.76,5.354 L 1.725,2.74 2.484,-2.615 0.412,-2.908 0,0 Z"
                 style="fill:#ffffff;fill-opacity:1;fill-rule:nonzero;stroke:none"
                 id="path214"
                 inkscape:connector-curvature="0" /></g><g
               id="g216"
               transform="translate(598.623,317.9424)"><path
                 d="M 0,0 C -1.384,-0.091 -2.573,-0.09 -3.824,0.653 -5.195,1.474 -5.877,2.82 -6.01,4.402 -6.26,7.379 -4.411,9.62 -1.435,9.87 1.642,10.128 3.838,8.213 4.094,5.161 4.258,3.215 3.505,1.634 1.803,0.669 L 0.627,2.923 C 1.503,3.338 2.046,4.104 1.963,5.097 1.826,6.716 0.211,7.428 -1.232,7.307 -2.702,7.184 -4.123,6.18 -3.987,4.56 -3.897,3.492 -3.276,2.722 -2.176,2.713 L -2.344,4.723 -0.41,4.885 0,0 Z"
                 style="fill:#ffffff;fill-opacity:1;fill-rule:nonzero;stroke:none"
                 id="path218"
                 inkscape:connector-curvature="0" /></g><g
               id="g220"
               transform="translate(598.3066,314.5039)"><path
                 d="m 0,0 c -1.639,-0.026 -2.816,-1.255 -2.793,-2.729 0.022,-1.475 1.239,-2.667 2.878,-2.64 1.311,0.02 2.489,1.249 2.466,2.723 C 2.527,-1.171 1.311,0.021 0,0 m 0.138,-7.94 c -3.076,-0.049 -5.279,2.123 -5.326,5.172 -0.048,3.051 2.084,5.29 5.161,5.339 C 2.846,2.616 4.902,0.127 4.945,-2.607 4.988,-5.343 3.012,-7.896 0.138,-7.94"
                 style="fill:#ffffff;fill-opacity:1;fill-rule:nonzero;stroke:none"
                 id="path222"
                 inkscape:connector-curvature="0" /></g><g
               id="g224"
               transform="translate(271.8555,310.8887)"><path
                 d="M 0,0 0.002,0.239 C 0.008,1.046 -0.135,1.954 -1.168,1.963 -2.203,1.972 -2.361,1.065 -2.367,0.259 L -2.369,0.02 0,0 Z M 5.287,5.39 5.262,2.314 1.588,0.013 l 0,-0.026 3.656,-0.029 -0.021,-2.471 -9.502,0.077 0.029,3.692 c 0.014,1.879 0.92,3.297 2.949,3.28 C 0.012,4.525 1.141,3.785 1.369,2.435 L 5.287,5.39 Z"
                 style="fill:#3db5e6;fill-opacity:1;fill-rule:nonzero;stroke:none"
                 id="path226"
                 inkscape:connector-curvature="0" /></g><g
               id="g228"
               transform="translate(270.0215,319.7959)"><path
                 d="M 0,0 1.586,-0.104 1.766,2.676 3.852,2.54 3.672,-0.239 5.307,-0.346 5.496,2.584 7.584,2.448 7.232,-2.945 -2.248,-2.328 -1.896,3.065 0.191,2.929 0,0 Z"
                 style="fill:#3db5e6;fill-opacity:1;fill-rule:nonzero;stroke:none"
                 id="path230"
                 inkscape:connector-curvature="0" /></g><g
               id="g232"
               transform="translate(268.3594,325.8643)"><path
                 d="M 0,0 0.299,2.414 5.576,3.703 0.787,6.354 1.09,8.793 10.697,9.051 10.395,6.6 4.879,6.585 4.877,6.56 10.025,3.622 9.904,2.646 4.207,1.154 4.205,1.13 9.535,-0.33 9.232,-2.771 0,0 Z"
                 style="fill:#3db5e6;fill-opacity:1;fill-rule:nonzero;stroke:none"
                 id="path234"
                 inkscape:connector-curvature="0" /></g><g
               id="g236"
               transform="translate(274.8047,338.7588)"><path
                 d="M 0,0 C 1.607,-0.313 3.014,0.645 3.297,2.091 3.58,3.538 2.637,4.954 1.029,5.269 -0.258,5.52 -1.664,4.562 -1.947,3.115 -2.229,1.668 -1.287,0.252 0,0 M 1.51,7.794 C 4.527,7.204 6.23,4.624 5.646,1.632 5.062,-1.361 2.512,-3.109 -0.506,-2.52 c -2.818,0.55 -4.314,3.411 -3.791,6.094 0.526,2.684 2.986,4.771 5.807,4.22"
                 style="fill:#3db5e6;fill-opacity:1;fill-rule:nonzero;stroke:none"
                 id="path238"
                 inkscape:connector-curvature="0" /></g><g
               id="g240"
               transform="translate(285.041,348.6387)"><path
                 d="M 0,0 -0.842,-0.797 -2.361,1.285 -1.27,2.291 0,0 Z M -8.025,6.102 C -8.811,5.783 -9.369,5.082 -9.58,4.265 -9.957,2.801 -9.09,1.524 -7.662,1.156 -6.211,0.781 -4.904,1.512 -4.52,2.999 -4.318,3.78 -4.496,4.658 -4.965,5.312 L -2.1,4.573 c 0.041,-0.855 0.077,-1.475 -0.115,-2.22 -0.33,-1.281 -1.133,-2.374 -2.244,-3.102 -1.176,-0.777 -2.492,-0.933 -3.857,-0.581 -1.256,0.324 -2.34,1.111 -3.016,2.223 -0.695,1.141 -0.92,2.59 -0.586,3.884 0.197,0.767 0.551,1.431 1.025,2.064 l 2.868,-0.739 z"
                 style="fill:#3db5e6;fill-opacity:1;fill-rule:nonzero;stroke:none"
                 id="path242"
                 inkscape:connector-curvature="0" /></g><g
               id="g244"
               transform="translate(279.4414,358.0342)"><path
                 d="M 0,0 C 1.559,-0.501 3.068,0.285 3.52,1.688 3.971,3.092 3.201,4.61 1.643,5.111 0.395,5.513 -1.115,4.728 -1.566,3.324 -2.018,1.921 -1.248,0.401 0,0 M 2.416,7.562 C 5.344,6.621 6.732,3.858 5.799,0.956 c -0.934,-2.903 -3.672,-4.34 -6.6,-3.398 -2.734,0.88 -3.883,3.895 -3.045,6.498 0.836,2.604 3.528,4.386 6.262,3.506 m -7.961,-5.58 -0.137,0.031 c -0.382,0.123 -0.72,0.311 -0.982,0.607 -0.303,0.335 -0.471,0.839 -0.328,1.283 0.197,0.612 0.883,1.345 1.037,1.826 0.096,0.299 -0.059,0.441 -0.277,0.617 l 0.326,1.02 C -5.064,7.017 -4.184,6.218 -4.512,5.197 -4.709,4.586 -5.361,4.08 -5.541,3.516 -5.635,3.228 -5.434,3.111 -5.229,2.965 L -5.545,1.982 Z"
                 style="fill:#3db5e6;fill-opacity:1;fill-rule:nonzero;stroke:none"
                 id="path246"
                 inkscape:connector-curvature="0" /></g><g
               id="g248"
               transform="translate(280.9082,369.9687)"><path
                 d="M 0,0 1.482,-0.569 2.48,2.031 4.434,1.282 3.438,-1.317 4.967,-1.903 6.018,0.839 7.971,0.091 6.037,-4.958 -2.838,-1.56 -0.902,3.489 1.051,2.741 0,0 Z"
                 style="fill:#3db5e6;fill-opacity:1;fill-rule:nonzero;stroke:none"
                 id="path250"
                 inkscape:connector-curvature="0" /></g><g
               id="g252"
               transform="translate(285.0215,378.9922)"><path
                 d="m 0,0 c -0.527,-0.267 -0.988,-0.697 -1.23,-1.251 -0.18,-0.416 -0.18,-1.076 0.306,-1.287 0.508,-0.222 0.971,0.306 1.268,0.643 L 0.77,-1.392 C 1.654,-0.335 2.674,0.336 4.084,-0.277 4.951,-0.654 5.75,-1.248 6.039,-2.198 6.32,-3.131 6.166,-4.15 5.785,-5.027 5.307,-6.126 4.471,-7.04 3.461,-7.659 l -1.406,1.764 c 0.744,0.351 1.439,0.846 1.775,1.62 0.231,0.532 0.211,1.213 -0.4,1.48 C 2.793,-2.52 2.188,-3.313 1.838,-3.739 0.814,-4.984 0.039,-5.761 -1.648,-5.026 c -1.768,0.766 -2.375,2.529 -1.618,4.274 0.381,0.879 1.125,1.833 1.901,2.417 L 0,0 Z"
                 style="fill:#3db5e6;fill-opacity:1;fill-rule:nonzero;stroke:none"
                 id="path254"
                 inkscape:connector-curvature="0" /></g><g
               id="g256"
               transform="translate(288.9375,387.8564)"><path
                 d="M 0,0 1.406,-0.734 2.693,1.734 4.547,0.768 3.262,-1.701 4.713,-2.459 6.07,0.146 7.924,-0.821 5.428,-5.614 -2.996,-1.225 -0.498,3.568 1.355,2.602 0,0 Z"
                 style="fill:#3db5e6;fill-opacity:1;fill-rule:nonzero;stroke:none"
                 id="path258"
                 inkscape:connector-curvature="0" /></g><g
               id="g260"
               transform="translate(299.043,252.166)"><path
                 d="M 0,0 -0.903,2.296 7.936,5.771 8.838,3.474 0,0 Z"
                 style="fill:#3db5e6;fill-opacity:1;fill-rule:nonzero;stroke:none"
                 id="path262"
                 inkscape:connector-curvature="0" /></g><g
               id="g264"
               transform="translate(308.7578,253.3623)"><path
                 d="m 0,0 1.012,-2.212 -3.817,-3.864 5.467,0.254 1.022,-2.234 -8.043,-5.257 -1.028,2.246 4.686,2.904 -0.011,0.022 -5.921,-0.2 -0.41,0.894 4.067,4.258 -0.009,0.022 -5.304,-1.552 -1.022,2.235 L 0,0 Z"
                 style="fill:#3db5e6;fill-opacity:1;fill-rule:nonzero;stroke:none"
                 id="path266"
                 inkscape:connector-curvature="0" /></g><g
               id="g268"
               transform="translate(310.4385,239.3018)"><path
                 d="m 0,0 c -1.432,-0.798 -1.889,-2.438 -1.171,-3.727 0.719,-1.288 2.354,-1.761 3.785,-0.964 1.147,0.638 1.604,2.279 0.885,3.567 C 2.78,0.165 1.146,0.639 0,0 M 3.877,-6.932 C 1.19,-8.43 -1.778,-7.559 -3.264,-4.893 -4.749,-2.229 -3.929,0.755 -1.241,2.253 1.271,3.652 4.261,2.433 5.591,0.043 6.925,-2.348 6.39,-5.532 3.877,-6.932"
                 style="fill:#3db5e6;fill-opacity:1;fill-rule:nonzero;stroke:none"
                 id="path270"
                 inkscape:connector-curvature="0" /></g><g
               id="g272"
               transform="translate(317.0215,229.7588)"><path
                 d="M 0,0 0.15,-0.232 C 0.506,-0.783 0.971,-1.291 1.646,-0.854 2.377,-0.383 2.002,0.289 1.641,0.851 L 1.545,0.998 0,0 Z m -3.257,-2.105 0.171,-0.265 c 0.398,-0.613 1.035,-1.67 1.912,-1.103 0.963,0.623 0.204,1.586 -0.232,2.264 l -0.137,0.211 -1.714,-1.107 z M -6.183,-1.059 1.79,4.096 3.705,1.136 C 4.62,-0.282 4.686,-1.589 3.164,-2.573 2.445,-3.038 1.713,-3.182 0.968,-2.748 L 0.946,-2.762 C 1.537,-4 1.079,-4.984 -0.031,-5.703 c -1.67,-1.08 -3.143,-0.008 -4.086,1.451 l -2.066,3.193 z"
                 style="fill:#3db5e6;fill-opacity:1;fill-rule:nonzero;stroke:none"
                 id="path274"
                 inkscape:connector-curvature="0" /></g><g
               id="g276"
               transform="translate(317.0918,219.3789)"><path
                 d="M 0,0 -1.428,2.017 6.33,7.51 7.759,5.493 0,0 Z"
                 style="fill:#3db5e6;fill-opacity:1;fill-rule:nonzero;stroke:none"
                 id="path278"
                 inkscape:connector-curvature="0" /></g><g
               id="g280"
               transform="translate(321.3096,217.2051)"><path
                 d="M 0,0 1.792,-2.355 0.128,-3.621 -3.157,0.698 4.399,6.446 5.894,4.482 0,0 Z"
                 style="fill:#3db5e6;fill-opacity:1;fill-rule:nonzero;stroke:none"
                 id="path282"
                 inkscape:connector-curvature="0" /></g><g
               id="g284"
               transform="translate(323.6357,210.918)"><path
                 d="M 0,0 -1.561,1.913 5.796,7.917 7.356,6.005 0,0 Z"
                 style="fill:#3db5e6;fill-opacity:1;fill-rule:nonzero;stroke:none"
                 id="path286"
                 inkscape:connector-curvature="0" /></g><g
               id="g288"
               transform="translate(334.9629,213.7812)"><path
                 d="M 0,0 -0.127,1.256 2.67,1.38 2.854,-0.334 0,0 Z m -2.504,-3.038 -0.017,0.018 -2.931,-1.258 1.37,-1.53 1.578,2.77 z m -4.808,-1.994 -1.667,-0.614 -1.75,1.951 9.51,3.62 1.801,-2.007 -4.686,-9.004 -1.755,1.961 0.816,1.561 -2.269,2.532 z"
                 style="fill:#3db5e6;fill-opacity:1;fill-rule:nonzero;stroke:none"
                 id="path290"
                 inkscape:connector-curvature="0" /></g><g
               id="g292"
               transform="translate(337.1104,203.9189)"><path
                 d="M 0,0 0.17,-0.168 C 0.745,-0.733 1.497,-1.264 2.222,-0.527 2.948,0.209 2.407,0.954 1.833,1.521 L 1.663,1.688 0,0 Z m 0.188,-7.548 -2.191,2.158 0.906,4.241 -0.017,0.017 L -3.681,-3.735 -5.44,-2.001 1.229,4.77 3.861,2.177 C 5.198,0.859 5.585,-0.778 4.161,-2.224 3.241,-3.158 1.923,-3.453 0.795,-2.677 L 0.188,-7.548 Z"
                 style="fill:#3db5e6;fill-opacity:1;fill-rule:nonzero;stroke:none"
                 id="path294"
                 inkscape:connector-curvature="0" /></g><g
               id="g296"
               transform="translate(339.833,194.1357)"><path
                 d="M 0,0 -1.829,1.659 4.55,8.695 6.378,7.037 0,0 Z"
                 style="fill:#3db5e6;fill-opacity:1;fill-rule:nonzero;stroke:none"
                 id="path298"
                 inkscape:connector-curvature="0" /></g><g
               id="g300"
               transform="translate(348.5801,195.292)"><path
                 d="M 0,0 -0.019,0.016 -2.729,-1.67 -1.145,-2.976 0,0 Z m -4.457,-2.694 -1.557,-0.858 -2.021,1.668 8.863,5.007 2.08,-1.715 -3.281,-9.609 -2.032,1.677 0.573,1.667 -2.625,2.163 z"
                 style="fill:#3db5e6;fill-opacity:1;fill-rule:nonzero;stroke:none"
                 id="path302"
                 inkscape:connector-curvature="0" /></g><g
               id="g304"
               transform="translate(406.6582,166.0205)"><path
                 d="M 0,0 -0.025,0.006 -1.745,-2.681 0.246,-3.176 0,0 Z M -2.861,-4.35 -3.895,-5.793 -6.438,-5.16 -0.6,3.174 2.016,2.522 3.193,-7.557 0.639,-6.921 0.438,-5.171 -2.861,-4.35 Z"
                 style="fill:#ffffff;fill-opacity:1;fill-rule:nonzero;stroke:none"
                 id="path306"
                 inkscape:connector-curvature="0" /></g><g
               id="g308"
               transform="translate(417.3789,164.249)"><path
                 d="M 0,0 C -0.376,0.455 -0.899,0.81 -1.493,0.921 -1.939,1.005 -2.582,0.856 -2.68,0.336 c -0.103,-0.545 0.514,-0.878 0.909,-1.094 l 0.585,-0.303 c 1.229,-0.626 2.11,-1.471 1.825,-2.983 -0.174,-0.929 -0.576,-1.841 -1.437,-2.333 -0.848,-0.482 -1.875,-0.558 -2.816,-0.382 -1.176,0.222 -2.254,0.834 -3.082,1.682 l 1.407,1.761 c 0.507,-0.647 1.144,-1.214 1.974,-1.371 0.571,-0.106 1.23,0.066 1.353,0.721 0.128,0.681 -0.781,1.096 -1.273,1.342 -1.443,0.719 -2.371,1.304 -2.032,3.112 0.356,1.895 1.938,2.88 3.807,2.529 C -0.518,2.841 0.578,2.328 1.319,1.7 L 0,0 Z"
                 style="fill:#ffffff;fill-opacity:1;fill-rule:nonzero;stroke:none"
                 id="path310"
                 inkscape:connector-curvature="0" /></g><g
               id="g312"
               transform="translate(424.9404,163.1387)"><path
                 d="M 0,0 C -0.399,0.437 -0.939,0.765 -1.54,0.846 -1.989,0.906 -2.624,0.725 -2.695,0.2 -2.77,-0.35 -2.137,-0.651 -1.729,-0.846 l 0.597,-0.272 c 1.261,-0.565 2.183,-1.363 1.977,-2.888 -0.128,-0.936 -0.483,-1.868 -1.319,-2.403 -0.821,-0.525 -1.843,-0.653 -2.793,-0.526 -1.187,0.162 -2.295,0.718 -3.164,1.524 l 1.317,1.83 c 0.537,-0.619 1.203,-1.154 2.041,-1.268 0.574,-0.078 1.224,0.126 1.314,0.788 0.093,0.687 -0.837,1.055 -1.341,1.277 -1.477,0.644 -2.434,1.181 -2.188,3.005 0.259,1.911 1.789,2.975 3.676,2.72 C -0.663,2.813 0.459,2.355 1.23,1.768 L 0,0 Z"
                 style="fill:#ffffff;fill-opacity:1;fill-rule:nonzero;stroke:none"
                 id="path314"
                 inkscape:connector-curvature="0" /></g><g
               id="g316"
               transform="translate(435.7783,164.6279)"><path
                 d="m 0,0 -0.408,-5.326 c -0.093,-1.219 -0.236,-2.422 -1.249,-3.268 -0.85,-0.717 -2.114,-0.898 -3.221,-0.813 -1.105,0.085 -2.328,0.456 -3.059,1.296 -0.873,0.989 -0.831,2.198 -0.738,3.417 l 0.408,5.327 2.463,-0.189 -0.383,-4.987 c -0.093,-1.231 -0.108,-2.582 1.474,-2.704 1.584,-0.12 1.775,1.217 1.869,2.447 L -2.462,0.188 0,0 Z"
                 style="fill:#ffffff;fill-opacity:1;fill-rule:nonzero;stroke:none"
                 id="path318"
                 inkscape:connector-curvature="0" /></g><g
               id="g320"
               transform="translate(437.0684,164.5527)"><path
                 d="m 0,0 2.471,-0.018 4.483,-5.844 0.025,0 0.042,5.811 2.471,-0.017 -0.068,-9.506 -2.472,0.018 -4.482,5.857 -0.026,0 L 2.401,-9.522 -0.068,-9.505 0,0 Z"
                 style="fill:#ffffff;fill-opacity:1;fill-rule:nonzero;stroke:none"
                 id="path322"
                 inkscape:connector-curvature="0" /></g><g
               id="g324"
               transform="translate(452.2168,155.2881)"><path
                 d="M 0,0 -2.467,-0.131 -2.858,7.272 -4.897,7.164 -5.008,9.254 1.538,9.6 1.649,7.509 -0.392,7.402 0,0 Z"
                 style="fill:#ffffff;fill-opacity:1;fill-rule:nonzero;stroke:none"
                 id="path326"
                 inkscape:connector-curvature="0" /></g><g
               id="g328"
               transform="translate(457.0049,160.5703)"><path
                 d="M 0,0 C 0.186,-1.628 1.523,-2.681 2.988,-2.515 4.454,-2.349 5.521,-1.021 5.335,0.606 5.187,1.909 3.85,2.963 2.385,2.795 0.919,2.63 -0.148,1.303 0,0 M 7.89,0.91 C 8.236,-2.146 6.291,-4.549 3.259,-4.894 0.228,-5.238 -2.209,-3.334 -2.557,-0.278 -2.881,2.577 -0.604,4.866 2.114,5.175 4.832,5.485 7.564,3.766 7.89,0.91"
                 style="fill:#ffffff;fill-opacity:1;fill-rule:nonzero;stroke:none"
                 id="path330"
                 inkscape:connector-curvature="0" /></g><g
               id="g332"
               transform="translate(470.8213,164.7305)"><path
                 d="m 0,0 c -0.515,0.292 -1.13,0.438 -1.725,0.332 -0.447,-0.079 -0.995,-0.447 -0.902,-0.969 0.099,-0.546 0.794,-0.638 1.239,-0.7 l 0.655,-0.075 C 0.638,-1.562 1.76,-2.039 2.031,-3.554 2.198,-4.483 2.146,-5.479 1.515,-6.245 0.894,-6.996 -0.039,-7.433 -0.982,-7.602 -2.161,-7.813 -3.386,-7.622 -4.46,-7.123 l 0.689,2.146 c 0.704,-0.424 1.501,-0.73 2.333,-0.58 0.571,0.101 1.127,0.495 1.01,1.154 -0.123,0.681 -1.119,0.746 -1.668,0.801 -1.603,0.162 -2.679,0.378 -3.004,2.189 -0.339,1.899 0.79,3.381 2.662,3.717 0.944,0.169 2.152,0.078 3.067,-0.245 L 0,0 Z"
                 style="fill:#ffffff;fill-opacity:1;fill-rule:nonzero;stroke:none"
                 id="path334"
                 inkscape:connector-curvature="0" /></g><g
               id="g336"
               transform="translate(531.4043,191.0791)"><path
                 d="M 0,0 -0.021,-0.015 0.972,-3.047 2.617,-1.817 0,0 Z M 1.559,-4.968 2.021,-6.681 -0.077,-8.25 -2.836,1.544 -0.678,3.157 7.874,-2.309 5.765,-3.884 4.282,-2.933 1.559,-4.968 Z"
                 style="fill:#ffffff;fill-opacity:1;fill-rule:nonzero;stroke:none"
                 id="path338"
                 inkscape:connector-curvature="0" /></g><g
               id="g340"
               transform="translate(539.5566,198.2617)"><path
                 d="m 0,0 c -0.591,-0.003 -1.196,-0.183 -1.659,-0.573 -0.347,-0.293 -0.638,-0.884 -0.297,-1.289 0.356,-0.424 1.006,-0.157 1.423,0.012 l 0.603,0.262 c 1.263,0.554 2.474,0.7 3.464,-0.475 0.609,-0.723 1.06,-1.611 0.896,-2.59 -0.163,-0.96 -0.753,-1.804 -1.487,-2.42 -0.915,-0.772 -2.071,-1.218 -3.25,-1.323 l -0.473,2.204 c 0.821,-0.016 1.664,0.117 2.309,0.661 0.444,0.374 0.73,0.993 0.299,1.504 -0.447,0.529 -1.343,0.088 -1.845,-0.138 -1.469,-0.661 -2.509,-1.01 -3.694,0.397 -1.243,1.474 -1.003,3.323 0.451,4.548 0.733,0.617 1.824,1.141 2.778,1.319 L 0,0 Z"
                 style="fill:#ffffff;fill-opacity:1;fill-rule:nonzero;stroke:none"
                 id="path342"
                 inkscape:connector-curvature="0" /></g><g
               id="g344"
               transform="translate(545.2119,203.4434)"><path
                 d="m 0,0 c -0.589,-0.033 -1.186,-0.246 -1.627,-0.658 -0.331,-0.311 -0.593,-0.917 -0.23,-1.304 0.378,-0.405 1.013,-0.105 1.42,0.087 l 0.59,0.293 c 1.234,0.618 2.434,0.828 3.486,-0.294 0.646,-0.69 1.143,-1.555 1.03,-2.541 C 4.558,-5.386 4.01,-6.259 3.312,-6.914 2.437,-7.731 1.306,-8.239 0.132,-8.404 l -0.588,2.176 c 0.822,0.028 1.656,0.206 2.273,0.783 0.424,0.395 0.677,1.029 0.22,1.516 -0.475,0.507 -1.346,0.018 -1.836,-0.233 -1.433,-0.736 -2.454,-1.141 -3.713,0.203 -1.317,1.408 -1.175,3.268 0.215,4.568 0.699,0.655 1.762,1.236 2.706,1.462 L 0,0 Z"
                 style="fill:#ffffff;fill-opacity:1;fill-rule:nonzero;stroke:none"
                 id="path346"
                 inkscape:connector-curvature="0" /></g><g
               id="g348"
               transform="translate(550.9121,212.8018)"><path
                 d="m 0,0 3.874,-3.682 c 0.886,-0.842 1.728,-1.713 1.744,-3.031 0.02,-1.114 -0.639,-2.21 -1.404,-3.014 -0.764,-0.804 -1.823,-1.517 -2.937,-1.555 -1.319,-0.052 -2.23,0.746 -3.116,1.589 l -3.875,3.68 1.702,1.79 3.627,-3.445 c 0.897,-0.852 1.935,-1.717 3.029,-0.565 1.093,1.15 0.176,2.144 -0.72,2.994 L -1.703,-1.792 0,0 Z"
                 style="fill:#ffffff;fill-opacity:1;fill-rule:nonzero;stroke:none"
                 id="path350"
                 inkscape:connector-curvature="0" /></g><g
               id="g352"
               transform="translate(551.7861,213.751)"><path
                 d="M 0,0 1.571,1.906 8.932,1.702 8.947,1.722 4.465,5.416 6.036,7.322 13.366,1.278 11.796,-0.627 4.427,-0.414 4.41,-0.435 8.903,-4.138 7.332,-6.043 0,0 Z"
                 style="fill:#ffffff;fill-opacity:1;fill-rule:nonzero;stroke:none"
                 id="path354"
                 inkscape:connector-curvature="0" /></g><g
               id="g356"
               transform="translate(568.5137,219.6416)"><path
                 d="M 0,0 -1.455,-1.995 -7.44,2.371 -8.643,0.722 -10.332,1.953 -6.472,7.246 -4.782,6.014 -5.984,4.365 0,0 Z"
                 style="fill:#ffffff;fill-opacity:1;fill-rule:nonzero;stroke:none"
                 id="path358"
                 inkscape:connector-curvature="0" /></g><g
               id="g360"
               transform="translate(567.4434,226.6904)"><path
                 d="M 0,0 C 1.378,-0.884 3.039,-0.512 3.834,0.729 4.63,1.97 4.275,3.634 2.896,4.518 1.793,5.226 0.133,4.853 -0.662,3.611 -1.457,2.371 -1.103,0.707 0,0 M 4.271,6.687 C 6.86,5.029 7.494,2.004 5.85,-0.562 4.204,-3.129 1.19,-3.815 -1.397,-2.158 c -2.418,1.551 -2.755,4.761 -1.282,7.061 1.477,2.302 4.533,3.335 6.95,1.784"
                 style="fill:#ffffff;fill-opacity:1;fill-rule:nonzero;stroke:none"
                 id="path362"
                 inkscape:connector-curvature="0" /></g><g
               id="g364"
               transform="translate(572.9463,240.0557)"><path
                 d="m 0,0 c -0.552,-0.213 -1.053,-0.6 -1.346,-1.128 -0.219,-0.396 -0.282,-1.055 0.181,-1.311 0.486,-0.269 0.996,0.21 1.325,0.519 l 0.471,0.46 c 0.984,0.968 2.063,1.536 3.41,0.792 C 4.866,-1.127 5.605,-1.795 5.802,-2.769 5.992,-3.725 5.741,-4.725 5.276,-5.562 4.696,-6.609 3.775,-7.44 2.709,-7.959 l -1.23,1.892 c 0.775,0.278 1.514,0.703 1.924,1.442 0.282,0.508 0.326,1.188 -0.257,1.512 C 2.539,-2.777 1.86,-3.51 1.47,-3.899 0.332,-5.041 -0.515,-5.74 -2.125,-4.848 c -1.687,0.936 -2.123,2.748 -1.2,4.413 0.465,0.839 1.297,1.717 2.125,2.223 L 0,0 Z"
                 style="fill:#ffffff;fill-opacity:1;fill-rule:nonzero;stroke:none"
                 id="path366"
                 inkscape:connector-curvature="0" /></g><g
               id="g368"
               transform="translate(292.7217,247.9736)"><path
                 d="m 0,0 -1.466,-0.606 1.066,-2.573 -1.932,-0.8 -1.066,2.571 -1.513,-0.626 1.125,-2.713 -1.933,-0.8 -2.069,4.992 L 0.987,3.082 3.056,-1.91 1.124,-2.711 0,0 Z"
                 style="fill:#3db5e6;fill-opacity:1;fill-rule:nonzero;stroke:none"
                 id="path370"
                 inkscape:connector-curvature="0" /></g><g
               id="g372"
               transform="translate(297.5225,233.9541)"><path
                 d="m 0,0 3.268,1.666 1.121,-2.201 -8.465,-4.317 -1.122,2.202 3.469,1.768 -1.62,3.178 L -6.818,0.527 -7.939,2.728 0.525,7.044 1.647,4.843 -1.62,3.178 0,0 Z"
                 style="fill:#3db5e6;fill-opacity:1;fill-rule:nonzero;stroke:none"
                 id="path374"
                 inkscape:connector-curvature="0" /></g><g
               id="g376"
               transform="translate(302.1494,227.1445)"><path
                 d="M 0,0 -0.014,0.021 -3.135,-0.634 -2.094,-2.402 0,0 Z M -5.108,-1.007 -6.864,-1.28 -8.193,0.979 1.845,2.651 3.214,0.328 l -6.368,-7.903 -1.338,2.268 1.109,1.37 -1.725,2.93 z"
                 style="fill:#3db5e6;fill-opacity:1;fill-rule:nonzero;stroke:none"
                 id="path378"
                 inkscape:connector-curvature="0" /></g><g
               id="g380"
               transform="translate(305.7607,219.8369)"><path
                 d="m 0,0 0.153,-0.229 c 0.364,-0.545 0.836,-1.048 1.506,-0.602 0.723,0.482 0.339,1.15 -0.031,1.704 L 1.529,1.021 0,0 Z m -3.228,-2.151 0.175,-0.262 c 0.407,-0.608 1.059,-1.655 1.929,-1.076 0.953,0.636 0.182,1.59 -0.266,2.26 l -0.14,0.21 -1.698,-1.132 z m -2.941,1.005 7.9,5.269 1.957,-2.935 C 4.624,-0.215 4.709,-1.521 3.199,-2.527 2.487,-3.003 1.758,-3.157 1.006,-2.734 L 0.984,-2.748 c 0.61,-1.23 0.165,-2.222 -0.934,-2.955 -1.655,-1.105 -3.144,-0.053 -4.109,1.392 l -2.11,3.165 z"
                 style="fill:#3db5e6;fill-opacity:1;fill-rule:nonzero;stroke:none"
                 id="path382"
                 inkscape:connector-curvature="0" /></g><g
               id="g384"
               transform="translate(305.957,209.4521)"><path
                 d="m 0,0 -1.446,1.999 7.692,5.564 1.445,-2 L 0,0 Z"
                 style="fill:#3db5e6;fill-opacity:1;fill-rule:nonzero;stroke:none"
                 id="path386"
                 inkscape:connector-curvature="0" /></g><g
               id="g388"
               transform="translate(309.3467,204.998)"><path
                 d="M 0,0 -1.514,1.952 4.339,6.493 3.087,8.105 4.74,9.388 8.756,4.213 7.104,2.929 5.853,4.541 0,0 Z"
                 style="fill:#3db5e6;fill-opacity:1;fill-rule:nonzero;stroke:none"
                 id="path390"
                 inkscape:connector-curvature="0" /></g><g
               id="g392"
               transform="translate(318.5059,204.1719)"><path
                 d="M 0,0 -0.017,0.02 -2.982,-1.162 -1.652,-2.728 0,0 Z m -4.863,-1.868 -1.684,-0.57 -1.698,1.997 9.609,3.371 1.746,-2.055 -4.922,-8.884 -1.707,2.008 0.858,1.54 -2.202,2.593 z"
                 style="fill:#3db5e6;fill-opacity:1;fill-rule:nonzero;stroke:none"
                 id="path394"
                 inkscape:connector-curvature="0" /></g><g
               id="g396"
               transform="translate(326.6885,194.8213)"><path
                 d="m 0,0 c 0.146,0.833 -0.153,1.679 -0.732,2.29 -1.042,1.097 -2.584,1.039 -3.653,0.023 -1.086,-1.03 -1.16,-2.525 -0.103,-3.638 0.554,-0.585 1.392,-0.902 2.196,-0.851 l -2.146,-2.038 c -0.748,0.421 -1.291,0.721 -1.82,1.278 -0.91,0.958 -1.412,2.218 -1.439,3.546 -0.035,1.41 0.531,2.606 1.553,3.577 0.941,0.891 2.183,1.393 3.483,1.377 C -1.325,5.548 0.022,4.969 0.941,4.001 1.487,3.426 1.862,2.774 2.146,2.037 L 0,0 Z m -9.428,-3.566 -0.228,1.136 2.57,0.183 0.273,-1.459 -2.615,0.14 z"
                 style="fill:#3db5e6;fill-opacity:1;fill-rule:nonzero;stroke:none"
                 id="path398"
                 inkscape:connector-curvature="0" /></g><g
               id="g400"
               transform="translate(332.002,195.8936)"><path
                 d="M 0,0 0.086,0.109 C 0.361,0.402 0.677,0.625 1.057,0.733 1.49,0.862 2.018,0.797 2.356,0.478 2.823,0.036 3.189,-0.897 3.555,-1.243 3.784,-1.46 3.978,-1.382 4.233,-1.26 L 5.012,-1.994 C 4.335,-2.603 3.234,-3.053 2.454,-2.317 1.987,-1.877 1.813,-1.071 1.383,-0.664 1.162,-0.457 0.97,-0.587 0.751,-0.709 L 0,0 Z m -1.064,-4.815 -0.019,0.017 -2.816,-1.499 1.493,-1.409 1.342,2.891 z m -4.626,-2.388 -1.611,-0.75 -1.904,1.798 9.176,4.399 1.96,-1.85 -3.918,-9.363 -1.915,1.808 0.684,1.623 -2.472,2.335 z"
                 style="fill:#3db5e6;fill-opacity:1;fill-rule:nonzero;stroke:none"
                 id="path402"
                 inkscape:connector-curvature="0" /></g><g
               id="g404"
               transform="translate(335.6035,184.6416)"><path
                 d="m 0,0 c -1.046,-1.26 -0.878,-2.953 0.256,-3.895 1.136,-0.94 2.83,-0.791 3.876,0.47 0.836,1.009 0.669,2.702 -0.467,3.644 C 2.531,1.159 0.836,1.009 0,0 m 6.118,-5.055 c -1.962,-2.366 -5.042,-2.629 -7.389,-0.682 -2.348,1.946 -2.663,5.02 -0.701,7.387 1.833,2.212 5.06,2.156 7.165,0.413 2.104,-1.746 2.759,-4.906 0.925,-7.118"
                 style="fill:#3db5e6;fill-opacity:1;fill-rule:nonzero;stroke:none"
                 id="path406"
                 inkscape:connector-curvature="0" /></g><g
               id="g408"
               transform="translate(398.9277,145.874)"><path
                 d="m 0,0 -2.384,0.653 1.96,7.15 -1.97,0.539 0.554,2.017 L 4.482,8.628 3.93,6.608 1.959,7.148 0,0 Z"
                 style="fill:#ffffff;fill-opacity:1;fill-rule:nonzero;stroke:none"
                 id="path410"
                 inkscape:connector-curvature="0" /></g><g
               id="g412"
               transform="translate(405.5859,149.626)"><path
                 d="M 0,0 0.234,-0.053 C 1.021,-0.229 1.94,-0.279 2.167,0.729 2.393,1.737 1.539,2.084 0.752,2.261 L 0.519,2.312 0,0 Z m 4.154,-6.306 -3.002,0.673 -1.475,4.077 -0.024,0.006 -0.799,-3.567 -2.412,0.541 2.079,9.273 L 2.125,3.89 C 3.959,3.479 5.152,2.293 4.708,0.314 4.421,-0.966 3.46,-1.913 2.092,-1.852 l 2.062,-4.454 z"
                 style="fill:#ffffff;fill-opacity:1;fill-rule:nonzero;stroke:none"
                 id="path414"
                 inkscape:connector-curvature="0" /></g><g
               id="g416"
               transform="translate(413.0439,142.7598)"><path
                 d="M 0,0 -2.429,0.445 -0.716,9.79 1.713,9.346 0,0 Z"
                 style="fill:#ffffff;fill-opacity:1;fill-rule:nonzero;stroke:none"
                 id="path418"
                 inkscape:connector-curvature="0" /></g><g
               id="g420"
               transform="translate(418.1035,147.7803)"><path
                 d="M 0,0 0.274,-0.04 C 0.925,-0.133 1.613,-0.118 1.729,0.68 1.854,1.54 1.1,1.7 0.438,1.796 L 0.264,1.821 0,0 Z m -0.555,-3.841 0.313,-0.046 c 0.723,-0.104 1.94,-0.318 2.09,0.717 0.164,1.136 -1.062,1.197 -1.861,1.314 l -0.25,0.036 -0.292,-2.021 z M -3.269,-5.359 -1.91,4.044 1.581,3.541 C 3.252,3.3 4.281,2.487 4.022,0.691 3.9,-0.155 3.526,-0.803 2.709,-1.078 L 2.706,-1.104 C 4.027,-1.473 4.47,-2.467 4.28,-3.776 3.995,-5.747 2.219,-6.151 0.498,-5.902 l -3.767,0.543 z"
                 style="fill:#ffffff;fill-opacity:1;fill-rule:nonzero;stroke:none"
                 id="path422"
                 inkscape:connector-curvature="0" /></g><g
               id="g424"
               transform="translate(432.6318,149.9424)"><path
                 d="m 0,0 -0.468,-5.324 c -0.107,-1.219 -0.262,-2.42 -1.285,-3.253 -0.86,-0.709 -2.127,-0.877 -3.231,-0.779 -1.105,0.096 -2.326,0.482 -3.047,1.331 -0.863,0.999 -0.807,2.208 -0.7,3.426 l 0.467,5.325 2.463,-0.216 -0.438,-4.986 c -0.109,-1.23 -0.139,-2.582 1.444,-2.72 1.582,-0.14 1.788,1.196 1.897,2.426 L -2.462,0.216 0,0 Z"
                 style="fill:#ffffff;fill-opacity:1;fill-rule:nonzero;stroke:none"
                 id="path426"
                 inkscape:connector-curvature="0" /></g><g
               id="g428"
               transform="translate(437.4307,140.2334)"><path
                 d="m 0,0 -2.467,0.127 0.38,7.401 -2.04,0.106 L -4.02,9.723 2.526,9.387 2.419,7.299 0.38,7.403 0,0 Z"
                 style="fill:#ffffff;fill-opacity:1;fill-rule:nonzero;stroke:none"
                 id="path430"
                 inkscape:connector-curvature="0" /></g><g
               id="g432"
               transform="translate(444.6621,146.7441)"><path
                 d="M 0,0 -0.025,0 -1.014,-3.035 1.039,-3.014 0,0 Z M -0.635,3.888 -1.662,4.62 0.092,6.807 1.501,5.813 -0.635,3.888 Z m -1.04,-8.821 -0.638,-1.658 -2.622,-0.027 3.555,9.54 2.697,0.028 3.679,-9.464 -2.634,-0.027 -0.633,1.645 -3.404,-0.037 z"
                 style="fill:#ffffff;fill-opacity:1;fill-rule:nonzero;stroke:none"
                 id="path434"
                 inkscape:connector-curvature="0" /></g><g
               id="g436"
               transform="translate(452.8535,145.708)"><path
                 d="M 0,0 0.239,0.016 C 1.043,0.069 1.937,0.28 1.868,1.312 1.801,2.342 0.885,2.432 0.082,2.378 L -0.156,2.362 0,0 Z M 5.764,-4.866 2.697,-5.069 0.131,-1.582 0.106,-1.584 0.348,-5.227 -2.114,-5.391 -2.745,4.083 0.936,4.329 C 2.808,4.453 4.287,3.655 4.422,1.633 4.51,0.326 3.855,-0.854 2.526,-1.182 l 3.238,-3.684 z"
                 style="fill:#ffffff;fill-opacity:1;fill-rule:nonzero;stroke:none"
                 id="path438"
                 inkscape:connector-curvature="0" /></g><g
               id="g440"
               transform="translate(461.9375,141.2402)"><path
                 d="m 0,0 -2.458,-0.261 -1,9.453 L -1,9.452 0,0 Z"
                 style="fill:#ffffff;fill-opacity:1;fill-rule:nonzero;stroke:none"
                 id="path442"
                 inkscape:connector-curvature="0" /></g><g
               id="g444"
               transform="translate(465.1416,146.5713)"><path
                 d="m 0,0 c 0.249,-1.618 1.625,-2.618 3.082,-2.395 1.456,0.223 2.47,1.589 2.222,3.208 C 5.105,2.107 3.729,3.107 2.271,2.885 0.815,2.661 -0.198,1.295 0,0 M 7.842,1.216 C 8.308,-1.822 6.456,-4.299 3.444,-4.76 0.431,-5.222 -2.075,-3.415 -2.542,-0.377 -2.977,2.461 -0.793,4.835 1.909,5.249 4.611,5.665 7.406,4.054 7.842,1.216"
                 style="fill:#ffffff;fill-opacity:1;fill-rule:nonzero;stroke:none"
                 id="path446"
                 inkscape:connector-curvature="0" /></g><g
               id="g448"
               transform="translate(478.791,151.2324)"><path
                 d="m 0,0 c -0.523,0.275 -1.143,0.4 -1.733,0.274 -0.445,-0.094 -0.981,-0.479 -0.871,-0.997 0.117,-0.543 0.814,-0.612 1.262,-0.659 l 0.655,-0.052 C 0.69,-1.541 1.828,-1.979 2.148,-3.483 2.346,-4.407 2.326,-5.403 1.722,-6.19 1.126,-6.961 0.208,-7.429 -0.729,-7.629 c -1.17,-0.25 -2.402,-0.1 -3.492,0.362 l 0.618,2.17 c 0.719,-0.402 1.525,-0.681 2.351,-0.504 0.566,0.121 1.11,0.534 0.97,1.186 -0.144,0.679 -1.143,0.71 -1.693,0.747 -1.608,0.108 -2.69,0.289 -3.074,2.088 -0.402,1.886 0.678,3.404 2.539,3.802 0.936,0.201 2.146,0.149 3.072,-0.143 L 0,0 Z"
                 style="fill:#ffffff;fill-opacity:1;fill-rule:nonzero;stroke:none"
                 id="path450"
                 inkscape:connector-curvature="0" /></g><g
               id="g452"
               transform="translate(557.4775,187.7734)"><path
                 d="m 0,0 2.158,2.025 1.431,-1.523 -3.956,-3.716 -6.5,6.92 1.799,1.69 L 0,0 Z"
                 style="fill:#ffffff;fill-opacity:1;fill-rule:nonzero;stroke:none"
                 id="path454"
                 inkscape:connector-curvature="0" /></g><g
               id="g456"
               transform="translate(558.2461,195.9609)"><path
                 d="M 0,0 1.133,-1.114 3.085,0.871 4.577,-0.596 2.623,-2.581 3.791,-3.73 5.852,-1.636 7.342,-3.104 3.55,-6.959 -3.224,-0.294 0.568,3.56 2.06,2.093 0,0 Z"
                 style="fill:#ffffff;fill-opacity:1;fill-rule:nonzero;stroke:none"
                 id="path458"
                 inkscape:connector-curvature="0" /></g><g
               id="g460"
               transform="translate(569.166,204.7754)"><path
                 d="m 0,0 c 1.021,-0.937 1.843,-1.798 2.172,-3.216 0.353,-1.559 -0.148,-2.982 -1.2,-4.174 -1.98,-2.238 -4.878,-2.452 -7.117,-0.472 -2.313,2.047 -2.449,4.958 -0.418,7.254 1.293,1.462 2.957,2.012 4.832,1.448 l -0.817,-2.407 c -0.905,0.346 -1.834,0.208 -2.494,-0.538 -1.078,-1.218 -0.476,-2.878 0.61,-3.839 1.106,-0.977 2.814,-1.311 3.891,-0.091 0.711,0.803 0.838,1.783 0.083,2.586 L -1.795,-4.96 -3.249,-3.675 0,0 Z"
                 style="fill:#ffffff;fill-opacity:1;fill-rule:nonzero;stroke:none"
                 id="path462"
                 inkscape:connector-curvature="0" /></g><g
               id="g464"
               transform="translate(571.4307,209.7178)"><path
                 d="M 0,0 -0.016,-0.02 1.742,-2.683 3.005,-1.062 0,0 Z m 2.816,-4.381 0.899,-1.531 -1.611,-2.067 -5.249,8.72 1.658,2.128 9.692,-3.016 -1.618,-2.077 -1.681,0.527 -2.09,-2.684 z"
                 style="fill:#ffffff;fill-opacity:1;fill-rule:nonzero;stroke:none"
                 id="path466"
                 inkscape:connector-curvature="0" /></g><g
               id="g468"
               transform="translate(581.6113,212.4424)"><path
                 d="M 0,0 -1.433,-2.011 -9.169,3.501 -7.736,5.514 0,0 Z"
                 style="fill:#ffffff;fill-opacity:1;fill-rule:nonzero;stroke:none"
                 id="path470"
                 inkscape:connector-curvature="0" /></g><g
               id="g472"
               transform="translate(579.6367,222.1406)"><path
                 d="m 0,0 c -0.566,-0.17 -1.096,-0.515 -1.428,-1.02 -0.25,-0.379 -0.362,-1.029 0.078,-1.321 0.463,-0.305 1.01,0.135 1.363,0.415 l 0.504,0.423 C 1.571,-0.614 2.69,-0.131 3.974,-0.976 4.763,-1.497 5.447,-2.22 5.567,-3.205 5.684,-4.172 5.357,-5.15 4.829,-5.949 4.171,-6.947 3.188,-7.704 2.087,-8.14 l -1.08,1.981 c 0.792,0.217 1.563,0.584 2.029,1.288 0.318,0.484 0.416,1.159 -0.14,1.527 -0.58,0.381 -1.313,-0.296 -1.731,-0.654 -1.222,-1.052 -2.121,-1.682 -3.656,-0.669 -1.61,1.062 -1.905,2.902 -0.857,4.49 0.528,0.799 1.425,1.612 2.288,2.052 L 0,0 Z"
                 style="fill:#ffffff;fill-opacity:1;fill-rule:nonzero;stroke:none"
                 id="path474"
                 inkscape:connector-curvature="0" /></g><path
               d="m 435.849,283.375 -26.486,0 0,60.314 26.486,0 0,-60.314 z"
               style="fill:#3db5e6;fill-opacity:1;fill-rule:nonzero;stroke:none"
               id="path476"
               inkscape:connector-curvature="0" /><g
               id="g478"
               transform="translate(437.0713,375.6113)"><path
                 d="m 0,0 c 0,-7.754 -6.605,-14.044 -14.761,-14.044 -8.156,0 -14.768,6.29 -14.768,14.044 0,7.758 6.612,14.045 14.768,14.045 C -6.605,14.045 0,7.758 0,0"
                 style="fill:#3db5e6;fill-opacity:1;fill-rule:nonzero;stroke:none"
                 id="path480"
                 inkscape:connector-curvature="0" /></g><g
               id="g482"
               transform="translate(435.7529,343.6895)"><path
                 d="m 0,0 c 0,-7.221 -5.913,-13.079 -13.191,-13.079 -7.292,0 -13.2,5.858 -13.2,13.079 0,7.227 5.908,13.087 13.2,13.087 C -5.913,13.087 0,7.227 0,0"
                 style="fill:#3db5e6;fill-opacity:1;fill-rule:nonzero;stroke:none"
                 id="path484"
                 inkscape:connector-curvature="0" /></g><path
               d="m 470.861,248.577 -26.484,0 0,60.318 26.484,0 0,-60.318 z"
               style="fill:#3db5e6;fill-opacity:1;fill-rule:nonzero;stroke:none"
               id="path486"
               inkscape:connector-curvature="0" /><g
               id="g488"
               transform="translate(472.0791,340.8242)"><path
                 d="m 0,0 c 0,-7.761 -6.605,-14.048 -14.769,-14.048 -8.156,0 -14.76,6.287 -14.76,14.048 0,7.761 6.604,14.038 14.76,14.038 C -6.605,14.038 0,7.761 0,0"
                 style="fill:#3db5e6;fill-opacity:1;fill-rule:nonzero;stroke:none"
                 id="path490"
                 inkscape:connector-curvature="0" /></g><g
               id="g492"
               transform="translate(470.8154,308.9004)"><path
                 d="m 0,0 c 0,-7.224 -5.911,-13.082 -13.191,-13.082 -7.294,0 -13.2,5.858 -13.2,13.082 0,7.234 5.906,13.084 13.2,13.084 C -5.911,13.084 0,7.234 0,0"
                 style="fill:#3db5e6;fill-opacity:1;fill-rule:nonzero;stroke:none"
                 id="path494"
                 inkscape:connector-curvature="0" /></g></g></g></g></g></g></svg>