<?xml version="1.0" encoding="UTF-8" standalone="no"?>
<!-- Created with Inkscape (http://www.inkscape.org/) -->

<svg
   xmlns:dc="http://purl.org/dc/elements/1.1/"
   xmlns:cc="http://creativecommons.org/ns#"
   xmlns:rdf="http://www.w3.org/1999/02/22-rdf-syntax-ns#"
   xmlns:svg="http://www.w3.org/2000/svg"
   xmlns="http://www.w3.org/2000/svg"
   xmlns:sodipodi="http://sodipodi.sourceforge.net/DTD/sodipodi-0.dtd"
   xmlns:inkscape="http://www.inkscape.org/namespaces/inkscape"
   id="svg2"
   version="1.1"
   inkscape:version="0.91 r13725"
   xml:space="preserve"
   width="471.16153"
   height="470.7597"
   viewBox="0 0 471.16152 470.75971"
   sodipodi:docname="services.svg"><metadata
     id="metadata8"><rdf:RDF><cc:Work
         rdf:about=""><dc:format>image/svg+xml</dc:format><dc:type
           rdf:resource="http://purl.org/dc/dcmitype/StillImage" /><dc:title></dc:title></cc:Work></rdf:RDF></metadata><defs
     id="defs6"><clipPath
       clipPathUnits="userSpaceOnUse"
       id="clipPath18"><path
         d="m 0,612.288 858.897,0 L 858.897,0 0,0 0,612.288 Z"
         id="path20"
         inkscape:connector-curvature="0" /></clipPath></defs><sodipodi:namedview
     pagecolor="#ffffff"
     bordercolor="#666666"
     borderopacity="1"
     objecttolerance="10"
     gridtolerance="10"
     guidetolerance="10"
     inkscape:pageopacity="0"
     inkscape:pageshadow="2"
     inkscape:window-width="2560"
     inkscape:window-height="1314"
     id="namedview4"
     showgrid="false"
     fit-margin-top="0"
     fit-margin-left="0"
     fit-margin-right="0"
     fit-margin-bottom="0"
     inkscape:zoom="0.87215012"
     inkscape:cx="-209.39402"
     inkscape:cy="280.9244"
     inkscape:window-x="0"
     inkscape:window-y="60"
     inkscape:window-maximized="1"
     inkscape:current-layer="g10" /><g
     id="g10"
     inkscape:groupmode="layer"
     inkscape:label="moviinn_services02"
     transform="matrix(1.25,0,0,-1.25,-313.85354,628.23537)"><path
       d="m 433.863,290.531 -19.7,0 0,44.863 19.7,0 0,-44.863 z"
       style="fill:#3db5e6;fill-opacity:1;fill-rule:nonzero;stroke:none"
       id="path12"
       inkscape:connector-curvature="0" /><g
       id="g14"><g
         id="g16"
         clip-path="url(#clipPath18)"><g
           id="g22"
           transform="translate(434.7734,359.1387)"><path
             d="m 0,0 c 0,-5.768 -4.913,-10.446 -10.979,-10.446 -6.067,0 -10.986,4.678 -10.986,10.446 0,5.771 4.919,10.447 10.986,10.447 C -4.913,10.447 0,5.771 0,0"
             style="fill:#3db5e6;fill-opacity:1;fill-rule:nonzero;stroke:none"
             id="path24"
             inkscape:connector-curvature="0" /></g><g
           id="g26"
           transform="translate(433.792,335.3945)"><path
             d="m 0,0 c 0,-5.371 -4.398,-9.729 -9.812,-9.729 -5.423,0 -9.817,4.358 -9.817,9.729 0,5.375 4.394,9.734 9.817,9.734 C -4.398,9.734 0,5.375 0,0"
             style="fill:#3db5e6;fill-opacity:1;fill-rule:nonzero;stroke:none"
             id="path28"
             inkscape:connector-curvature="0" /></g><path
           d="m 459.907,264.648 -19.7,0 0,44.865 19.7,0 0,-44.865 z"
           style="fill:#3db5e6;fill-opacity:1;fill-rule:nonzero;stroke:none"
           id="path30"
           inkscape:connector-curvature="0" /><g
           id="g32"
           transform="translate(460.8125,333.2637)"><path
             d="m 0,0 c 0,-5.773 -4.913,-10.449 -10.985,-10.449 -6.067,0 -10.98,4.676 -10.98,10.449 0,5.772 4.913,10.441 10.98,10.441 C -4.913,10.441 0,5.772 0,0"
             style="fill:#3db5e6;fill-opacity:1;fill-rule:nonzero;stroke:none"
             id="path34"
             inkscape:connector-curvature="0" /></g><g
           id="g36"
           transform="translate(459.8721,309.5176)"><path
             d="m 0,0 c 0,-5.373 -4.396,-9.73 -9.812,-9.73 -5.424,0 -9.817,4.357 -9.817,9.73 0,5.381 4.393,9.732 9.817,9.732 C -4.396,9.732 0,5.381 0,0"
             style="fill:#3db5e6;fill-opacity:1;fill-rule:nonzero;stroke:none"
             id="path38"
             inkscape:connector-curvature="0" /></g><g
           id="g40"
           transform="translate(324.5039,313.7852)"><path
             d="M 0,0 C 0,64.064 51.936,116 116,116 180.064,116 232,64.064 232,0 232,-64.066 180.064,-116.002 116,-116.002 51.936,-116.002 0,-64.066 0,0 Z"
             style="fill:none;stroke:#3db5e6;stroke-width:4;stroke-linecap:butt;stroke-linejoin:miter;stroke-miterlimit:10;stroke-dasharray:none;stroke-opacity:1"
             id="path42"
             inkscape:connector-curvature="0" /></g><g
           id="g44"
           transform="translate(344.8994,389.8516)"><path
             d="m 0,0 c 21.99,27.412 55.594,45.101 93.351,45.605 l -0.36,66.106 C 34.317,111.092 -17.902,83.581 -51.932,40.911 L 0,0 Z"
             style="fill:#3db5e6;fill-opacity:1;fill-rule:nonzero;stroke:none"
             id="path46"
             inkscape:connector-curvature="0" /></g><g
           id="g48"
           transform="translate(344.8994,389.8516)"><path
             d="m 0,0 c 21.99,27.412 55.594,45.101 93.351,45.605 l -0.36,66.106 C 34.317,111.092 -17.902,83.581 -51.932,40.911 L 0,0 Z"
             style="fill:none;stroke:#ffffff;stroke-width:2;stroke-linecap:butt;stroke-linejoin:miter;stroke-miterlimit:10;stroke-dasharray:none;stroke-opacity:1"
             id="path50"
             inkscape:connector-curvature="0" /></g><g
           id="g52"
           transform="translate(441.1143,476.5205)"><path
             d="m 0,0 0.392,24.511 c -55.195,0.546 -110.113,-23.115 -147.663,-69.247 -0.008,-0.004 -0.01,-0.009 -0.014,-0.018 l 51.498,-41.459 c 24.251,29.627 59.584,44.87 95.13,44.623 l 0.332,20.947 c 5.407,-3.977 13.032,-3.065 17.316,2.201 4.421,5.425 3.601,13.407 -1.824,17.825 C 10.702,3.013 4.518,3.1 0,0"
             style="fill:#cee9f7;fill-opacity:1;fill-rule:nonzero;stroke:none"
             id="path54"
             inkscape:connector-curvature="0" /></g><g
           id="g56"
           transform="translate(441.1143,476.5205)"><path
             d="m 0,0 0.392,24.511 c -55.195,0.546 -110.113,-23.115 -147.663,-69.247 -0.008,-0.004 -0.01,-0.009 -0.014,-0.018 l 51.498,-41.459 c 24.251,29.627 59.584,44.87 95.13,44.623 l 0.332,20.947 c 5.407,-3.977 13.032,-3.065 17.316,2.201 4.421,5.425 3.601,13.407 -1.824,17.825 C 10.702,3.013 4.518,3.1 0,0 Z"
             style="fill:none;stroke:#ffffff;stroke-width:2;stroke-linecap:butt;stroke-linejoin:miter;stroke-miterlimit:10;stroke-dasharray:none;stroke-opacity:1"
             id="path58"
             inkscape:connector-curvature="0" /></g><g
           id="g60"
           transform="translate(312.7461,416.2588)"><path
             d="m 0,0 -18.998,15.491 c -34.621,-42.989 -50.07,-100.756 -37.122,-158.813 -0.001,-0.007 10e-4,-0.012 0.005,-0.02 l 64.449,14.74 c -8.232,37.392 1.691,74.57 23.907,102.321 l -16.237,13.237 c 6.471,1.78 10.479,8.332 9,14.956 C 23.482,8.743 16.711,13.045 9.881,11.521 4.266,10.267 0.365,5.467 0,0"
             style="fill:#bde1f5;fill-opacity:1;fill-rule:nonzero;stroke:none"
             id="path62"
             inkscape:connector-curvature="0" /></g><g
           id="g64"
           transform="translate(312.7461,416.2588)"><path
             d="m 0,0 -18.998,15.491 c -34.621,-42.989 -50.07,-100.756 -37.122,-158.813 -0.001,-0.007 10e-4,-0.012 0.005,-0.02 l 64.449,14.74 c -8.232,37.392 1.691,74.57 23.907,102.321 l -16.237,13.237 c 6.471,1.78 10.479,8.332 9,14.956 C 23.482,8.743 16.711,13.045 9.881,11.521 4.266,10.267 0.365,5.467 0,0 Z"
             style="fill:none;stroke:#ffffff;stroke-width:2;stroke-linecap:butt;stroke-linejoin:miter;stroke-miterlimit:10;stroke-dasharray:none;stroke-opacity:1"
             id="path66"
             inkscape:connector-curvature="0" /></g><g
           id="g68"
           transform="translate(280.9873,279.1992)"><path
             d="m 0,0 -23.947,-5.243 c 12.133,-53.844 47.761,-101.871 101.277,-127.837 0.006,-0.005 0.013,-0.008 0.019,-0.011 l 28.539,59.638 c -34.4,16.808 -57.339,47.7 -65.254,82.356 L 20.169,4.419 C 22.798,10.596 20.158,17.81 14.055,20.771 7.76,23.826 0.178,21.199 -2.876,14.902 -5.388,9.725 -4.051,3.685 0,0"
             style="fill:#acdaf4;fill-opacity:1;fill-rule:nonzero;stroke:none"
             id="path70"
             inkscape:connector-curvature="0" /></g><g
           id="g72"
           transform="translate(280.9873,279.1992)"><path
             d="m 0,0 -23.947,-5.243 c 12.133,-53.844 47.761,-101.871 101.277,-127.837 0.006,-0.005 0.013,-0.008 0.019,-0.011 l 28.539,59.638 c -34.4,16.808 -57.339,47.7 -65.254,82.356 L 20.169,4.419 C 22.798,10.596 20.158,17.81 14.055,20.771 7.76,23.826 0.178,21.199 -2.876,14.902 -5.388,9.725 -4.051,3.685 0,0 Z"
             style="fill:none;stroke:#ffffff;stroke-width:2;stroke-linecap:butt;stroke-linejoin:miter;stroke-miterlimit:10;stroke-dasharray:none;stroke-opacity:1"
             id="path74"
             inkscape:connector-curvature="0" /></g><g
           id="g76"
           transform="translate(368.5928,167.9971)"><path
             d="m 0,0 -10.861,-21.976 c 49.63,-24.156 109.387,-26.328 163.092,-0.752 0.007,0.001 0.012,0.005 0.019,0.009 L 123.501,36.816 C 88.889,20.449 50.434,21.828 18.426,37.293 L 9.146,18.512 C 5.966,24.422 -1.315,26.866 -7.442,23.947 -13.761,20.94 -16.444,13.379 -13.435,7.062 -10.959,1.867 -5.409,-0.863 0,0"
             style="fill:#9bd2f0;fill-opacity:1;fill-rule:nonzero;stroke:none"
             id="path78"
             inkscape:connector-curvature="0" /></g><g
           id="g80"
           transform="translate(368.5928,167.9971)"><path
             d="m 0,0 -10.861,-21.976 c 49.63,-24.156 109.387,-26.328 163.092,-0.752 0.007,0.001 0.012,0.005 0.019,0.009 L 123.501,36.816 C 88.889,20.449 50.434,21.828 18.426,37.293 L 9.146,18.512 C 5.966,24.422 -1.315,26.866 -7.442,23.947 -13.761,20.94 -16.444,13.379 -13.435,7.062 -10.959,1.867 -5.409,-0.863 0,0 Z"
             style="fill:none;stroke:#ffffff;stroke-width:2;stroke-linecap:butt;stroke-linejoin:miter;stroke-miterlimit:10;stroke-dasharray:none;stroke-opacity:1"
             id="path82"
             inkscape:connector-curvature="0" /></g><g
           id="g84"
           transform="translate(508.9336,167.3809)"><path
             d="m 0,0 10.38,-22.208 c 49.859,23.675 88.877,68.991 102.441,126.907 0.004,0.006 0.004,0.013 0.006,0.02 L 48.375,119.447 C 39.541,82.194 14.448,53.022 -17.62,37.683 L -8.745,18.705 C -15.349,19.911 -21.806,15.751 -23.353,9.144 -24.948,2.331 -20.72,-4.487 -13.905,-6.081 -8.302,-7.394 -2.704,-4.762 0,0"
             style="fill:#88cbef;fill-opacity:1;fill-rule:nonzero;stroke:none"
             id="path86"
             inkscape:connector-curvature="0" /></g><g
           id="g88"
           transform="translate(508.9336,167.3809)"><path
             d="m 0,0 10.38,-22.208 c 49.859,23.675 88.877,68.991 102.441,126.907 0.004,0.006 0.004,0.013 0.006,0.02 L 48.375,119.447 C 39.541,82.194 14.448,53.022 -17.62,37.683 L -8.745,18.705 C -15.349,19.911 -21.806,15.751 -23.353,9.144 -24.948,2.331 -20.72,-4.487 -13.905,-6.081 -8.302,-7.394 -2.704,-4.762 0,0 Z"
             style="fill:none;stroke:#ffffff;stroke-width:2;stroke-linecap:butt;stroke-linejoin:miter;stroke-miterlimit:10;stroke-dasharray:none;stroke-opacity:1"
             id="path90"
             inkscape:connector-curvature="0" /></g><g
           id="g92"
           transform="translate(598.1533,277.292)"><path
             d="m 0,0 23.826,-5.762 c 12.653,53.725 1.633,112.499 -35.126,159.267 -0.003,0.006 -0.008,0.01 -0.012,0.016 L -63.07,112.385 C -39.493,82.219 -32.384,44.401 -40.433,9.777 L -20.07,4.854 c -5.067,-4.403 -5.85,-12.043 -1.657,-17.378 4.325,-5.502 12.29,-6.457 17.791,-2.133 C 0.589,-11.1 2.031,-5.086 0,0"
             style="fill:#59bcea;fill-opacity:1;fill-rule:nonzero;stroke:none"
             id="path94"
             inkscape:connector-curvature="0" /></g><g
           id="g96"
           transform="translate(598.1533,277.292)"><path
             d="m 0,0 23.826,-5.762 c 12.653,53.725 1.633,112.499 -35.126,159.267 -0.003,0.006 -0.008,0.01 -0.012,0.016 L -63.07,112.385 C -39.493,82.219 -32.384,44.401 -40.433,9.777 L -20.07,4.854 c -5.067,-4.403 -5.85,-12.043 -1.657,-17.378 4.325,-5.502 12.29,-6.457 17.791,-2.133 C 0.589,-11.1 2.031,-5.086 0,0 Z"
             style="fill:none;stroke:#ffffff;stroke-width:2;stroke-linecap:butt;stroke-linejoin:miter;stroke-miterlimit:10;stroke-dasharray:none;stroke-opacity:1"
             id="path98"
             inkscape:connector-curvature="0" /></g><g
           id="g100"
           transform="translate(567.5811,415.6133)"><path
             d="m 0,0 19.254,15.173 c -34.421,43.146 -87.44,70.802 -146.924,70.802 l -0.02,0 0.358,-66.114 c 38.287,-0.104 72.413,-17.884 94.661,-45.607 l 16.453,12.966 c 0.331,-6.703 5.855,-12.041 12.64,-12.041 6.998,0 12.671,5.673 12.671,12.671 C 9.093,-6.396 5.254,-1.545 0,0"
             style="fill:#3db5e6;fill-opacity:1;fill-rule:nonzero;stroke:none"
             id="path102"
             inkscape:connector-curvature="0" /></g><g
           id="g104"
           transform="translate(567.5811,415.6133)"><path
             d="m 0,0 19.254,15.173 c -34.421,43.146 -87.44,70.802 -146.924,70.802 l -0.02,0 0.358,-66.114 c 38.287,-0.104 72.413,-17.884 94.661,-45.607 l 16.453,12.966 c 0.331,-6.703 5.855,-12.041 12.64,-12.041 6.998,0 12.671,5.673 12.671,12.671 C 9.093,-6.396 5.254,-1.545 0,0 Z"
             style="fill:none;stroke:#ffffff;stroke-width:2;stroke-linecap:butt;stroke-linejoin:miter;stroke-miterlimit:10;stroke-dasharray:none;stroke-opacity:1"
             id="path106"
             inkscape:connector-curvature="0" /></g><g
           id="g108"
           transform="translate(286.9619,318.2988)"><path
             d="M 0,0 0.015,0.238 C 0.063,1.043 -0.032,1.957 -1.063,2.021 -2.095,2.083 -2.301,1.187 -2.35,0.382 L -2.363,0.143 0,0 Z M 5.56,5.102 5.373,2.033 1.586,-0.071 1.584,-0.097 5.23,-0.318 5.081,-2.782 l -9.48,0.575 0.223,3.684 c 0.114,1.874 1.093,3.24 3.117,3.117 C 0.249,4.515 1.336,3.717 1.493,2.357 L 5.56,5.102 Z"
             style="fill:#3db5e6;fill-opacity:1;fill-rule:nonzero;stroke:none"
             id="path110"
             inkscape:connector-curvature="0" /></g><g
           id="g112"
           transform="translate(285.5186,327.2227)"><path
             d="M 0,0 1.578,-0.175 1.885,2.594 3.965,2.363 3.658,-0.405 5.286,-0.586 5.61,2.333 7.689,2.103 7.094,-3.271 -2.352,-2.225 -1.756,3.149 0.323,2.919 0,0 Z"
             style="fill:#3db5e6;fill-opacity:1;fill-rule:nonzero;stroke:none"
             id="path114"
             inkscape:connector-curvature="0" /></g><g
           id="g116"
           transform="translate(291.7227,333.5107)"><path
             d="M 0,0 0.456,2.927 2.522,2.604 1.687,-2.762 -7.701,-1.301 -7.321,1.14 0,0 Z"
             style="fill:#3db5e6;fill-opacity:1;fill-rule:nonzero;stroke:none"
             id="path118"
             inkscape:connector-curvature="0" /></g><g
           id="g120"
           transform="translate(289.9531,339.8516)"><path
             d="M 0,0 C 1.601,-0.343 3.024,0.589 3.333,2.029 3.642,3.47 2.726,4.903 1.125,5.246 -0.156,5.521 -1.579,4.589 -1.888,3.148 -2.197,1.708 -1.28,0.275 0,0 M 1.65,7.761 C 4.655,7.116 6.312,4.508 5.673,1.527 5.034,-1.452 2.454,-3.153 -0.551,-2.509 c -2.807,0.602 -4.25,3.487 -3.677,6.159 0.573,2.672 3.071,4.712 5.878,4.111"
             style="fill:#3db5e6;fill-opacity:1;fill-rule:nonzero;stroke:none"
             id="path122"
             inkscape:connector-curvature="0" /></g><g
           id="g124"
           transform="translate(292.4824,355.7949)"><path
             d="m 0,0 c -0.792,-0.301 -1.365,-0.99 -1.595,-1.803 -0.41,-1.456 0.429,-2.753 1.849,-3.152 1.443,-0.407 2.767,0.294 3.184,1.773 0.218,0.777 0.061,1.66 -0.393,2.324 L 5.896,-1.661 C 5.916,-2.519 5.937,-3.14 5.729,-3.88 5.37,-5.153 4.543,-6.229 3.415,-6.933 2.222,-7.684 0.903,-7.81 -0.456,-7.427 c -1.249,0.352 -2.316,1.163 -2.969,2.29 -0.669,1.158 -0.861,2.613 -0.499,3.899 0.216,0.763 0.584,1.42 1.073,2.041 L 0,0 Z"
             style="fill:#3db5e6;fill-opacity:1;fill-rule:nonzero;stroke:none"
             id="path126"
             inkscape:connector-curvature="0" /></g><g
           id="g128"
           transform="translate(294.1367,361.5215)"><path
             d="M 0,0 -0.009,-0.023 2.512,-1.984 3.188,-0.044 0,0 Z M 4.072,-3.249 5.416,-4.412 4.553,-6.888 -3.218,-0.307 -2.329,2.24 7.823,2.491 6.956,0.004 5.193,-0.036 4.072,-3.249 Z"
             style="fill:#3db5e6;fill-opacity:1;fill-rule:nonzero;stroke:none"
             id="path130"
             inkscape:connector-curvature="0" /></g><g
           id="g132"
           transform="translate(303.3916,367.3887)"><path
             d="m 0,0 -0.927,-2.288 -6.864,2.781 -0.766,-1.89 -1.938,0.785 2.46,6.07 L -6.098,4.672 -6.863,2.781 0,0 Z"
             style="fill:#3db5e6;fill-opacity:1;fill-rule:nonzero;stroke:none"
             id="path134"
             inkscape:connector-curvature="0" /></g><g
           id="g136"
           transform="translate(305.5234,372.2871)"><path
             d="M 0,0 -1.008,-2.255 -9.683,1.622 -8.675,3.877 0,0 Z"
             style="fill:#3db5e6;fill-opacity:1;fill-rule:nonzero;stroke:none"
             id="path138"
             inkscape:connector-curvature="0" /></g><g
           id="g140"
           transform="translate(302.6562,377.7695)"><path
             d="M 0,0 C 1.46,-0.742 3.075,-0.206 3.742,1.108 4.41,2.422 3.891,4.042 2.432,4.784 1.264,5.378 -0.352,4.842 -1.02,3.527 -1.687,2.214 -1.168,0.594 0,0 M 3.584,7.081 C 6.324,5.688 7.257,2.741 5.876,0.023 4.495,-2.694 1.564,-3.678 -1.176,-2.285 c -2.56,1.301 -3.216,4.46 -1.977,6.897 1.238,2.437 4.176,3.77 6.737,2.469"
             style="fill:#3db5e6;fill-opacity:1;fill-rule:nonzero;stroke:none"
             id="path142"
             inkscape:connector-curvature="0" /></g><g
           id="g144"
           transform="translate(302.9893,388.376)"><path
             d="M 0,0 1.276,2.114 8.589,2.983 8.603,3.005 3.629,6.009 4.906,8.123 13.04,3.21 11.763,1.096 4.439,0.233 4.427,0.212 9.411,-2.799 8.134,-4.913 0,0 Z"
             style="fill:#3db5e6;fill-opacity:1;fill-rule:nonzero;stroke:none"
             id="path146"
             inkscape:connector-curvature="0" /></g><g
           id="g148"
           transform="translate(339.082,432.0322)"><path
             d="M 0,0 1.929,1.54 9.085,-0.176 9.104,-0.16 5.481,4.377 7.41,5.917 13.336,-1.504 11.407,-3.044 4.243,-1.318 4.224,-1.334 7.854,-5.881 5.925,-7.421 0,0 Z"
             style="fill:#3db5e6;fill-opacity:1;fill-rule:nonzero;stroke:none"
             id="path150"
             inkscape:connector-curvature="0" /></g><g
           id="g152"
           transform="translate(351.3838,438.8506)"><path
             d="M 0,0 0.917,-1.296 3.189,0.312 4.397,-1.395 2.125,-3.003 3.071,-4.34 5.468,-2.644 6.676,-4.352 2.264,-7.474 -3.225,0.281 1.187,3.403 2.396,1.696 0,0 Z"
             style="fill:#3db5e6;fill-opacity:1;fill-rule:nonzero;stroke:none"
             id="path154"
             inkscape:connector-curvature="0" /></g><g
           id="g156"
           transform="translate(362.4248,437.3301)"><path
             d="M 0,0 -2.079,-1.334 -6.08,4.901 -7.798,3.799 -8.928,5.56 -3.413,9.099 -2.284,7.338 -4.002,6.235 0,0 Z"
             style="fill:#3db5e6;fill-opacity:1;fill-rule:nonzero;stroke:none"
             id="path158"
             inkscape:connector-curvature="0" /></g><g
           id="g160"
           transform="translate(365.9307,443.3994)"><path
             d="M 0,0 0.021,0.013 -1.19,6.353 0.533,7.3 5.126,2.818 5.147,2.83 3.759,9.073 6.013,10.312 7.929,0.519 5.72,-0.696 1.607,3.33 1.585,3.317 2.604,-2.409 0.406,-3.617 -6.659,3.346 -4.405,4.585 0,0 Z"
             style="fill:#3db5e6;fill-opacity:1;fill-rule:nonzero;stroke:none"
             id="path162"
             inkscape:connector-curvature="0" /></g><g
           id="g164"
           transform="translate(376.8633,450.8281)"><path
             d="M 0,0 C 0.669,-1.496 2.262,-2.096 3.607,-1.493 4.954,-0.892 5.569,0.694 4.901,2.19 4.366,3.387 2.773,3.986 1.428,3.385 0.081,2.783 -0.535,1.196 0,0 M 7.243,3.251 C 8.498,0.443 7.369,-2.436 4.585,-3.68 1.801,-4.924 -1.098,-3.845 -2.353,-1.038 -3.524,1.586 -2.046,4.455 0.45,5.57 2.947,6.687 6.07,5.874 7.243,3.251"
             style="fill:#3db5e6;fill-opacity:1;fill-rule:nonzero;stroke:none"
             id="path166"
             inkscape:connector-curvature="0" /></g><g
           id="g168"
           transform="translate(387.5703,455.6768)"><path
             d="M 0,0 0.225,0.083 C 0.98,0.363 1.778,0.82 1.419,1.789 1.06,2.758 0.157,2.584 -0.599,2.304 L -0.823,2.221 0,0 Z M 6.912,-3.025 4.03,-4.094 0.575,-1.479 0.552,-1.488 1.821,-4.913 -0.493,-5.771 -3.795,3.134 -0.335,4.417 C 1.425,5.069 3.07,4.726 3.775,2.824 4.231,1.596 3.94,0.278 2.76,-0.414 l 4.152,-2.611 z"
             style="fill:#3db5e6;fill-opacity:1;fill-rule:nonzero;stroke:none"
             id="path170"
             inkscape:connector-curvature="0" /></g><g
           id="g172"
           transform="translate(397.4805,463.4902)"><path
             d="M 0,0 2.93,0.891 0.62,-4.512 6.016,-8.1 2.954,-9.03 l -4.247,3.015 -0.024,-0.007 1.197,-3.942 -2.362,-0.718 -2.762,9.089 2.363,0.718 1.139,-3.749 0.024,0.008 L 0,0 Z"
             style="fill:#3db5e6;fill-opacity:1;fill-rule:nonzero;stroke:none"
             id="path174"
             inkscape:connector-curvature="0" /></g><g
           id="g176"
           transform="translate(406.457,456.0781)"><path
             d="M 0,0 -2.393,-0.613 -4.751,8.591 -2.358,9.204 0,0 Z"
             style="fill:#3db5e6;fill-opacity:1;fill-rule:nonzero;stroke:none"
             id="path178"
             inkscape:connector-curvature="0" /></g><g
           id="g180"
           transform="translate(406.0215,465.8057)"><path
             d="M 0,0 2.419,0.49 8.005,-4.302 8.029,-4.297 6.876,1.394 9.295,1.885 11.182,-7.423 8.763,-7.914 3.175,-3.109 3.15,-3.114 4.307,-8.817 1.887,-9.308 0,0 Z"
             style="fill:#3db5e6;fill-opacity:1;fill-rule:nonzero;stroke:none"
             id="path182"
             inkscape:connector-curvature="0" /></g><g
           id="g184"
           transform="translate(427.3506,465.0918)"><path
             d="m 0,0 c 0.153,-1.378 0.205,-2.565 -0.48,-3.849 -0.758,-1.407 -2.073,-2.148 -3.648,-2.352 -2.961,-0.384 -5.284,1.361 -5.667,4.323 -0.396,3.063 1.418,5.343 4.454,5.735 1.938,0.251 3.551,-0.429 4.591,-2.086 L -2.948,0.495 c -0.454,0.857 -1.244,1.364 -2.232,1.236 -1.612,-0.209 -2.25,-1.854 -2.064,-3.292 0.189,-1.461 1.257,-2.835 2.869,-2.626 1.062,0.137 1.803,0.791 1.763,1.892 l -2,-0.259 -0.249,1.925 L 0,0 Z"
             style="fill:#3db5e6;fill-opacity:1;fill-rule:nonzero;stroke:none"
             id="path186"
             inkscape:connector-curvature="0" /></g><g
           id="g188"
           transform="translate(486.8701,456.0732)"><path
             d="M 0,0 2.837,-0.85 2.236,-2.854 -2.966,-1.295 -0.239,7.806 2.127,7.097 0,0 Z"
             style="fill:#ffffff;fill-opacity:1;fill-rule:nonzero;stroke:none"
             id="path190"
             inkscape:connector-curvature="0" /></g><g
           id="g192"
           transform="translate(494.5361,459.1787)"><path
             d="M 0,0 -0.521,-1.499 2.108,-2.413 1.423,-4.389 -1.208,-3.475 -1.745,-5.022 1.027,-5.985 0.341,-7.962 -4.765,-6.187 -1.646,2.786 3.459,1.013 2.772,-0.963 0,0 Z"
             style="fill:#ffffff;fill-opacity:1;fill-rule:nonzero;stroke:none"
             id="path194"
             inkscape:connector-curvature="0" /></g><g
           id="g196"
           transform="translate(506.9775,452.041)"><path
             d="m 0,0 c -0.554,-1.271 -1.101,-2.327 -2.333,-3.098 -1.358,-0.842 -2.868,-0.831 -4.335,-0.223 -2.759,1.142 -3.904,3.812 -2.761,6.571 1.181,2.853 3.89,3.927 6.719,2.755 C -0.905,5.258 0.154,3.864 0.231,1.909 L -2.311,1.898 C -2.277,2.866 -2.71,3.7 -3.629,4.081 -5.131,4.703 -6.504,3.594 -7.059,2.255 -7.623,0.893 -7.382,-0.83 -5.88,-1.452 c 0.989,-0.409 1.959,-0.211 2.471,0.764 L -5.271,0.083 -4.529,1.876 0,0 Z"
             style="fill:#ffffff;fill-opacity:1;fill-rule:nonzero;stroke:none"
             id="path198"
             inkscape:connector-curvature="0" /></g><g
           id="g200"
           transform="translate(512.4609,450.752)"><path
             d="M 0,0 -0.023,0.011 -2.278,-2.247 -0.437,-3.157 0,0 Z m -3.726,-3.639 -1.318,-1.189 -2.349,1.162 7.486,6.895 2.416,-1.196 -1.004,-10.099 -2.36,1.167 0.178,1.753 -3.049,1.507 z"
             style="fill:#ffffff;fill-opacity:1;fill-rule:nonzero;stroke:none"
             id="path202"
             inkscape:connector-curvature="0" /></g><g
           id="g204"
           transform="translate(517.6914,442.9238)"><path
             d="M 0,0 2.582,-1.452 1.557,-3.275 -3.179,-0.612 1.48,7.672 3.634,6.46 0,0 Z"
             style="fill:#ffffff;fill-opacity:1;fill-rule:nonzero;stroke:none"
             id="path206"
             inkscape:connector-curvature="0" /></g><g
           id="g208"
           transform="translate(578.9102,374.4072)"><path
             d="M 0,0 -1.079,2.223 5.587,5.461 4.694,7.298 6.576,8.212 9.44,2.317 7.559,1.402 6.666,3.239 0,0 Z"
             style="fill:#ffffff;fill-opacity:1;fill-rule:nonzero;stroke:none"
             id="path210"
             inkscape:connector-curvature="0" /></g><g
           id="g212"
           transform="translate(587.502,371.3145)"><path
             d="M 0,0 -0.01,0.022 -3.193,-0.225 -2.388,-2.114 0,0 Z m -5.199,-0.34 -1.777,-0.045 -1.028,2.412 10.178,0.366 1.057,-2.482 -7.339,-7.021 -1.034,2.423 1.277,1.216 -1.334,3.131 z"
             style="fill:#ffffff;fill-opacity:1;fill-rule:nonzero;stroke:none"
             id="path214"
             inkscape:connector-curvature="0" /></g><g
           id="g216"
           transform="translate(592.4824,366.9775)"><path
             d="m 0,0 1.007,-2.864 -1.837,-2.183 2.799,-0.552 1.008,-2.864 -5.18,1.397 -3.624,-5.001 -0.987,2.805 2.263,2.907 -3.647,1.028 -0.99,2.816 6.023,-1.821 L 0,0 Z"
             style="fill:#ffffff;fill-opacity:1;fill-rule:nonzero;stroke:none"
             id="path218"
             inkscape:connector-curvature="0" /></g><g
           id="g220"
           transform="translate(594.2227,352.1406)"><path
             d="M 0,0 -0.007,0.024 -3.192,0.194 -2.641,-1.783 0,0 Z M -5.195,0.341 -6.96,0.528 -7.665,3.052 2.464,2.088 l 0.724,-2.596 -8.184,-6 -0.707,2.535 1.423,1.039 -0.915,3.275 z"
             style="fill:#ffffff;fill-opacity:1;fill-rule:nonzero;stroke:none"
             id="path222"
             inkscape:connector-curvature="0" /></g><g
           id="g224"
           transform="translate(589.9932,342.002)"><path
             d="M 0,0 -0.548,2.407 6.675,4.049 6.223,6.039 8.262,6.502 9.714,0.115 7.675,-0.349 7.223,1.642 0,0 Z"
             style="fill:#ffffff;fill-opacity:1;fill-rule:nonzero;stroke:none"
             id="path226"
             inkscape:connector-curvature="0" /></g><g
           id="g228"
           transform="translate(591.0322,336.7891)"><path
             d="M 0,0 -0.461,2.426 8.87,4.197 9.33,1.772 0,0 Z"
             style="fill:#ffffff;fill-opacity:1;fill-rule:nonzero;stroke:none"
             id="path230"
             inkscape:connector-curvature="0" /></g><g
           id="g232"
           transform="translate(596.5186,333.9111)"><path
             d="m 0,0 c -1.623,-0.225 -2.644,-1.586 -2.441,-3.047 0.202,-1.46 1.552,-2.494 3.175,-2.27 1.298,0.179 2.319,1.541 2.117,3.002 C 2.649,-0.855 1.298,0.18 0,0 m 1.099,-7.862 c -3.046,-0.42 -5.495,1.467 -5.911,4.488 -0.418,3.02 1.427,5.501 4.472,5.922 C 2.507,2.941 4.849,0.721 5.223,-1.988 5.597,-4.696 3.944,-7.469 1.099,-7.862"
             style="fill:#ffffff;fill-opacity:1;fill-rule:nonzero;stroke:none"
             id="path234"
             inkscape:connector-curvature="0" /></g><g
           id="g236"
           transform="translate(602.3018,325.0029)"><path
             d="m 0,0 0.161,-2.464 -5.5,-4.893 0.001,-0.026 5.797,0.38 0.161,-2.465 -9.48,-0.621 -0.161,2.465 5.512,4.895 -10e-4,0.024 -5.809,-0.38 L -9.48,-0.621 0,0 Z"
             style="fill:#ffffff;fill-opacity:1;fill-rule:nonzero;stroke:none"
             id="path238"
             inkscape:connector-curvature="0" /></g><g
           id="g240"
           transform="translate(304.3174,319.8359)"><path
             d="M 0,0 0.23,2.953 2.316,2.79 1.893,-2.625 -7.579,-1.884 -7.386,0.578 0,0 Z"
             style="fill:#3db5e6;fill-opacity:1;fill-rule:nonzero;stroke:none"
             id="path242"
             inkscape:connector-curvature="0" /></g><g
           id="g244"
           transform="translate(302.0908,326.0752)"><path
             d="M 0,0 C 1.622,-0.23 2.976,0.798 3.185,2.257 3.393,3.716 2.379,5.081 0.758,5.312 -0.539,5.497 -1.895,4.47 -2.103,3.011 -2.311,1.552 -1.297,0.186 0,0 M 1.108,7.858 C 4.15,7.424 5.983,4.936 5.554,1.919 5.123,-1.1 2.667,-2.975 -0.375,-2.541 c -2.843,0.404 -4.481,3.184 -4.096,5.89 0.385,2.705 2.737,4.916 5.579,4.509"
             style="fill:#3db5e6;fill-opacity:1;fill-rule:nonzero;stroke:none"
             id="path246"
             inkscape:connector-curvature="0" /></g><g
           id="g248"
           transform="translate(305.1836,344.6123)"><path
             d="m 0,0 c 1.346,-0.327 2.479,-0.686 3.449,-1.769 1.063,-1.192 1.309,-2.68 0.961,-4.229 -0.653,-2.911 -3.087,-4.495 -5.999,-3.842 -3.011,0.677 -4.532,3.16 -3.861,6.147 0.428,1.904 1.619,3.185 3.531,3.595 l 0.445,-2.5 c -0.959,-0.133 -1.706,-0.701 -1.924,-1.673 -0.356,-1.584 0.97,-2.748 2.383,-3.064 1.438,-0.323 3.094,0.209 3.45,1.794 0.234,1.044 -0.127,1.965 -1.174,2.303 L 0.818,-5.204 -1.074,-4.779 0,0 Z"
             style="fill:#3db5e6;fill-opacity:1;fill-rule:nonzero;stroke:none"
             id="path250"
             inkscape:connector-curvature="0" /></g><g
           id="g252"
           transform="translate(311.3838,346.8232)"><path
             d="M 0,0 -0.67,-2.378 -9.817,0.199 -9.147,2.576 0,0 Z"
             style="fill:#3db5e6;fill-opacity:1;fill-rule:nonzero;stroke:none"
             id="path254"
             inkscape:connector-curvature="0" /></g><g
           id="g256"
           transform="translate(306.7178,355.4561)"><path
             d="m 0,0 c -0.502,-0.313 -0.922,-0.784 -1.111,-1.359 -0.142,-0.432 -0.079,-1.089 0.423,-1.255 0.527,-0.173 0.939,0.395 1.206,0.76 l 0.376,0.539 C 1.679,-0.182 2.632,0.58 4.092,0.1 4.99,-0.196 5.842,-0.715 6.216,-1.634 6.582,-2.537 6.523,-3.565 6.223,-4.477 5.849,-5.614 5.1,-6.602 4.149,-7.31 L 2.59,-5.683 c 0.706,0.418 1.353,0.975 1.618,1.777 0.181,0.551 0.099,1.228 -0.536,1.437 C 3.015,-2.252 2.483,-3.1 2.174,-3.556 1.271,-4.891 0.568,-5.734 -1.181,-5.158 c -1.832,0.602 -2.599,2.301 -2.004,4.11 0.298,0.908 0.953,1.928 1.671,2.58 L 0,0 Z"
             style="fill:#3db5e6;fill-opacity:1;fill-rule:nonzero;stroke:none"
             id="path258"
             inkscape:connector-curvature="0" /></g><g
           id="g260"
           transform="translate(315.6064,359.0625)"><path
             d="m 0,0 -0.895,-2.301 -6.904,2.687 -0.74,-1.903 -1.949,0.759 2.377,6.106 L -6.163,4.589 -6.903,2.687 0,0 Z"
             style="fill:#3db5e6;fill-opacity:1;fill-rule:nonzero;stroke:none"
             id="path262"
             inkscape:connector-curvature="0" /></g><g
           id="g264"
           transform="translate(317.6807,363.9658)"><path
             d="M 0,0 -0.985,-2.264 -9.694,1.529 -8.708,3.793 0,0 Z"
             style="fill:#3db5e6;fill-opacity:1;fill-rule:nonzero;stroke:none"
             id="path266"
             inkscape:connector-curvature="0" /></g><g
           id="g268"
           transform="translate(315.5879,374.2314)"><path
             d="m 0,0 c -0.832,-0.154 -1.521,-0.728 -1.892,-1.485 -0.665,-1.359 -0.072,-2.785 1.252,-3.433 1.346,-0.659 2.774,-0.207 3.449,1.173 0.354,0.724 0.358,1.62 0.031,2.356 L 5.499,-2.691 C 5.365,-3.537 5.274,-4.152 4.937,-4.842 4.355,-6.03 3.349,-6.94 2.114,-7.429 0.806,-7.953 -0.514,-7.84 -1.78,-7.22 c -1.166,0.57 -2.071,1.559 -2.51,2.783 -0.45,1.259 -0.378,2.724 0.209,3.923 0.349,0.713 0.829,1.292 1.422,1.816 L 0,0 Z"
             style="fill:#3db5e6;fill-opacity:1;fill-rule:nonzero;stroke:none"
             id="path270"
             inkscape:connector-curvature="0" /></g><g
           id="g272"
           transform="translate(318.3486,380.7158)"><path
             d="m 0,0 c -0.553,-0.209 -1.058,-0.591 -1.355,-1.116 -0.224,-0.395 -0.291,-1.053 0.17,-1.314 0.484,-0.272 0.999,0.204 1.331,0.51 l 0.474,0.455 c 0.991,0.96 2.075,1.521 3.414,0.764 0.823,-0.465 1.557,-1.14 1.744,-2.113 C 5.962,-3.772 5.702,-4.771 5.231,-5.604 4.643,-6.647 3.714,-7.469 2.645,-7.979 l -1.214,1.901 c 0.777,0.27 1.52,0.689 1.935,1.426 0.284,0.506 0.336,1.185 -0.245,1.513 -0.603,0.341 -1.29,-0.385 -1.682,-0.772 -1.147,-1.134 -2.001,-1.823 -3.603,-0.919 -1.678,0.949 -2.1,2.766 -1.164,4.422 0.472,0.835 1.31,1.707 2.143,2.207 L 0,0 Z"
             style="fill:#3db5e6;fill-opacity:1;fill-rule:nonzero;stroke:none"
             id="path274"
             inkscape:connector-curvature="0" /></g><g
           id="g276"
           transform="translate(516.8574,197.4883)"><path
             d="m 0,0 0.199,0.134 c 0.669,0.45 1.337,1.082 0.76,1.939 -0.576,0.858 -1.414,0.476 -2.083,0.026 L -1.322,1.965 0,0 Z M 7.432,-1.316 4.881,-3.032 0.907,-1.303 0.887,-1.316 2.927,-4.348 0.878,-5.727 -4.426,2.154 -1.363,4.216 C 0.194,5.264 1.875,5.316 3.007,3.634 3.738,2.547 3.766,1.198 2.78,0.246 l 4.652,-1.562 z"
             style="fill:#ffffff;fill-opacity:1;fill-rule:nonzero;stroke:none"
             id="path278"
             inkscape:connector-curvature="0" /></g><g
           id="g280"
           transform="translate(522.5371,204.1758)"><path
             d="M 0,0 0.962,-1.263 3.177,0.424 4.443,-1.241 2.229,-2.927 3.22,-4.23 5.556,-2.452 6.822,-4.116 2.521,-7.39 -3.231,0.169 1.069,3.442 2.336,1.778 0,0 Z"
             style="fill:#ffffff;fill-opacity:1;fill-rule:nonzero;stroke:none"
             id="path282"
             inkscape:connector-curvature="0" /></g><g
           id="g284"
           transform="translate(529.6895,208.8828)"><path
             d="M 0,0 -0.02,-0.017 1.186,-2.973 2.74,-1.63 0,0 Z M 1.907,-4.849 2.49,-6.526 0.507,-8.24 -2.94,1.34 -0.899,3.104 8.021,-1.747 6.028,-3.469 4.481,-2.624 1.907,-4.849 Z"
             style="fill:#ffffff;fill-opacity:1;fill-rule:nonzero;stroke:none"
             id="path286"
             inkscape:connector-curvature="0" /></g><g
           id="g288"
           transform="translate(538.7744,211.1445)"><path
             d="M 0,0 2.123,2.066 3.582,0.566 -0.312,-3.222 -6.938,3.59 -5.168,5.312 0,0 Z"
             style="fill:#ffffff;fill-opacity:1;fill-rule:nonzero;stroke:none"
             id="path290"
             inkscape:connector-curvature="0" /></g><g
           id="g292"
           transform="translate(542.2207,222.5039)"><path
             d="M 0,0 1.196,-1.046 3.03,1.052 4.606,-0.326 2.771,-2.424 4.006,-3.503 5.939,-1.292 7.516,-2.67 3.954,-6.741 -3.202,-0.482 0.359,3.589 1.935,2.211 0,0 Z"
             style="fill:#ffffff;fill-opacity:1;fill-rule:nonzero;stroke:none"
             id="path294"
             inkscape:connector-curvature="0" /></g><g
           id="g296"
           transform="translate(548.5713,229.6934)"><path
             d="m 0,0 c -0.577,-0.124 -1.133,-0.425 -1.506,-0.9 -0.279,-0.358 -0.443,-0.996 -0.027,-1.323 0.436,-0.341 1.016,0.052 1.389,0.304 l 0.538,0.379 c 1.123,0.801 2.278,1.192 3.488,0.245 C 4.626,-1.878 5.249,-2.654 5.289,-3.646 5.327,-4.619 4.922,-5.565 4.331,-6.319 3.594,-7.262 2.554,-7.936 1.42,-8.279 L 0.506,-6.22 c 0.806,0.153 1.604,0.456 2.125,1.12 0.357,0.456 0.51,1.121 -0.017,1.533 -0.545,0.427 -1.332,-0.189 -1.777,-0.512 -1.302,-0.948 -2.248,-1.503 -3.696,-0.369 -1.518,1.188 -1.663,3.046 -0.491,4.544 0.591,0.754 1.551,1.489 2.449,1.859 L 0,0 Z"
             style="fill:#ffffff;fill-opacity:1;fill-rule:nonzero;stroke:none"
             id="path298"
             inkscape:connector-curvature="0" /></g><g
           id="g300"
           transform="translate(557.9902,230.7217)"><path
             d="M 0,0 -1.414,-2.024 -7.488,2.22 -8.658,0.546 -10.373,1.744 -6.619,7.116 -4.904,5.918 -6.074,4.244 0,0 Z"
             style="fill:#ffffff;fill-opacity:1;fill-rule:nonzero;stroke:none"
             id="path302"
             inkscape:connector-curvature="0" /></g><g
           id="g304"
           transform="translate(556.0361,239.7432)"><path
             d="M 0,0 -0.013,-0.021 2.021,-2.482 3.103,-0.736 0,0 Z M 3.269,-4.057 4.327,-5.482 2.946,-7.711 -3.206,0.4 -1.785,2.692 8.177,0.729 6.789,-1.509 5.061,-1.164 3.269,-4.057 Z"
             style="fill:#ffffff;fill-opacity:1;fill-rule:nonzero;stroke:none"
             id="path306"
             inkscape:connector-curvature="0" /></g><g
           id="g308"
           transform="translate(566.1211,244.1045)"><path
             d="m 0,0 -1.182,-2.168 -6.505,3.544 -0.976,-1.792 -1.836,1.001 3.134,5.752 1.836,-1 L -6.505,3.544 0,0 Z"
             style="fill:#ffffff;fill-opacity:1;fill-rule:nonzero;stroke:none"
             id="path310"
             inkscape:connector-curvature="0" /></g><g
           id="g312"
           transform="translate(562.0059,252.3945)"><path
             d="M 0,0 1.432,-0.686 2.636,1.826 4.522,0.922 3.319,-1.59 4.797,-2.298 6.066,0.351 7.953,-0.554 5.616,-5.431 -2.955,-1.323 -0.618,3.554 1.269,2.649 0,0 Z"
             style="fill:#ffffff;fill-opacity:1;fill-rule:nonzero;stroke:none"
             id="path314"
             inkscape:connector-curvature="0" /></g><g
           id="g316"
           transform="translate(303.7432,257.3467)"><path
             d="m 0,0 c 0.476,0.701 0.55,1.595 0.271,2.391 -0.5,1.426 -1.931,2.005 -3.322,1.518 -1.415,-0.496 -2.095,-1.828 -1.587,-3.278 0.266,-0.761 0.902,-1.393 1.655,-1.676 l -2.793,-0.979 c -0.509,0.689 -0.883,1.185 -1.137,1.911 -0.438,1.248 -0.379,2.603 0.141,3.826 0.545,1.299 1.551,2.159 2.883,2.625 1.224,0.43 2.564,0.378 3.743,-0.169 C 1.065,5.605 2.058,4.525 2.5,3.266 2.762,2.517 2.837,1.769 2.794,0.979 L 0,0 Z"
             style="fill:#3db5e6;fill-opacity:1;fill-rule:nonzero;stroke:none"
             id="path318"
             inkscape:connector-curvature="0" /></g><g
           id="g320"
           transform="translate(303.7734,253.4922)"><path
             d="M 0,0 C -1.508,-0.643 -2.135,-2.226 -1.557,-3.582 -0.979,-4.939 0.598,-5.583 2.105,-4.94 3.312,-4.426 3.938,-2.843 3.36,-1.486 2.782,-0.129 1.206,0.515 0,0 m 3.126,-7.301 c -2.83,-1.206 -5.689,-0.027 -6.886,2.78 -1.196,2.806 -0.067,5.685 2.763,6.892 C 1.646,3.498 4.491,1.97 5.563,-0.547 6.637,-3.063 5.77,-6.174 3.126,-7.301"
             style="fill:#3db5e6;fill-opacity:1;fill-rule:nonzero;stroke:none"
             id="path322"
             inkscape:connector-curvature="0" /></g><g
           id="g324"
           transform="translate(310.7979,242.1729)"><path
             d="M 0,0 -0.011,0.022 -3.169,-0.45 -2.231,-2.278 0,0 Z M -5.162,-0.707 -6.93,-0.878 -8.127,1.455 1.998,2.54 l 1.231,-2.4 -6.823,-7.523 -1.202,2.344 1.188,1.304 -1.554,3.028 z"
             style="fill:#3db5e6;fill-opacity:1;fill-rule:nonzero;stroke:none"
             id="path326"
             inkscape:connector-curvature="0" /></g><g
           id="g328"
           transform="translate(316.6699,231.2285)"><path
             d="m 0,0 c 0.328,0.78 0.225,1.671 -0.206,2.396 -0.771,1.3 -2.288,1.587 -3.556,0.835 -1.289,-0.764 -1.694,-2.205 -0.91,-3.526 0.411,-0.693 1.158,-1.187 1.952,-1.317 l -2.546,-1.51 c -0.633,0.576 -1.098,0.988 -1.49,1.649 -0.675,1.138 -0.884,2.478 -0.615,3.78 0.279,1.381 1.097,2.422 2.309,3.141 1.117,0.661 2.44,0.875 3.704,0.571 C -0.06,5.705 1.126,4.842 1.808,3.693 2.212,3.011 2.433,2.292 2.546,1.51 L 0,0 Z"
             style="fill:#3db5e6;fill-opacity:1;fill-rule:nonzero;stroke:none"
             id="path330"
             inkscape:connector-curvature="0" /></g><g
           id="g332"
           transform="translate(320.4385,224.7021)"><path
             d="m 0,0 3.032,2.061 1.388,-2.043 -7.858,-5.339 -1.387,2.043 3.22,2.187 -2.003,2.95 -3.221,-2.188 -1.388,2.043 7.859,5.338 L 1.029,5.01 -2.004,2.949 0,0 Z"
             style="fill:#3db5e6;fill-opacity:1;fill-rule:nonzero;stroke:none"
             id="path334"
             inkscape:connector-curvature="0" /></g><g
           id="g336"
           transform="translate(319.6279,215.9258)"><path
             d="M 0,0 -1.483,1.974 6.11,7.68 7.594,5.706 0,0 Z"
             style="fill:#3db5e6;fill-opacity:1;fill-rule:nonzero;stroke:none"
             id="path338"
             inkscape:connector-curvature="0" /></g><g
           id="g340"
           transform="translate(328.0273,220.4707)"><path
             d="m 0,0 1.582,-1.896 -1.561,-7.194 0.015,-0.019 4.46,3.72 1.582,-1.895 -7.294,-6.086 -1.582,1.895 1.571,7.203 -0.015,0.019 -4.47,-3.729 -1.582,1.896 L 0,0 Z"
             style="fill:#3db5e6;fill-opacity:1;fill-rule:nonzero;stroke:none"
             id="path342"
             inkscape:connector-curvature="0" /></g><g
           id="g344"
           transform="translate(338.5566,202.4502)"><path
             d="m 0,0 c -1.017,-0.943 -1.939,-1.692 -3.379,-1.906 -1.582,-0.229 -2.961,0.385 -4.062,1.529 -2.073,2.151 -2.054,5.058 0.098,7.13 2.224,2.142 5.137,2.042 7.262,-0.164 C 1.274,5.182 1.687,3.48 0.976,1.657 L -1.358,2.664 C -0.941,3.539 -1.004,4.476 -1.694,5.193 -2.822,6.364 -4.524,5.897 -5.568,4.892 -6.631,3.869 -7.1,2.193 -5.972,1.021 -5.229,0.25 -4.261,0.045 -3.4,0.732 L -4.8,2.186 -3.401,3.532 0,0 Z"
             style="fill:#3db5e6;fill-opacity:1;fill-rule:nonzero;stroke:none"
             id="path346"
             inkscape:connector-curvature="0" /></g><g
           id="g348"
           transform="translate(388.2646,175.0039)"><path
             d="m 0,0 -2.501,-5.902 c -0.781,-1.844 -2.265,-2.665 -4.201,-1.845 -0.975,0.413 -1.522,1.219 -1.704,2.24 l 1.894,0.825 c 0.109,-0.456 0.301,-1.003 0.602,-1.13 0.673,-0.286 0.989,0.525 1.195,1.012 L -2.273,0.963 0,0 Z"
             style="fill:#ffffff;fill-opacity:1;fill-rule:nonzero;stroke:none"
             id="path350"
             inkscape:connector-curvature="0" /></g><g
           id="g352"
           transform="translate(389.9248,169.4316)"><path
             d="M 0,0 C -0.55,-1.543 0.188,-3.076 1.577,-3.571 2.967,-4.065 4.508,-3.344 5.057,-1.8 5.497,-0.565 4.759,0.968 3.369,1.463 1.98,1.957 0.439,1.235 0,0 M 7.483,-2.65 C 6.452,-5.547 3.647,-6.85 0.774,-5.826 -2.099,-4.804 -3.449,-2.022 -2.418,0.875 -1.454,3.581 1.597,4.636 4.173,3.718 6.749,2.801 8.446,0.057 7.483,-2.65"
             style="fill:#ffffff;fill-opacity:1;fill-rule:nonzero;stroke:none"
             id="path354"
             inkscape:connector-curvature="0" /></g><g
           id="g356"
           transform="translate(401.1689,166.6191)"><path
             d="M 0,0 0.267,-0.075 C 0.897,-0.254 1.583,-0.33 1.803,0.446 2.04,1.283 1.313,1.541 0.671,1.724 L 0.501,1.771 0,0 Z m -1.058,-3.736 0.304,-0.086 c 0.703,-0.199 1.882,-0.572 2.167,0.435 0.313,1.104 -0.895,1.327 -1.672,1.547 l -0.242,0.069 -0.557,-1.965 z M -3.95,-4.883 -1.361,4.264 2.035,3.303 C 3.66,2.843 4.574,1.902 4.079,0.156 3.846,-0.669 3.391,-1.261 2.544,-1.428 L 2.537,-1.451 C 3.799,-1.992 4.106,-3.036 3.746,-4.31 3.203,-6.227 1.388,-6.394 -0.287,-5.92 l -3.663,1.037 z"
             style="fill:#ffffff;fill-opacity:1;fill-rule:nonzero;stroke:none"
             id="path358"
             inkscape:connector-curvature="0" /></g><g
           id="g360"
           transform="translate(417.1475,162.9941)"><path
             d="m 0,0 0.667,3.605 2.428,-0.449 -1.726,-9.342 -2.429,0.449 0.708,3.829 -3.506,0.647 -0.707,-3.828 -2.429,0.448 1.725,9.342 L -2.84,4.253 -3.506,0.647 0,0 Z"
             style="fill:#ffffff;fill-opacity:1;fill-rule:nonzero;stroke:none"
             id="path362"
             inkscape:connector-curvature="0" /></g><g
           id="g364"
           transform="translate(429.7617,164.9893)"><path
             d="m 0,0 -0.621,-5.306 c -0.142,-1.214 -0.332,-2.409 -1.378,-3.213 -0.879,-0.682 -2.149,-0.813 -3.251,-0.684 -1.101,0.129 -2.308,0.55 -3.005,1.417 -0.831,1.023 -0.741,2.23 -0.599,3.444 l 0.622,5.306 2.452,-0.287 -0.581,-4.968 c -0.145,-1.227 -0.213,-2.575 1.363,-2.76 1.576,-0.184 1.821,1.144 1.965,2.37 L -2.452,0.287 0,0 Z"
             style="fill:#ffffff;fill-opacity:1;fill-rule:nonzero;stroke:none"
             id="path366"
             inkscape:connector-curvature="0" /></g><g
           id="g368"
           transform="translate(431.0693,164.8662)"><path
             d="M 0,0 2.468,-0.117 6.713,-6.134 6.738,-6.135 7.013,-0.332 9.479,-0.448 9.031,-9.94 6.563,-9.823 2.319,-3.794 2.294,-3.793 2.02,-9.608 -0.448,-9.492 0,0 Z"
             style="fill:#ffffff;fill-opacity:1;fill-rule:nonzero;stroke:none"
             id="path370"
             inkscape:connector-curvature="0" /></g><g
           id="g372"
           transform="translate(445.8096,155.0117)"><path
             d="M 0,0 -2.471,-0.039 -2.587,7.372 -4.629,7.34 -4.662,9.433 1.893,9.535 1.925,7.443 -0.117,7.411 0,0 Z"
             style="fill:#ffffff;fill-opacity:1;fill-rule:nonzero;stroke:none"
             id="path374"
             inkscape:connector-curvature="0" /></g><g
           id="g376"
           transform="translate(451.376,155.2148)"><path
             d="M 0,0 -2.468,-0.116 -2.916,9.376 -0.449,9.492 0,0 Z"
             style="fill:#ffffff;fill-opacity:1;fill-rule:nonzero;stroke:none"
             id="path378"
             inkscape:connector-curvature="0" /></g><g
           id="g380"
           transform="translate(452.3545,164.7236)"><path
             d="M 0,0 2.458,0.242 7.53,-5.096 7.556,-5.094 6.986,0.688 9.444,0.931 10.376,-8.526 7.918,-8.769 2.844,-3.418 2.819,-3.42 3.39,-9.215 0.932,-9.457 0,0 Z"
             style="fill:#ffffff;fill-opacity:1;fill-rule:nonzero;stroke:none"
             id="path382"
             inkscape:connector-curvature="0" /></g><g
           id="g384"
           transform="translate(473.1816,163.3086)"><path
             d="m 0,0 c 0.21,-1.371 0.312,-2.556 -0.32,-3.866 -0.7,-1.438 -1.982,-2.234 -3.547,-2.503 -2.944,-0.506 -5.337,1.141 -5.843,4.085 -0.523,3.043 1.194,5.397 4.213,5.916 1.925,0.332 3.564,-0.281 4.674,-1.894 L -2.968,0.372 c -0.488,0.836 -1.299,1.311 -2.28,1.142 -1.603,-0.276 -2.172,-1.947 -1.926,-3.375 0.25,-1.453 1.373,-2.782 2.976,-2.506 1.055,0.181 1.768,0.867 1.682,1.965 L -4.503,-2.744 -4.832,-0.831 0,0 Z"
             style="fill:#ffffff;fill-opacity:1;fill-rule:nonzero;stroke:none"
             id="path386"
             inkscape:connector-curvature="0" /></g><g
           id="g388"
           transform="translate(529.1387,186.1621)"><path
             d="m 0,0 c -0.182,-0.439 -0.377,-1.013 -0.069,-1.443 0.329,-0.461 0.966,-0.378 1.377,-0.085 0.379,0.27 0.663,0.674 0.849,1.087 L 0,0 Z M -0.327,3.73 C -0.605,4.12 -1.106,4.258 -1.517,3.965 -1.875,3.709 -1.979,3.247 -1.709,2.867 -1.437,2.488 -0.814,2.375 -0.371,2.274 -0.162,2.719 -0.027,3.311 -0.327,3.73 M 4.111,-0.857 C 3.716,-1.93 3.059,-3.004 2.125,-3.67 c -1.333,-0.952 -3.053,-0.973 -4.063,0.442 -0.828,1.16 -0.544,2.214 0.123,3.34 l 0.126,0.214 -0.326,0.109 C -2.502,0.598 -3.074,0.746 -3.527,1.383 -4.48,2.715 -3.885,4.332 -2.645,5.219 -1.414,6.098 0.332,6.168 1.277,4.846 1.965,3.881 1.682,2.936 1.167,1.964 L 2.873,1.635 C 3.012,2.244 3.111,2.842 3.105,3.457 L 5.02,3.183 4.793,1.441 4.766,1.283 7.803,0.695 5.291,-1.1 4.111,-0.857 Z"
             style="fill:#ffffff;fill-opacity:1;fill-rule:nonzero;stroke:none"
             id="path390"
             inkscape:connector-curvature="0" /></g><g
           id="g392"
           transform="translate(542.0586,198.7979)"><path
             d="m 0,0 -2.415,2.758 1.857,1.627 6.259,-7.146 -1.857,-1.627 -2.566,2.929 -2.681,-2.35 2.565,-2.927 -1.857,-1.627 -6.259,7.144 1.857,1.627 2.415,-2.757 L 0,0 Z"
             style="fill:#ffffff;fill-opacity:1;fill-rule:nonzero;stroke:none"
             id="path394"
             inkscape:connector-curvature="0" /></g><g
           id="g396"
           transform="translate(547.2275,202.3516)"><path
             d="M 0,0 C 1.164,-1.152 2.866,-1.135 3.903,-0.087 4.94,0.961 4.941,2.663 3.776,3.815 2.845,4.737 1.144,4.72 0.105,3.672 -0.932,2.624 -0.932,0.922 0,0 M 5.576,5.651 C 7.762,3.488 7.751,0.396 5.605,-1.771 3.46,-3.938 0.368,-3.981 -1.817,-1.818 -3.859,0.203 -3.52,3.413 -1.596,5.356 0.328,7.3 3.534,7.673 5.576,5.651"
             style="fill:#ffffff;fill-opacity:1;fill-rule:nonzero;stroke:none"
             id="path398"
             inkscape:connector-curvature="0" /></g><g
           id="g400"
           transform="translate(555.5029,218.1367)"><path
             d="m 0,0 4.05,-3.487 c 0.927,-0.798 1.81,-1.625 1.891,-2.943 0.074,-1.111 -0.53,-2.238 -1.254,-3.079 -0.723,-0.84 -1.748,-1.604 -2.858,-1.696 -1.314,-0.116 -2.265,0.635 -3.191,1.433 l -4.05,3.487 1.612,1.872 3.792,-3.265 c 0.937,-0.806 2.016,-1.619 3.052,-0.416 1.037,1.203 0.072,2.151 -0.864,2.956 L -1.612,-1.872 0,0 Z"
             style="fill:#ffffff;fill-opacity:1;fill-rule:nonzero;stroke:none"
             id="path402"
             inkscape:connector-curvature="0" /></g><g
           id="g404"
           transform="translate(561.416,221.8291)"><path
             d="m 0,0 c -0.575,-0.131 -1.128,-0.438 -1.494,-0.919 -0.276,-0.36 -0.433,-1.001 -0.012,-1.322 0.441,-0.336 1.016,0.064 1.386,0.32 l 0.532,0.386 c 1.113,0.814 2.263,1.22 3.484,0.287 C 4.646,-1.821 5.28,-2.59 5.332,-3.581 5.381,-4.554 4.987,-5.505 4.406,-6.266 3.681,-7.217 2.649,-7.902 1.52,-8.261 l -0.94,2.049 c 0.806,0.162 1.6,0.475 2.111,1.146 0.352,0.46 0.497,1.127 -0.034,1.532 -0.551,0.42 -1.33,-0.205 -1.77,-0.534 -1.291,-0.964 -2.231,-1.53 -3.693,-0.414 -1.531,1.169 -1.699,3.025 -0.544,4.537 0.58,0.76 1.532,1.507 2.424,1.888 L 0,0 Z"
             style="fill:#ffffff;fill-opacity:1;fill-rule:nonzero;stroke:none"
             id="path406"
             inkscape:connector-curvature="0" /></g><g
           id="g408"
           transform="translate(570.0801,221.8242)"><path
             d="M 0,0 -1.421,-2.019 -9.187,3.446 -7.767,5.465 0,0 Z"
             style="fill:#ffffff;fill-opacity:1;fill-rule:nonzero;stroke:none"
             id="path410"
             inkscape:connector-curvature="0" /></g><g
           id="g412"
           transform="translate(563.1543,228.4072)"><path
             d="M 0,0 1.315,2.09 8.644,2.824 8.656,2.846 3.739,5.94 5.056,8.031 13.098,2.969 11.781,0.878 4.443,0.151 4.431,0.13 9.357,-2.972 8.042,-5.062 0,0 Z"
             style="fill:#ffffff;fill-opacity:1;fill-rule:nonzero;stroke:none"
             id="path414"
             inkscape:connector-curvature="0" /></g><g
           id="g416"
           transform="translate(577.0361,243.9912)"><path
             d="m 0,0 c 1.211,-0.674 2.21,-1.319 2.858,-2.621 0.708,-1.433 0.551,-2.934 -0.194,-4.335 -1.403,-2.637 -4.171,-3.519 -6.808,-2.116 -2.725,1.451 -3.533,4.251 -2.094,6.954 0.918,1.723 2.406,2.644 4.36,2.532 l -0.234,-2.53 c -0.96,0.126 -1.832,-0.225 -2.3,-1.103 -0.764,-1.435 0.208,-2.909 1.487,-3.59 1.302,-0.692 3.04,-0.618 3.804,0.817 0.503,0.945 0.398,1.929 -0.523,2.533 L -0.591,-5.239 -2.304,-4.327 0,0 Z"
             style="fill:#ffffff;fill-opacity:1;fill-rule:nonzero;stroke:none"
             id="path418"
             inkscape:connector-curvature="0" /></g></g></g></g></svg>